Maitree-200.ufo
<glyph name="exclam" format="1">
  <advance width="292"/>
  <unicode hex="0021"/>
  <note>
	exclam
  </note>
  <outline>
    <contour>
      <point x="159" y="158" type="line"/>
      <point x="168" y="705" type="line"/>
      <point x="124" y="705" type="line"/>
      <point x="133" y="158" type="line"/>
    </contour>
    <contour>
      <point x="164" y="-10"/>
      <point x="180" y="4"/>
      <point x="180" y="24" type="curve" smooth="yes"/>
      <point x="180" y="44"/>
      <point x="164" y="58"/>
      <point x="146" y="58" type="curve" smooth="yes"/>
      <point x="128" y="58"/>
      <point x="112" y="44"/>
      <point x="112" y="24" type="curve" smooth="yes"/>
      <point x="112" y="4"/>
      <point x="128" y="-10"/>
      <point x="146" y="-10" type="curve" smooth="yes"/>
    </contour>
  </outline>
</glyph>
<glyph name="quotedbl" format="1">
  <advance width="256"/>
  <unicode hex="0022"/>
  <note>
	quotedbl
  </note>
  <outline>
    <contour>
      <point x="165" y="504" type="line"/>
      <point x="211" y="702" type="line"/>
      <point x="177" y="705" type="line"/>
      <point x="145" y="504" type="line"/>
    </contour>
    <contour>
      <point x="65" y="504" type="line"/>
      <point x="111" y="702" type="line"/>
      <point x="77" y="705" type="line"/>
      <point x="45" y="504" type="line"/>
    </contour>
  </outline>
</glyph>
<glyph name="numbersign" format="1">
  <advance width="584"/>
  <unicode hex="0023"/>
  <note>
	numbersign
  </note>
  <outline>
    <contour>
      <point x="146" y="0" type="line"/>
      <point x="180" y="180" type="line"/>
      <point x="340" y="180" type="line"/>
      <point x="306" y="0" type="line"/>
      <point x="337" y="0" type="line"/>
      <point x="371" y="180" type="line"/>
      <point x="495" y="180" type="line"/>
      <point x="495" y="207" type="line"/>
      <point x="376" y="207" type="line"/>
      <point x="414" y="409" type="line"/>
      <point x="534" y="409" type="line"/>
      <point x="534" y="436" type="line"/>
      <point x="419" y="436" type="line"/>
      <point x="447" y="582" type="line"/>
      <point x="416" y="582" type="line"/>
      <point x="388" y="436" type="line"/>
      <point x="228" y="436" type="line"/>
      <point x="256" y="582" type="line"/>
      <point x="225" y="582" type="line"/>
      <point x="197" y="436" type="line"/>
      <point x="76" y="436" type="line"/>
      <point x="76" y="409" type="line"/>
      <point x="192" y="409" type="line"/>
      <point x="154" y="207" type="line"/>
      <point x="35" y="207" type="line"/>
      <point x="35" y="180" type="line"/>
      <point x="149" y="180" type="line"/>
      <point x="115" y="0" type="line"/>
    </contour>
    <contour>
      <point x="223" y="409" type="line"/>
      <point x="383" y="409" type="line"/>
      <point x="345" y="207" type="line"/>
      <point x="185" y="207" type="line"/>
    </contour>
  </outline>
</glyph>
<glyph name="dollar" format="1">
  <advance width="681"/>
  <unicode hex="0024"/>
  <note>
	dollar
  </note>
  <outline>
    <contour>
      <point x="308" y="-89" type="line"/>
      <point x="308" y="-10" type="line"/>
      <point x="311" y="-10" type="line" smooth="yes"/>
      <point x="433" y="-10"/>
      <point x="546" y="34"/>
      <point x="546" y="156" type="curve" smooth="yes"/>
      <point x="546" y="262"/>
      <point x="475" y="307"/>
      <point x="329" y="362" type="curve" smooth="yes"/>
      <point x="197" y="412"/>
      <point x="119" y="445"/>
      <point x="119" y="539" type="curve" smooth="yes"/>
      <point x="119" y="633"/>
      <point x="208" y="666"/>
      <point x="301" y="666" type="curve" smooth="yes"/>
      <point x="362" y="666"/>
      <point x="433" y="651"/>
      <point x="481" y="611" type="curve"/>
      <point x="491" y="544" type="line" smooth="yes"/>
      <point x="493" y="530"/>
      <point x="497" y="523"/>
      <point x="506" y="523" type="curve" smooth="yes"/>
      <point x="511" y="523"/>
      <point x="514" y="527"/>
      <point x="514" y="532" type="curve" smooth="yes"/>
      <point x="514" y="624" type="line"/>
      <point x="470" y="663"/>
      <point x="396" y="689"/>
      <point x="326" y="694" type="curve"/>
      <point x="326" y="776" type="line"/>
      <point x="297" y="776" type="line"/>
      <point x="297" y="695" type="line"/>
      <point x="191" y="694"/>
      <point x="83" y="653"/>
      <point x="83" y="533" type="curve" smooth="yes"/>
      <point x="83" y="437"/>
      <point x="166" y="388"/>
      <point x="289" y="341" type="curve" smooth="yes"/>
      <point x="442" y="283"/>
      <point x="510" y="249"/>
      <point x="510" y="155" type="curve" smooth="yes"/>
      <point x="510" y="50"/>
      <point x="409" y="19"/>
      <point x="311" y="19" type="curve" smooth="yes"/>
      <point x="253" y="19"/>
      <point x="165" y="32"/>
      <point x="113" y="73" type="curve"/>
      <point x="104" y="141" type="line" smooth="yes"/>
      <point x="102" y="155"/>
      <point x="98" y="162"/>
      <point x="89" y="162" type="curve" smooth="yes"/>
      <point x="83" y="162"/>
      <point x="80" y="158"/>
      <point x="80" y="153" type="curve" smooth="yes"/>
      <point x="80" y="60" type="line"/>
      <point x="127" y="18"/>
      <point x="213" y="-3"/>
      <point x="279" y="-9" type="curve"/>
      <point x="279" y="-89" type="line"/>
    </contour>
  </outline>
</glyph>
<glyph name="percent" format="1">
  <advance width="737"/>
  <unicode hex="0025"/>
  <note>
	percent
  </note>
  <outline>
    <contour>
      <point x="625" y="680" type="line"/>
      <point x="599" y="695" type="line"/>
      <point x="119" y="15" type="line"/>
      <point x="145" y="0" type="line"/>
    </contour>
    <contour>
      <point x="619" y="-10"/>
      <point x="677" y="49"/>
      <point x="677" y="155" type="curve" smooth="yes"/>
      <point x="677" y="260"/>
      <point x="619" y="320"/>
      <point x="541" y="320" type="curve" smooth="yes"/>
      <point x="463" y="320"/>
      <point x="405" y="260"/>
      <point x="405" y="155" type="curve" smooth="yes"/>
      <point x="405" y="49"/>
      <point x="463" y="-10"/>
      <point x="541" y="-10" type="curve" smooth="yes"/>
    </contour>
    <contour>
      <point x="483" y="17"/>
      <point x="438" y="65"/>
      <point x="438" y="155" type="curve" smooth="yes"/>
      <point x="438" y="245"/>
      <point x="483" y="293"/>
      <point x="541" y="293" type="curve" smooth="yes"/>
      <point x="599" y="293"/>
      <point x="644" y="245"/>
      <point x="644" y="155" type="curve" smooth="yes"/>
      <point x="644" y="65"/>
      <point x="599" y="17"/>
      <point x="541" y="17" type="curve" smooth="yes"/>
    </contour>
    <contour>
      <point x="274" y="365"/>
      <point x="332" y="424"/>
      <point x="332" y="530" type="curve" smooth="yes"/>
      <point x="332" y="635"/>
      <point x="274" y="695"/>
      <point x="196" y="695" type="curve" smooth="yes"/>
      <point x="118" y="695"/>
      <point x="60" y="635"/>
      <point x="60" y="530" type="curve" smooth="yes"/>
      <point x="60" y="424"/>
      <point x="118" y="365"/>
      <point x="196" y="365" type="curve" smooth="yes"/>
    </contour>
    <contour>
      <point x="138" y="392"/>
      <point x="93" y="440"/>
      <point x="93" y="530" type="curve" smooth="yes"/>
      <point x="93" y="620"/>
      <point x="138" y="668"/>
      <point x="196" y="668" type="curve" smooth="yes"/>
      <point x="254" y="668"/>
      <point x="299" y="620"/>
      <point x="299" y="530" type="curve" smooth="yes"/>
      <point x="299" y="440"/>
      <point x="254" y="392"/>
      <point x="196" y="392" type="curve" smooth="yes"/>
    </contour>
  </outline>
</glyph>
<glyph name="ampersand" format="1">
  <advance width="686"/>
  <unicode hex="0026"/>
  <note>
	ampersand
  </note>
  <outline>
    <contour>
      <point x="358" y="-10"/>
      <point x="432" y="39"/>
      <point x="477" y="104" type="curve"/>
      <point x="582" y="0" type="line"/>
      <point x="663" y="0" type="line" smooth="yes"/>
      <point x="669" y="0"/>
      <point x="670" y="5"/>
      <point x="670" y="8" type="curve" smooth="yes"/>
      <point x="670" y="16"/>
      <point x="667" y="19"/>
      <point x="654" y="21" type="curve" smooth="yes"/>
      <point x="596" y="28" type="line"/>
      <point x="492" y="130" type="line"/>
      <point x="537" y="203"/>
      <point x="553" y="286"/>
      <point x="560" y="359" type="curve"/>
      <point x="618" y="365" type="line" smooth="yes"/>
      <point x="628" y="366"/>
      <point x="634" y="370"/>
      <point x="634" y="378" type="curve" smooth="yes"/>
      <point x="634" y="381"/>
      <point x="633" y="386"/>
      <point x="627" y="386" type="curve" smooth="yes"/>
      <point x="483" y="386" type="line" smooth="yes"/>
      <point x="471" y="386"/>
      <point x="465" y="380"/>
      <point x="465" y="372" type="curve" smooth="yes"/>
      <point x="465" y="365"/>
      <point x="469" y="360"/>
      <point x="474" y="360" type="curve" smooth="yes"/>
      <point x="531" y="360" type="line"/>
      <point x="524" y="288"/>
      <point x="513" y="216"/>
      <point x="473" y="150" type="curve"/>
      <point x="261" y="360" type="line"/>
      <point x="361" y="402"/>
      <point x="437" y="460"/>
      <point x="437" y="540" type="curve" smooth="yes"/>
      <point x="437" y="626"/>
      <point x="369" y="687"/>
      <point x="271" y="687" type="curve" smooth="yes"/>
      <point x="170" y="687"/>
      <point x="104" y="629"/>
      <point x="104" y="551" type="curve" smooth="yes"/>
      <point x="104" y="480"/>
      <point x="139" y="440"/>
      <point x="209" y="369" type="curve"/>
      <point x="110" y="326"/>
      <point x="50" y="264"/>
      <point x="50" y="173" type="curve" smooth="yes"/>
      <point x="50" y="57"/>
      <point x="141" y="-10"/>
      <point x="260" y="-10" type="curve" smooth="yes"/>
    </contour>
    <contour>
      <point x="166" y="18"/>
      <point x="83" y="69"/>
      <point x="83" y="173" type="curve" smooth="yes"/>
      <point x="83" y="271"/>
      <point x="159" y="321"/>
      <point x="230" y="349" type="curve"/>
      <point x="455" y="124" type="line"/>
      <point x="421" y="71"/>
      <point x="356" y="18"/>
      <point x="260" y="18" type="curve" smooth="yes"/>
    </contour>
    <contour>
      <point x="188" y="431"/>
      <point x="137" y="482"/>
      <point x="137" y="547" type="curve" smooth="yes"/>
      <point x="137" y="620"/>
      <point x="194" y="661"/>
      <point x="271" y="661" type="curve" smooth="yes"/>
      <point x="344" y="661"/>
      <point x="404" y="620"/>
      <point x="404" y="537" type="curve" smooth="yes"/>
      <point x="404" y="467"/>
      <point x="323" y="415"/>
      <point x="242" y="381" type="curve"/>
    </contour>
  </outline>
</glyph>
<glyph name="quotesingle" format="1">
  <advance width="156"/>
  <unicode hex="0027"/>
  <note>
	quotesingle
  </note>
  <outline>
    <contour>
      <point x="65" y="504" type="line"/>
      <point x="111" y="702" type="line"/>
      <point x="77" y="705" type="line"/>
      <point x="45" y="504" type="line"/>
    </contour>
  </outline>
</glyph>
<glyph name="parenleft" format="1">
  <advance width="266"/>
  <unicode hex="0028"/>
  <note>
	parenleft
  </note>
  <outline>
    <contour>
      <point x="209" y="-79" type="line"/>
      <point x="149" y="36"/>
      <point x="93" y="151"/>
      <point x="93" y="350" type="curve" smooth="yes"/>
      <point x="93" y="549"/>
      <point x="149" y="660"/>
      <point x="209" y="775" type="curve"/>
      <point x="175" y="775" type="line"/>
      <point x="109" y="663"/>
      <point x="57" y="524"/>
      <point x="57" y="350" type="curve" smooth="yes"/>
      <point x="57" y="176"/>
      <point x="109" y="33"/>
      <point x="175" y="-79" type="curve"/>
    </contour>
  </outline>
</glyph>
<glyph name="parenright" format="1">
  <advance width="266"/>
  <unicode hex="0029"/>
  <note>
	parenright
  </note>
  <outline>
    <contour>
      <point x="91" y="-79" type="line"/>
      <point x="157" y="33"/>
      <point x="209" y="176"/>
      <point x="209" y="350" type="curve" smooth="yes"/>
      <point x="209" y="524"/>
      <point x="157" y="663"/>
      <point x="91" y="775" type="curve"/>
      <point x="57" y="775" type="line"/>
      <point x="117" y="660"/>
      <point x="173" y="549"/>
      <point x="173" y="350" type="curve" smooth="yes"/>
      <point x="173" y="151"/>
      <point x="117" y="36"/>
      <point x="57" y="-79" type="curve"/>
    </contour>
  </outline>
</glyph>
<glyph name="asterisk" format="1">
  <advance width="366"/>
  <unicode hex="002A"/>
  <note>
	asterisk
  </note>
  <outline>
    <contour>
      <point x="197" y="417" type="line"/>
      <point x="192" y="557" type="line"/>
      <point x="311" y="482" type="line"/>
      <point x="326" y="508" type="line"/>
      <point x="196" y="575" type="line"/>
      <point x="326" y="642" type="line"/>
      <point x="311" y="669" type="line"/>
      <point x="192" y="592" type="line"/>
      <point x="197" y="733" type="line"/>
      <point x="169" y="733" type="line"/>
      <point x="174" y="592" type="line"/>
      <point x="54" y="669" type="line"/>
      <point x="40" y="642" type="line"/>
      <point x="168" y="575" type="line"/>
      <point x="40" y="508" type="line"/>
      <point x="54" y="483" type="line"/>
      <point x="174" y="557" type="line"/>
      <point x="169" y="417" type="line"/>
    </contour>
  </outline>
</glyph>
<glyph name="plus" format="1">
  <advance width="611"/>
  <unicode hex="002B"/>
  <note>
	plus
  </note>
  <outline>
    <contour>
      <point x="320" y="96" type="line"/>
      <point x="320" y="320" type="line"/>
      <point x="544" y="320" type="line"/>
      <point x="544" y="348" type="line"/>
      <point x="320" y="348" type="line"/>
      <point x="320" y="572" type="line"/>
      <point x="291" y="572" type="line"/>
      <point x="291" y="348" type="line"/>
      <point x="67" y="348" type="line"/>
      <point x="67" y="320" type="line"/>
      <point x="291" y="320" type="line"/>
      <point x="291" y="96" type="line"/>
    </contour>
  </outline>
</glyph>
<glyph name="comma" format="1">
  <advance width="265"/>
  <unicode hex="002C"/>
  <note>
	comma
  </note>
  <outline>
    <contour>
      <point x="132" y="-42"/>
      <point x="161" y="27"/>
      <point x="175" y="94" type="curve"/>
      <point x="115" y="107" type="line" smooth="yes"/>
      <point x="102" y="110"/>
      <point x="92" y="104"/>
      <point x="92" y="91" type="curve" smooth="yes"/>
      <point x="92" y="87"/>
      <point x="95" y="84"/>
      <point x="98" y="83" type="curve" smooth="yes"/>
      <point x="132" y="72" type="line"/>
      <point x="128" y="31"/>
      <point x="103" y="-39"/>
      <point x="75" y="-81" type="curve"/>
      <point x="96" y="-93" type="line"/>
    </contour>
  </outline>
</glyph>
<glyph name="hyphen" format="1">
  <advance width="304"/>
  <unicode hex="002D"/>
  <note>
	hyphen
  </note>
  <outline>
    <contour>
      <point x="271" y="318" type="line"/>
      <point x="271" y="348" type="line"/>
      <point x="33" y="348" type="line"/>
      <point x="33" y="318" type="line"/>
    </contour>
  </outline>
</glyph>
<glyph name="period" format="1">
  <advance width="228"/>
  <unicode hex="002E"/>
  <note>
	period
  </note>
  <outline>
    <contour>
      <point x="132" y="-10"/>
      <point x="148" y="4"/>
      <point x="148" y="24" type="curve" smooth="yes"/>
      <point x="148" y="44"/>
      <point x="132" y="58"/>
      <point x="114" y="58" type="curve" smooth="yes"/>
      <point x="96" y="58"/>
      <point x="80" y="44"/>
      <point x="80" y="24" type="curve" smooth="yes"/>
      <point x="80" y="4"/>
      <point x="96" y="-10"/>
      <point x="114" y="-10" type="curve" smooth="yes"/>
    </contour>
  </outline>
</glyph>
<glyph name="slash" format="1">
  <advance width="340"/>
  <unicode hex="002F"/>
  <note>
	slash
  </note>
  <outline>
    <contour>
      <point x="355" y="718" type="line"/>
      <point x="324" y="730" type="line"/>
      <point x="-20" y="-121" type="line"/>
      <point x="9" y="-132" type="line"/>
    </contour>
  </outline>
</glyph>
<glyph name="zero" format="1">
  <advance width="694"/>
  <unicode hex="0030"/>
  <note>
	zero
  </note>
  <outline>
    <contour>
      <point x="515" y="-10"/>
      <point x="629" y="128"/>
      <point x="629" y="342" type="curve" smooth="yes"/>
      <point x="629" y="556"/>
      <point x="515" y="695"/>
      <point x="347" y="695" type="curve" smooth="yes"/>
      <point x="179" y="695"/>
      <point x="65" y="556"/>
      <point x="65" y="342" type="curve" smooth="yes"/>
      <point x="65" y="128"/>
      <point x="179" y="-10"/>
      <point x="347" y="-10" type="curve" smooth="yes"/>
    </contour>
    <contour>
      <point x="196" y="19"/>
      <point x="101" y="156"/>
      <point x="101" y="342" type="curve" smooth="yes"/>
      <point x="101" y="528"/>
      <point x="196" y="666"/>
      <point x="347" y="666" type="curve" smooth="yes"/>
      <point x="498" y="666"/>
      <point x="593" y="528"/>
      <point x="593" y="342" type="curve" smooth="yes"/>
      <point x="593" y="156"/>
      <point x="498" y="19"/>
      <point x="347" y="19" type="curve" smooth="yes"/>
    </contour>
  </outline>
</glyph>
<glyph name="one" format="1">
  <advance width="417"/>
  <unicode hex="0031"/>
  <note>
	one
  </note>
  <outline>
    <contour>
      <point x="340" y="0" type="line" smooth="yes"/>
      <point x="345" y="0"/>
      <point x="347" y="6"/>
      <point x="347" y="10" type="curve" smooth="yes"/>
      <point x="347" y="17"/>
      <point x="343" y="22"/>
      <point x="325" y="23" type="curve" smooth="yes"/>
      <point x="225" y="28" type="line"/>
      <point x="225" y="685" type="line"/>
      <point x="187" y="685" type="line"/>
      <point x="92" y="656" type="line" smooth="yes"/>
      <point x="81" y="653"/>
      <point x="74" y="647"/>
      <point x="74" y="637" type="curve" smooth="yes"/>
      <point x="74" y="628"/>
      <point x="81" y="624"/>
      <point x="85" y="624" type="curve" smooth="yes"/>
      <point x="190" y="656" type="line"/>
      <point x="190" y="28" type="line"/>
      <point x="75" y="28" type="line" smooth="yes"/>
      <point x="63" y="28"/>
      <point x="57" y="21"/>
      <point x="57" y="13" type="curve" smooth="yes"/>
      <point x="57" y="6"/>
      <point x="61" y="0"/>
      <point x="66" y="0" type="curve" smooth="yes"/>
    </contour>
  </outline>
</glyph>
<glyph name="two" format="1">
  <advance width="574"/>
  <unicode hex="0032"/>
  <note>
	two
  </note>
  <outline>
    <contour>
      <point x="504" y="0" type="line"/>
      <point x="504" y="29" type="line"/>
      <point x="105" y="29" type="line"/>
      <point x="105" y="33" type="line"/>
      <point x="338" y="269" type="line" smooth="yes"/>
      <point x="427" y="359"/>
      <point x="488" y="436"/>
      <point x="488" y="521" type="curve" smooth="yes"/>
      <point x="488" y="638"/>
      <point x="399" y="695"/>
      <point x="301" y="695" type="curve" smooth="yes"/>
      <point x="223" y="695"/>
      <point x="142" y="666"/>
      <point x="89" y="624" type="curve"/>
      <point x="89" y="531" type="line" smooth="yes"/>
      <point x="89" y="526"/>
      <point x="92" y="522"/>
      <point x="98" y="522" type="curve" smooth="yes"/>
      <point x="107" y="522"/>
      <point x="111" y="529"/>
      <point x="113" y="544" type="curve" smooth="yes"/>
      <point x="123" y="613" type="line"/>
      <point x="170" y="646"/>
      <point x="232" y="666"/>
      <point x="299" y="666" type="curve" smooth="yes"/>
      <point x="384" y="666"/>
      <point x="452" y="620"/>
      <point x="452" y="521" type="curve" smooth="yes"/>
      <point x="452" y="441"/>
      <point x="387" y="369"/>
      <point x="325" y="305" type="curve" smooth="yes"/>
      <point x="72" y="45" type="line"/>
      <point x="72" y="0" type="line"/>
    </contour>
  </outline>
</glyph>
<glyph name="three" format="1">
  <advance width="577"/>
  <unicode hex="0033"/>
  <note>
	three
  </note>
  <outline>
    <contour>
      <point x="408" y="-10"/>
      <point x="500" y="53"/>
      <point x="500" y="178" type="curve" smooth="yes"/>
      <point x="500" y="266"/>
      <point x="443" y="343"/>
      <point x="328" y="358" type="curve"/>
      <point x="417" y="383"/>
      <point x="473" y="443"/>
      <point x="473" y="528" type="curve" smooth="yes"/>
      <point x="473" y="645"/>
      <point x="384" y="695"/>
      <point x="286" y="695" type="curve" smooth="yes"/>
      <point x="208" y="695"/>
      <point x="127" y="666"/>
      <point x="74" y="624" type="curve"/>
      <point x="74" y="531" type="line" smooth="yes"/>
      <point x="74" y="526"/>
      <point x="77" y="522"/>
      <point x="83" y="522" type="curve" smooth="yes"/>
      <point x="92" y="522"/>
      <point x="96" y="529"/>
      <point x="98" y="544" type="curve" smooth="yes"/>
      <point x="108" y="613" type="line"/>
      <point x="155" y="646"/>
      <point x="217" y="666"/>
      <point x="284" y="666" type="curve" smooth="yes"/>
      <point x="369" y="666"/>
      <point x="437" y="627"/>
      <point x="437" y="528" type="curve" smooth="yes"/>
      <point x="437" y="422"/>
      <point x="342" y="376"/>
      <point x="255" y="365" type="curve" smooth="yes"/>
      <point x="179" y="355" type="line"/>
      <point x="179" y="326" type="line"/>
      <point x="259" y="336"/>
      <point x="271" y="338"/>
      <point x="288" y="338" type="curve" smooth="yes"/>
      <point x="391" y="338"/>
      <point x="464" y="270"/>
      <point x="464" y="180" type="curve" smooth="yes"/>
      <point x="464" y="72"/>
      <point x="383" y="19"/>
      <point x="259" y="19" type="curve" smooth="yes"/>
      <point x="192" y="19"/>
      <point x="120" y="37"/>
      <point x="62" y="61" type="curve"/>
      <point x="62" y="29" type="line"/>
      <point x="111" y="8"/>
      <point x="183" y="-10"/>
      <point x="263" y="-10" type="curve" smooth="yes"/>
    </contour>
  </outline>
</glyph>
<glyph name="four" format="1">
  <advance width="598"/>
  <unicode hex="0034"/>
  <note>
	four
  </note>
  <outline>
    <contour>
      <point x="427" y="0" type="line"/>
      <point x="427" y="177" type="line"/>
      <point x="533" y="177" type="line"/>
      <point x="533" y="206" type="line"/>
      <point x="427" y="206" type="line"/>
      <point x="427" y="685" type="line"/>
      <point x="372" y="685" type="line"/>
      <point x="45" y="223" type="line"/>
      <point x="45" y="177" type="line"/>
      <point x="393" y="177" type="line"/>
      <point x="393" y="0" type="line"/>
    </contour>
    <contour>
      <point x="393" y="660" type="line"/>
      <point x="393" y="206" type="line"/>
      <point x="73" y="206" type="line"/>
    </contour>
  </outline>
</glyph>
<glyph name="five" format="1">
  <advance width="533"/>
  <unicode hex="0035"/>
  <note>
	five
  </note>
  <outline>
    <contour>
      <point x="386" y="-10"/>
      <point x="478" y="68"/>
      <point x="478" y="193" type="curve" smooth="yes"/>
      <point x="478" y="342"/>
      <point x="369" y="403"/>
      <point x="250" y="403" type="curve" smooth="yes"/>
      <point x="208" y="403"/>
      <point x="156" y="395"/>
      <point x="115" y="384" type="curve"/>
      <point x="137" y="656" type="line"/>
      <point x="426" y="656" type="line"/>
      <point x="426" y="685" type="line"/>
      <point x="107" y="685" type="line"/>
      <point x="81" y="373" type="line"/>
      <point x="103" y="355" type="line"/>
      <point x="149" y="366"/>
      <point x="198" y="374"/>
      <point x="244" y="374" type="curve" smooth="yes"/>
      <point x="351" y="374"/>
      <point x="442" y="332"/>
      <point x="442" y="190" type="curve" smooth="yes"/>
      <point x="442" y="82"/>
      <point x="361" y="19"/>
      <point x="247" y="19" type="curve" smooth="yes"/>
      <point x="180" y="19"/>
      <point x="113" y="36"/>
      <point x="55" y="60" type="curve"/>
      <point x="55" y="28" type="line"/>
      <point x="104" y="7"/>
      <point x="171" y="-10"/>
      <point x="251" y="-10" type="curve" smooth="yes"/>
    </contour>
  </outline>
</glyph>
<glyph name="six" format="1">
  <advance width="564"/>
  <unicode hex="0036"/>
  <note>
	six
  </note>
  <outline>
    <contour>
      <point x="401" y="-10"/>
      <point x="499" y="67"/>
      <point x="499" y="213" type="curve" smooth="yes"/>
      <point x="499" y="334"/>
      <point x="428" y="403"/>
      <point x="310" y="403" type="curve" smooth="yes"/>
      <point x="221" y="403"/>
      <point x="155" y="367"/>
      <point x="100" y="326" type="curve"/>
      <point x="100" y="548"/>
      <point x="198" y="668"/>
      <point x="378" y="668" type="curve" smooth="yes"/>
      <point x="403" y="668"/>
      <point x="421" y="665"/>
      <point x="442" y="660" type="curve"/>
      <point x="442" y="687" type="line"/>
      <point x="423" y="692"/>
      <point x="401" y="695"/>
      <point x="375" y="695" type="curve" smooth="yes"/>
      <point x="153" y="695"/>
      <point x="65" y="531"/>
      <point x="65" y="319" type="curve" smooth="yes"/>
      <point x="65" y="120"/>
      <point x="135" y="-10"/>
      <point x="294" y="-10" type="curve" smooth="yes"/>
    </contour>
    <contour>
      <point x="164" y="19"/>
      <point x="101" y="142"/>
      <point x="101" y="295" type="curve"/>
      <point x="146" y="335"/>
      <point x="227" y="374"/>
      <point x="294" y="374" type="curve" smooth="yes"/>
      <point x="395" y="374"/>
      <point x="463" y="330"/>
      <point x="463" y="213" type="curve" smooth="yes"/>
      <point x="463" y="84"/>
      <point x="380" y="19"/>
      <point x="290" y="19" type="curve" smooth="yes"/>
    </contour>
  </outline>
</glyph>
<glyph name="seven" format="1">
  <advance width="538"/>
  <unicode hex="0037"/>
  <note>
	seven
  </note>
  <outline>
    <contour>
      <point x="215" y="0" type="line"/>
      <point x="483" y="658" type="line"/>
      <point x="483" y="685" type="line"/>
      <point x="55" y="685" type="line"/>
      <point x="55" y="585" type="line" smooth="yes"/>
      <point x="55" y="579"/>
      <point x="58" y="576"/>
      <point x="64" y="576" type="curve" smooth="yes"/>
      <point x="73" y="576"/>
      <point x="77" y="584"/>
      <point x="79" y="600" type="curve" smooth="yes"/>
      <point x="87" y="659" type="line"/>
      <point x="444" y="659" type="line"/>
      <point x="176" y="0" type="line"/>
    </contour>
  </outline>
</glyph>
<glyph name="eight" format="1">
  <advance width="589"/>
  <unicode hex="0038"/>
  <note>
	eight
  </note>
  <outline>
    <contour>
      <point x="431" y="-10"/>
      <point x="514" y="61"/>
      <point x="514" y="167" type="curve" smooth="yes"/>
      <point x="514" y="234"/>
      <point x="474" y="291"/>
      <point x="328" y="359" type="curve"/>
      <point x="444" y="413"/>
      <point x="491" y="476"/>
      <point x="491" y="544" type="curve" smooth="yes"/>
      <point x="491" y="632"/>
      <point x="418" y="695"/>
      <point x="294" y="695" type="curve" smooth="yes"/>
      <point x="176" y="695"/>
      <point x="99" y="631"/>
      <point x="99" y="544" type="curve" smooth="yes"/>
      <point x="99" y="467"/>
      <point x="158" y="414"/>
      <point x="262" y="360" type="curve"/>
      <point x="136" y="304"/>
      <point x="75" y="237"/>
      <point x="75" y="163" type="curve" smooth="yes"/>
      <point x="75" y="54"/>
      <point x="163" y="-10"/>
      <point x="298" y="-10" type="curve" smooth="yes"/>
    </contour>
    <contour>
      <point x="183" y="18"/>
      <point x="110" y="70"/>
      <point x="110" y="162" type="curve" smooth="yes"/>
      <point x="110" y="242"/>
      <point x="180" y="295"/>
      <point x="295" y="343" type="curve"/>
      <point x="416" y="291"/>
      <point x="479" y="240"/>
      <point x="479" y="165" type="curve" smooth="yes"/>
      <point x="479" y="72"/>
      <point x="405" y="18"/>
      <point x="295" y="18" type="curve" smooth="yes"/>
    </contour>
    <contour>
      <point x="206" y="421"/>
      <point x="134" y="464"/>
      <point x="134" y="541" type="curve" smooth="yes"/>
      <point x="134" y="621"/>
      <point x="201" y="667"/>
      <point x="293" y="667" type="curve" smooth="yes"/>
      <point x="389" y="667"/>
      <point x="456" y="622"/>
      <point x="456" y="541" type="curve" smooth="yes"/>
      <point x="456" y="470"/>
      <point x="392" y="416"/>
      <point x="298" y="373" type="curve"/>
    </contour>
  </outline>
</glyph>
<glyph name="nine" format="1">
  <advance width="564"/>
  <unicode hex="0039"/>
  <note>
	nine
  </note>
  <outline>
    <contour>
      <point x="411" y="-10"/>
      <point x="499" y="139"/>
      <point x="499" y="366" type="curve" smooth="yes"/>
      <point x="499" y="565"/>
      <point x="440" y="695"/>
      <point x="284" y="695" type="curve" smooth="yes"/>
      <point x="166" y="695"/>
      <point x="65" y="618"/>
      <point x="65" y="472" type="curve" smooth="yes"/>
      <point x="65" y="332"/>
      <point x="166" y="262"/>
      <point x="274" y="262" type="curve" smooth="yes"/>
      <point x="351" y="262"/>
      <point x="414" y="293"/>
      <point x="464" y="345" type="curve"/>
      <point x="464" y="124"/>
      <point x="366" y="17"/>
      <point x="196" y="17" type="curve" smooth="yes"/>
      <point x="171" y="17"/>
      <point x="143" y="20"/>
      <point x="122" y="25" type="curve"/>
      <point x="122" y="-2" type="line"/>
      <point x="141" y="-7"/>
      <point x="173" y="-10"/>
      <point x="199" y="-10" type="curve" smooth="yes"/>
    </contour>
    <contour>
      <point x="183" y="291"/>
      <point x="101" y="343"/>
      <point x="101" y="472" type="curve" smooth="yes"/>
      <point x="101" y="601"/>
      <point x="187" y="666"/>
      <point x="288" y="666" type="curve" smooth="yes"/>
      <point x="411" y="666"/>
      <point x="463" y="543"/>
      <point x="463" y="380" type="curve"/>
      <point x="410" y="326"/>
      <point x="354" y="291"/>
      <point x="278" y="291" type="curve" smooth="yes"/>
    </contour>
  </outline>
</glyph>
<glyph name="colon" format="1">
  <advance width="228"/>
  <unicode hex="003A"/>
  <note>
	colon
  </note>
  <outline>
    <contour>
      <point x="132" y="415"/>
      <point x="148" y="429"/>
      <point x="148" y="449" type="curve" smooth="yes"/>
      <point x="148" y="469"/>
      <point x="132" y="483"/>
      <point x="114" y="483" type="curve" smooth="yes"/>
      <point x="96" y="483"/>
      <point x="80" y="469"/>
      <point x="80" y="449" type="curve" smooth="yes"/>
      <point x="80" y="429"/>
      <point x="96" y="415"/>
      <point x="114" y="415" type="curve" smooth="yes"/>
    </contour>
    <contour>
      <point x="132" y="55"/>
      <point x="148" y="69"/>
      <point x="148" y="89" type="curve" smooth="yes"/>
      <point x="148" y="109"/>
      <point x="132" y="123"/>
      <point x="114" y="123" type="curve" smooth="yes"/>
      <point x="96" y="123"/>
      <point x="80" y="109"/>
      <point x="80" y="89" type="curve" smooth="yes"/>
      <point x="80" y="69"/>
      <point x="96" y="55"/>
      <point x="114" y="55" type="curve" smooth="yes"/>
    </contour>
  </outline>
</glyph>
<glyph name="semicolon" format="1">
  <advance width="227"/>
  <unicode hex="003B"/>
  <note>
	semicolon
  </note>
  <outline>
    <contour>
      <point x="109" y="-42"/>
      <point x="138" y="27"/>
      <point x="152" y="94" type="curve"/>
      <point x="92" y="107" type="line" smooth="yes"/>
      <point x="79" y="110"/>
      <point x="69" y="104"/>
      <point x="69" y="91" type="curve" smooth="yes"/>
      <point x="69" y="87"/>
      <point x="72" y="84"/>
      <point x="75" y="83" type="curve" smooth="yes"/>
      <point x="109" y="72" type="line"/>
      <point x="105" y="31"/>
      <point x="80" y="-39"/>
      <point x="52" y="-81" type="curve"/>
      <point x="73" y="-93" type="line"/>
    </contour>
    <contour>
      <point x="136" y="415"/>
      <point x="152" y="429"/>
      <point x="152" y="449" type="curve" smooth="yes"/>
      <point x="152" y="469"/>
      <point x="136" y="483"/>
      <point x="118" y="483" type="curve" smooth="yes"/>
      <point x="100" y="483"/>
      <point x="84" y="469"/>
      <point x="84" y="449" type="curve" smooth="yes"/>
      <point x="84" y="429"/>
      <point x="100" y="415"/>
      <point x="118" y="415" type="curve" smooth="yes"/>
    </contour>
  </outline>
</glyph>
<glyph name="less" format="1">
  <advance width="558"/>
  <unicode hex="003C"/>
  <note>
	less
  </note>
  <outline>
    <contour>
      <point x="478" y="40" type="line"/>
      <point x="101" y="281" type="line"/>
      <point x="478" y="522" type="line"/>
      <point x="463" y="548" type="line"/>
      <point x="70" y="297" type="line"/>
      <point x="70" y="265" type="line"/>
      <point x="463" y="14" type="line"/>
    </contour>
  </outline>
</glyph>
<glyph name="equal" format="1">
  <advance width="578"/>
  <unicode hex="003D"/>
  <note>
	equal
  </note>
  <outline>
    <contour>
      <point x="511" y="385" type="line"/>
      <point x="511" y="413" type="line"/>
      <point x="67" y="413" type="line"/>
      <point x="67" y="385" type="line"/>
    </contour>
    <contour>
      <point x="511" y="209" type="line"/>
      <point x="511" y="237" type="line"/>
      <point x="67" y="237" type="line"/>
      <point x="67" y="209" type="line"/>
    </contour>
  </outline>
</glyph>
<glyph name="greater" format="1">
  <advance width="558"/>
  <unicode hex="003E"/>
  <note>
	greater
  </note>
  <outline>
    <contour>
      <point x="488" y="265" type="line"/>
      <point x="488" y="297" type="line"/>
      <point x="95" y="548" type="line"/>
      <point x="80" y="522" type="line"/>
      <point x="457" y="281" type="line"/>
      <point x="80" y="40" type="line"/>
      <point x="95" y="14" type="line"/>
    </contour>
  </outline>
</glyph>
<glyph name="question" format="1">
  <advance width="463"/>
  <unicode hex="003F"/>
  <note>
	question
  </note>
  <outline>
    <contour>
      <point x="237" y="158" type="line"/>
      <point x="237" y="262" type="line" smooth="yes"/>
      <point x="237" y="343"/>
      <point x="254" y="373"/>
      <point x="306" y="417" type="curve" smooth="yes"/>
      <point x="354" y="458"/>
      <point x="403" y="503"/>
      <point x="403" y="582" type="curve" smooth="yes"/>
      <point x="403" y="678"/>
      <point x="332" y="715"/>
      <point x="246" y="715" type="curve" smooth="yes"/>
      <point x="189" y="715"/>
      <point x="125" y="688"/>
      <point x="85" y="656" type="curve"/>
      <point x="85" y="582" type="line" smooth="yes"/>
      <point x="85" y="578"/>
      <point x="88" y="575"/>
      <point x="93" y="575" type="curve" smooth="yes"/>
      <point x="100" y="575"/>
      <point x="103" y="580"/>
      <point x="105" y="593" type="curve" smooth="yes"/>
      <point x="112" y="643" type="line"/>
      <point x="150" y="672"/>
      <point x="202" y="687"/>
      <point x="246" y="687" type="curve" smooth="yes"/>
      <point x="317" y="687"/>
      <point x="369" y="654"/>
      <point x="369" y="582" type="curve" smooth="yes"/>
      <point x="369" y="514"/>
      <point x="329" y="479"/>
      <point x="288" y="441" type="curve" smooth="yes"/>
      <point x="232" y="388"/>
      <point x="205" y="355"/>
      <point x="205" y="273" type="curve" smooth="yes"/>
      <point x="205" y="158" type="line"/>
    </contour>
    <contour>
      <point x="239" y="-10"/>
      <point x="255" y="4"/>
      <point x="255" y="24" type="curve" smooth="yes"/>
      <point x="255" y="44"/>
      <point x="239" y="58"/>
      <point x="221" y="58" type="curve" smooth="yes"/>
      <point x="203" y="58"/>
      <point x="187" y="44"/>
      <point x="187" y="24" type="curve" smooth="yes"/>
      <point x="187" y="4"/>
      <point x="203" y="-10"/>
      <point x="221" y="-10" type="curve" smooth="yes"/>
    </contour>
  </outline>
</glyph>
<glyph name="at" format="1">
  <advance width="877"/>
  <unicode hex="0040"/>
  <note>
	at
  </note>
  <outline>
    <contour>
      <point x="505" y="-90"/>
      <point x="578" y="-75"/>
      <point x="639" y="-53" type="curve"/>
      <point x="639" y="-26" type="line"/>
      <point x="568" y="-52"/>
      <point x="499" y="-62"/>
      <point x="431" y="-62" type="curve" smooth="yes"/>
      <point x="221" y="-62"/>
      <point x="90" y="60"/>
      <point x="90" y="279" type="curve" smooth="yes"/>
      <point x="90" y="525"/>
      <point x="244" y="687"/>
      <point x="483" y="687" type="curve" smooth="yes"/>
      <point x="676" y="687"/>
      <point x="809" y="556"/>
      <point x="809" y="359" type="curve" smooth="yes"/>
      <point x="809" y="228"/>
      <point x="757" y="142"/>
      <point x="686" y="142" type="curve" smooth="yes"/>
      <point x="635" y="142"/>
      <point x="596" y="179"/>
      <point x="596" y="242" type="curve"/>
      <point x="612" y="488" type="line"/>
      <point x="568" y="501"/>
      <point x="510" y="510"/>
      <point x="470" y="510" type="curve" smooth="yes"/>
      <point x="348" y="510"/>
      <point x="272" y="420"/>
      <point x="272" y="292" type="curve" smooth="yes"/>
      <point x="272" y="172"/>
      <point x="334" y="114"/>
      <point x="426" y="114" type="curve" smooth="yes"/>
      <point x="488" y="114"/>
      <point x="539" y="143"/>
      <point x="575" y="207" type="curve"/>
      <point x="585" y="149"/>
      <point x="629" y="114"/>
      <point x="685" y="114" type="curve" smooth="yes"/>
      <point x="777" y="114"/>
      <point x="842" y="226"/>
      <point x="842" y="358" type="curve" smooth="yes"/>
      <point x="842" y="577"/>
      <point x="691" y="715"/>
      <point x="473" y="715" type="curve" smooth="yes"/>
      <point x="222" y="715"/>
      <point x="57" y="528"/>
      <point x="57" y="276" type="curve" smooth="yes"/>
      <point x="57" y="42"/>
      <point x="203" y="-90"/>
      <point x="431" y="-90" type="curve" smooth="yes"/>
    </contour>
    <contour>
      <point x="349" y="142"/>
      <point x="305" y="192"/>
      <point x="305" y="290" type="curve" smooth="yes"/>
      <point x="305" y="410"/>
      <point x="371" y="482"/>
      <point x="471" y="482" type="curve" smooth="yes"/>
      <point x="499" y="482"/>
      <point x="541" y="478"/>
      <point x="579" y="466" type="curve"/>
      <point x="563" y="237" type="line"/>
      <point x="536" y="187"/>
      <point x="505" y="142"/>
      <point x="428" y="142" type="curve" smooth="yes"/>
    </contour>
  </outline>
</glyph>
<glyph name="B" format="1">
  <advance width="651"/>
  <unicode hex="0042"/>
  <note>
	B
  </note>
  <outline>
    <contour>
      <point x="368" y="0" type="line" smooth="yes"/>
      <point x="498" y="0"/>
      <point x="586" y="61"/>
      <point x="586" y="189" type="curve" smooth="yes"/>
      <point x="586" y="290"/>
      <point x="523" y="345"/>
      <point x="440" y="367" type="curve"/>
      <point x="440" y="371" type="line"/>
      <point x="500" y="395"/>
      <point x="542" y="440"/>
      <point x="542" y="521" type="curve" smooth="yes"/>
      <point x="542" y="646"/>
      <point x="448" y="695"/>
      <point x="333" y="695" type="curve" smooth="yes"/>
      <point x="73" y="695" type="line" smooth="yes"/>
      <point x="68" y="695"/>
      <point x="65" y="691"/>
      <point x="65" y="686" type="curve" smooth="yes"/>
      <point x="65" y="677"/>
      <point x="74" y="674"/>
      <point x="84" y="673" type="curve" smooth="yes"/>
      <point x="130" y="667" type="line"/>
      <point x="130" y="28" type="line"/>
      <point x="84" y="22" type="line" smooth="yes"/>
      <point x="74" y="21"/>
      <point x="65" y="18"/>
      <point x="65" y="9" type="curve" smooth="yes"/>
      <point x="65" y="4"/>
      <point x="68" y="0"/>
      <point x="73" y="0" type="curve" smooth="yes"/>
    </contour>
    <contour>
      <point x="164" y="349" type="line"/>
      <point x="376" y="349" type="line" smooth="yes"/>
      <point x="488" y="349"/>
      <point x="551" y="285"/>
      <point x="551" y="189" type="curve" smooth="yes"/>
      <point x="551" y="91"/>
      <point x="491" y="28"/>
      <point x="364" y="28" type="curve" smooth="yes"/>
      <point x="164" y="28" type="line"/>
    </contour>
    <contour>
      <point x="164" y="667" type="line"/>
      <point x="328" y="667" type="line" smooth="yes"/>
      <point x="443" y="667"/>
      <point x="507" y="617"/>
      <point x="507" y="521" type="curve" smooth="yes"/>
      <point x="507" y="425"/>
      <point x="440" y="377"/>
      <point x="358" y="377" type="curve" smooth="yes"/>
      <point x="164" y="377" type="line"/>
    </contour>
  </outline>
</glyph>
<glyph name="C" format="1">
  <advance width="639"/>
  <unicode hex="0043"/>
  <note>
	C
  </note>
  <outline>
    <contour>
      <point x="446" y="-10"/>
      <point x="512" y="6"/>
      <point x="555" y="31" type="curve" smooth="yes"/>
      <point x="567" y="38"/>
      <point x="579" y="47"/>
      <point x="579" y="56" type="curve" smooth="yes"/>
      <point x="579" y="62"/>
      <point x="575" y="69"/>
      <point x="568" y="69" type="curve" smooth="yes"/>
      <point x="563" y="69"/>
      <point x="561" y="67"/>
      <point x="555" y="63" type="curve" smooth="yes"/>
      <point x="507" y="31"/>
      <point x="441" y="19"/>
      <point x="379" y="19" type="curve" smooth="yes"/>
      <point x="202" y="19"/>
      <point x="89" y="141"/>
      <point x="89" y="347" type="curve" smooth="yes"/>
      <point x="89" y="553"/>
      <point x="194" y="676"/>
      <point x="366" y="676" type="curve" smooth="yes"/>
      <point x="431" y="676"/>
      <point x="497" y="660"/>
      <point x="542" y="623" type="curve"/>
      <point x="552" y="554" type="line" smooth="yes"/>
      <point x="554" y="539"/>
      <point x="558" y="532"/>
      <point x="567" y="532" type="curve" smooth="yes"/>
      <point x="573" y="532"/>
      <point x="576" y="536"/>
      <point x="576" y="541" type="curve" smooth="yes"/>
      <point x="576" y="634" type="line"/>
      <point x="523" y="679"/>
      <point x="441" y="705"/>
      <point x="366" y="705" type="curve" smooth="yes"/>
      <point x="178" y="705"/>
      <point x="54" y="582"/>
      <point x="54" y="347" type="curve" smooth="yes"/>
      <point x="54" y="112"/>
      <point x="186" y="-10"/>
      <point x="379" y="-10" type="curve" smooth="yes"/>
    </contour>
  </outline>
</glyph>
<glyph name="D" format="1">
  <advance width="713"/>
  <unicode hex="0044"/>
  <note>
	D
  </note>
  <outline>
    <contour>
      <point x="336" y="0" type="line" smooth="yes"/>
      <point x="524" y="0"/>
      <point x="658" y="112"/>
      <point x="658" y="347" type="curve" smooth="yes"/>
      <point x="658" y="582"/>
      <point x="524" y="695"/>
      <point x="336" y="695" type="curve" smooth="yes"/>
      <point x="73" y="695" type="line" smooth="yes"/>
      <point x="68" y="695"/>
      <point x="65" y="691"/>
      <point x="65" y="686" type="curve" smooth="yes"/>
      <point x="65" y="677"/>
      <point x="74" y="674"/>
      <point x="84" y="673" type="curve" smooth="yes"/>
      <point x="130" y="667" type="line"/>
      <point x="130" y="28" type="line"/>
      <point x="84" y="22" type="line" smooth="yes"/>
      <point x="74" y="21"/>
      <point x="65" y="18"/>
      <point x="65" y="9" type="curve" smooth="yes"/>
      <point x="65" y="4"/>
      <point x="68" y="0"/>
      <point x="73" y="0" type="curve" smooth="yes"/>
    </contour>
    <contour>
      <point x="164" y="667" type="line"/>
      <point x="336" y="667" type="line" smooth="yes"/>
      <point x="508" y="667"/>
      <point x="623" y="553"/>
      <point x="623" y="347" type="curve" smooth="yes"/>
      <point x="623" y="141"/>
      <point x="508" y="28"/>
      <point x="336" y="28" type="curve" smooth="yes"/>
      <point x="164" y="28" type="line"/>
    </contour>
  </outline>
</glyph>
<glyph name="F" format="1">
  <advance width="631"/>
  <unicode hex="0046"/>
  <note>
	F
  </note>
  <outline>
    <contour>
      <point x="231" y="0" type="line" smooth="yes"/>
      <point x="237" y="0"/>
      <point x="238" y="5"/>
      <point x="238" y="8" type="curve" smooth="yes"/>
      <point x="238" y="16"/>
      <point x="232" y="20"/>
      <point x="222" y="21" type="curve" smooth="yes"/>
      <point x="164" y="27" type="line"/>
      <point x="164" y="332" type="line"/>
      <point x="480" y="332" type="line"/>
      <point x="486" y="279" type="line" smooth="yes"/>
      <point x="488" y="263"/>
      <point x="492" y="256"/>
      <point x="501" y="256" type="curve" smooth="yes"/>
      <point x="506" y="256"/>
      <point x="510" y="259"/>
      <point x="510" y="265" type="curve" smooth="yes"/>
      <point x="510" y="427" type="line" smooth="yes"/>
      <point x="510" y="433"/>
      <point x="506" y="436"/>
      <point x="501" y="436" type="curve" smooth="yes"/>
      <point x="492" y="436"/>
      <point x="488" y="429"/>
      <point x="486" y="413" type="curve" smooth="yes"/>
      <point x="480" y="360" type="line"/>
      <point x="164" y="360" type="line"/>
      <point x="164" y="667" type="line"/>
      <point x="526" y="667" type="line"/>
      <point x="535" y="606" type="line" smooth="yes"/>
      <point x="537" y="591"/>
      <point x="541" y="584"/>
      <point x="550" y="584" type="curve" smooth="yes"/>
      <point x="556" y="584"/>
      <point x="559" y="588"/>
      <point x="559" y="593" type="curve" smooth="yes"/>
      <point x="559" y="695" type="line"/>
      <point x="73" y="695" type="line" smooth="yes"/>
      <point x="68" y="695"/>
      <point x="65" y="691"/>
      <point x="65" y="686" type="curve" smooth="yes"/>
      <point x="65" y="677"/>
      <point x="72" y="675"/>
      <point x="84" y="673" type="curve" smooth="yes"/>
      <point x="130" y="667" type="line"/>
      <point x="130" y="26" type="line"/>
      <point x="84" y="26" type="line" smooth="yes"/>
      <point x="72" y="26"/>
      <point x="66" y="20"/>
      <point x="66" y="12" type="curve" smooth="yes"/>
      <point x="66" y="5"/>
      <point x="70" y="0"/>
      <point x="75" y="0" type="curve" smooth="yes"/>
    </contour>
  </outline>
</glyph>
<glyph name="J" format="1">
  <advance width="333"/>
  <unicode hex="004A"/>
  <note>
	J
  </note>
  <outline>
    <contour>
      <point x="67" y="-10"/>
      <point x="72" y="-9"/>
      <point x="80" y="-6" type="curve" smooth="yes"/>
      <point x="180" y="32"/>
      <point x="207" y="101"/>
      <point x="207" y="201" type="curve" smooth="yes"/>
      <point x="207" y="668" type="line"/>
      <point x="265" y="674" type="line" smooth="yes"/>
      <point x="275" y="675"/>
      <point x="281" y="679"/>
      <point x="281" y="687" type="curve" smooth="yes"/>
      <point x="281" y="690"/>
      <point x="280" y="695"/>
      <point x="274" y="695" type="curve" smooth="yes"/>
      <point x="126" y="695" type="line" smooth="yes"/>
      <point x="114" y="695"/>
      <point x="109" y="689"/>
      <point x="109" y="681" type="curve" smooth="yes"/>
      <point x="109" y="674"/>
      <point x="113" y="669"/>
      <point x="118" y="669" type="curve" smooth="yes"/>
      <point x="173" y="669" type="line"/>
      <point x="173" y="203" type="line" smooth="yes"/>
      <point x="173" y="104"/>
      <point x="146" y="49"/>
      <point x="45" y="17" type="curve"/>
      <point x="45" y="-2"/>
      <point x="53" y="-10"/>
      <point x="62" y="-10" type="curve" smooth="yes"/>
    </contour>
  </outline>
</glyph>
<glyph name="K" format="1">
  <advance width="633"/>
  <unicode hex="004B"/>
  <note>
	K
  </note>
  <outline>
    <contour>
      <point x="608" y="0" type="line" smooth="yes"/>
      <point x="614" y="0"/>
      <point x="615" y="5"/>
      <point x="615" y="8" type="curve" smooth="yes"/>
      <point x="615" y="16"/>
      <point x="609" y="20"/>
      <point x="599" y="21" type="curve" smooth="yes"/>
      <point x="548" y="27" type="line"/>
      <point x="207" y="370" type="line"/>
      <point x="538" y="670" type="line"/>
      <point x="581" y="674" type="line" smooth="yes"/>
      <point x="591" y="675"/>
      <point x="597" y="679"/>
      <point x="597" y="687" type="curve" smooth="yes"/>
      <point x="597" y="690"/>
      <point x="596" y="695"/>
      <point x="590" y="695" type="curve" smooth="yes"/>
      <point x="435" y="695" type="line" smooth="yes"/>
      <point x="423" y="695"/>
      <point x="418" y="689"/>
      <point x="418" y="681" type="curve" smooth="yes"/>
      <point x="418" y="674"/>
      <point x="422" y="669"/>
      <point x="427" y="669" type="curve" smooth="yes"/>
      <point x="495" y="669" type="line"/>
      <point x="163" y="368" type="line"/>
      <point x="527" y="0" type="line"/>
    </contour>
    <contour>
      <point x="230" y="0" type="line" smooth="yes"/>
      <point x="236" y="0"/>
      <point x="237" y="5"/>
      <point x="237" y="8" type="curve" smooth="yes"/>
      <point x="237" y="16"/>
      <point x="231" y="20"/>
      <point x="221" y="21" type="curve" smooth="yes"/>
      <point x="163" y="27" type="line"/>
      <point x="163" y="668" type="line"/>
      <point x="221" y="674" type="line" smooth="yes"/>
      <point x="231" y="675"/>
      <point x="237" y="679"/>
      <point x="237" y="687" type="curve" smooth="yes"/>
      <point x="237" y="690"/>
      <point x="236" y="695"/>
      <point x="230" y="695" type="curve" smooth="yes"/>
      <point x="82" y="695" type="line" smooth="yes"/>
      <point x="70" y="695"/>
      <point x="65" y="689"/>
      <point x="65" y="681" type="curve" smooth="yes"/>
      <point x="65" y="674"/>
      <point x="69" y="669"/>
      <point x="74" y="669" type="curve" smooth="yes"/>
      <point x="129" y="669" type="line"/>
      <point x="129" y="26" type="line"/>
      <point x="83" y="26" type="line" smooth="yes"/>
      <point x="71" y="26"/>
      <point x="65" y="20"/>
      <point x="65" y="12" type="curve" smooth="yes"/>
      <point x="65" y="5"/>
      <point x="69" y="0"/>
      <point x="74" y="0" type="curve" smooth="yes"/>
    </contour>
  </outline>
</glyph>
<glyph name="N" format="1">
  <advance width="764"/>
  <unicode hex="004E"/>
  <note>
	N
  </note>
  <outline>
    <contour>
      <point x="229" y="0" type="line" smooth="yes"/>
      <point x="235" y="0"/>
      <point x="236" y="5"/>
      <point x="236" y="8" type="curve" smooth="yes"/>
      <point x="236" y="16"/>
      <point x="230" y="20"/>
      <point x="220" y="21" type="curve" smooth="yes"/>
      <point x="162" y="27" type="line"/>
      <point x="162" y="642" type="line"/>
      <point x="176" y="615"/>
      <point x="190" y="593"/>
      <point x="206" y="570" type="curve" smooth="yes"/>
      <point x="602" y="0" type="line"/>
      <point x="634" y="0" type="line"/>
      <point x="634" y="668" type="line"/>
      <point x="686" y="674" type="line" smooth="yes"/>
      <point x="696" y="675"/>
      <point x="702" y="679"/>
      <point x="702" y="687" type="curve" smooth="yes"/>
      <point x="702" y="690"/>
      <point x="701" y="695"/>
      <point x="695" y="695" type="curve" smooth="yes"/>
      <point x="549" y="695" type="line" smooth="yes"/>
      <point x="537" y="695"/>
      <point x="532" y="689"/>
      <point x="532" y="681" type="curve" smooth="yes"/>
      <point x="532" y="674"/>
      <point x="536" y="669"/>
      <point x="541" y="669" type="curve" smooth="yes"/>
      <point x="602" y="669" type="line"/>
      <point x="602" y="51" type="line"/>
      <point x="589" y="77"/>
      <point x="574" y="101"/>
      <point x="557" y="126" type="curve" smooth="yes"/>
      <point x="162" y="695" type="line"/>
      <point x="75" y="695" type="line" smooth="yes"/>
      <point x="70" y="695"/>
      <point x="65" y="692"/>
      <point x="65" y="685" type="curve" smooth="yes"/>
      <point x="65" y="675"/>
      <point x="73" y="673"/>
      <point x="85" y="671" type="curve" smooth="yes"/>
      <point x="130" y="665" type="line"/>
      <point x="130" y="26" type="line"/>
      <point x="84" y="26" type="line" smooth="yes"/>
      <point x="72" y="26"/>
      <point x="66" y="20"/>
      <point x="66" y="12" type="curve" smooth="yes"/>
      <point x="66" y="5"/>
      <point x="70" y="0"/>
      <point x="75" y="0" type="curve" smooth="yes"/>
    </contour>
  </outline>
</glyph>
<glyph name="P" format="1">
  <advance width="586"/>
  <unicode hex="0050"/>
  <note>
	P
  </note>
  <outline>
    <contour>
      <point x="231" y="0" type="line" smooth="yes"/>
      <point x="237" y="0"/>
      <point x="238" y="5"/>
      <point x="238" y="8" type="curve" smooth="yes"/>
      <point x="238" y="16"/>
      <point x="232" y="20"/>
      <point x="222" y="21" type="curve" smooth="yes"/>
      <point x="164" y="27" type="line"/>
      <point x="164" y="307" type="line"/>
      <point x="345" y="307" type="line" smooth="yes"/>
      <point x="460" y="307"/>
      <point x="550" y="367"/>
      <point x="550" y="501" type="curve" smooth="yes"/>
      <point x="550" y="635"/>
      <point x="460" y="695"/>
      <point x="345" y="695" type="curve" smooth="yes"/>
      <point x="73" y="695" type="line" smooth="yes"/>
      <point x="68" y="695"/>
      <point x="65" y="691"/>
      <point x="65" y="686" type="curve" smooth="yes"/>
      <point x="65" y="677"/>
      <point x="74" y="674"/>
      <point x="84" y="673" type="curve" smooth="yes"/>
      <point x="130" y="667" type="line"/>
      <point x="130" y="26" type="line"/>
      <point x="84" y="26" type="line" smooth="yes"/>
      <point x="72" y="26"/>
      <point x="66" y="20"/>
      <point x="66" y="12" type="curve" smooth="yes"/>
      <point x="66" y="5"/>
      <point x="70" y="0"/>
      <point x="75" y="0" type="curve" smooth="yes"/>
    </contour>
    <contour>
      <point x="164" y="667" type="line"/>
      <point x="348" y="667" type="line" smooth="yes"/>
      <point x="460" y="667"/>
      <point x="514" y="597"/>
      <point x="514" y="501" type="curve" smooth="yes"/>
      <point x="514" y="405"/>
      <point x="460" y="335"/>
      <point x="348" y="335" type="curve" smooth="yes"/>
      <point x="164" y="335" type="line"/>
    </contour>
  </outline>
</glyph>
<glyph name="Q" format="1">
  <advance width="718"/>
  <unicode hex="0051"/>
  <note>
	Q
  </note>
  <outline>
    <contour>
      <point x="564" y="-155"/>
      <point x="572" y="-149"/>
      <point x="572" y="-138" type="curve" smooth="yes"/>
      <point x="572" y="-129"/>
      <point x="565" y="-126"/>
      <point x="552" y="-122" type="curve" smooth="yes"/>
      <point x="517" y="-112"/>
      <point x="486" y="-95"/>
      <point x="457" y="-75" type="curve" smooth="yes"/>
      <point x="430" y="-55"/>
      <point x="406" y="-33"/>
      <point x="383" y="-9" type="curve"/>
      <point x="557" y="1"/>
      <point x="661" y="122"/>
      <point x="661" y="346" type="curve" smooth="yes"/>
      <point x="661" y="580"/>
      <point x="547" y="705"/>
      <point x="359" y="705" type="curve" smooth="yes"/>
      <point x="171" y="705"/>
      <point x="57" y="580"/>
      <point x="57" y="346" type="curve" smooth="yes"/>
      <point x="57" y="117"/>
      <point x="166" y="-4"/>
      <point x="346" y="-10" type="curve"/>
      <point x="371" y="-42"/>
      <point x="399" y="-71"/>
      <point x="430" y="-96" type="curve" smooth="yes"/>
      <point x="466" y="-125"/>
      <point x="516" y="-155"/>
      <point x="552" y="-155" type="curve" smooth="yes"/>
    </contour>
    <contour>
      <point x="188" y="18"/>
      <point x="92" y="140"/>
      <point x="92" y="346" type="curve" smooth="yes"/>
      <point x="92" y="552"/>
      <point x="188" y="677"/>
      <point x="359" y="677" type="curve" smooth="yes"/>
      <point x="530" y="677"/>
      <point x="626" y="552"/>
      <point x="626" y="346" type="curve" smooth="yes"/>
      <point x="626" y="140"/>
      <point x="530" y="18"/>
      <point x="359" y="18" type="curve" smooth="yes"/>
    </contour>
  </outline>
</glyph>
<glyph name="S" format="1">
  <advance width="591"/>
  <unicode hex="0053"/>
  <note>
	S
  </note>
  <outline>
    <contour>
      <point x="418" y="-10"/>
      <point x="532" y="35"/>
      <point x="532" y="159" type="curve" smooth="yes"/>
      <point x="532" y="266"/>
      <point x="459" y="311"/>
      <point x="311" y="368" type="curve" smooth="yes"/>
      <point x="178" y="419"/>
      <point x="98" y="452"/>
      <point x="98" y="546" type="curve" smooth="yes"/>
      <point x="98" y="641"/>
      <point x="189" y="676"/>
      <point x="283" y="676" type="curve" smooth="yes"/>
      <point x="346" y="676"/>
      <point x="418" y="660"/>
      <point x="466" y="620" type="curve"/>
      <point x="475" y="552" type="line" smooth="yes"/>
      <point x="477" y="537"/>
      <point x="481" y="530"/>
      <point x="490" y="530" type="curve" smooth="yes"/>
      <point x="496" y="530"/>
      <point x="499" y="534"/>
      <point x="499" y="539" type="curve" smooth="yes"/>
      <point x="499" y="633" type="line"/>
      <point x="450" y="678"/>
      <point x="362" y="705"/>
      <point x="284" y="705" type="curve" smooth="yes"/>
      <point x="174" y="705"/>
      <point x="62" y="664"/>
      <point x="62" y="540" type="curve" smooth="yes"/>
      <point x="62" y="443"/>
      <point x="145" y="392"/>
      <point x="271" y="345" type="curve" smooth="yes"/>
      <point x="426" y="287"/>
      <point x="496" y="253"/>
      <point x="496" y="158" type="curve" smooth="yes"/>
      <point x="496" y="51"/>
      <point x="392" y="19"/>
      <point x="293" y="19" type="curve" smooth="yes"/>
      <point x="235" y="19"/>
      <point x="145" y="33"/>
      <point x="92" y="74" type="curve"/>
      <point x="83" y="143" type="line" smooth="yes"/>
      <point x="81" y="158"/>
      <point x="77" y="165"/>
      <point x="68" y="165" type="curve" smooth="yes"/>
      <point x="62" y="165"/>
      <point x="59" y="161"/>
      <point x="59" y="156" type="curve" smooth="yes"/>
      <point x="59" y="61" type="line"/>
      <point x="116" y="11"/>
      <point x="225" y="-10"/>
      <point x="293" y="-10" type="curve" smooth="yes"/>
    </contour>
  </outline>
</glyph>
<glyph name="V" format="1">
  <advance width="671"/>
  <unicode hex="0056"/>
  <note>
	V
  </note>
  <outline>
    <contour>
      <point x="355" y="0" type="line"/>
      <point x="586" y="668" type="line"/>
      <point x="637" y="674" type="line" smooth="yes"/>
      <point x="647" y="675"/>
      <point x="653" y="679"/>
      <point x="653" y="687" type="curve" smooth="yes"/>
      <point x="653" y="690"/>
      <point x="652" y="695"/>
      <point x="646" y="695" type="curve" smooth="yes"/>
      <point x="501" y="695" type="line" smooth="yes"/>
      <point x="489" y="695"/>
      <point x="484" y="689"/>
      <point x="484" y="681" type="curve" smooth="yes"/>
      <point x="484" y="674"/>
      <point x="488" y="669"/>
      <point x="493" y="669" type="curve" smooth="yes"/>
      <point x="556" y="669" type="line"/>
      <point x="355" y="89" type="line" smooth="yes"/>
      <point x="345" y="61"/>
      <point x="339" y="30"/>
      <point x="339" y="30" type="curve" smooth="yes"/>
      <point x="333" y="30" type="line" smooth="yes"/>
      <point x="333" y="30"/>
      <point x="325" y="61"/>
      <point x="315" y="89" type="curve" smooth="yes"/>
      <point x="114" y="668" type="line"/>
      <point x="173" y="674" type="line" smooth="yes"/>
      <point x="183" y="675"/>
      <point x="189" y="679"/>
      <point x="189" y="687" type="curve" smooth="yes"/>
      <point x="189" y="690"/>
      <point x="188" y="695"/>
      <point x="182" y="695" type="curve" smooth="yes"/>
      <point x="35" y="695" type="line" smooth="yes"/>
      <point x="23" y="695"/>
      <point x="18" y="689"/>
      <point x="18" y="681" type="curve" smooth="yes"/>
      <point x="18" y="674"/>
      <point x="22" y="669"/>
      <point x="27" y="669" type="curve" smooth="yes"/>
      <point x="77" y="669" type="line"/>
      <point x="309" y="0" type="line"/>
    </contour>
  </outline>
</glyph>
<glyph name="X" format="1">
  <advance width="676"/>
  <unicode hex="0058"/>
  <note>
	X
  </note>
  <outline>
    <contour>
      <point x="184" y="0" type="line" smooth="yes"/>
      <point x="190" y="0"/>
      <point x="191" y="5"/>
      <point x="191" y="8" type="curve" smooth="yes"/>
      <point x="191" y="16"/>
      <point x="185" y="20"/>
      <point x="175" y="21" type="curve" smooth="yes"/>
      <point x="110" y="27" type="line"/>
      <point x="330" y="344" type="line"/>
      <point x="548" y="26" type="line"/>
      <point x="498" y="26" type="line" smooth="yes"/>
      <point x="486" y="26"/>
      <point x="481" y="20"/>
      <point x="481" y="12" type="curve" smooth="yes"/>
      <point x="481" y="5"/>
      <point x="485" y="0"/>
      <point x="490" y="0" type="curve" smooth="yes"/>
      <point x="647" y="0" type="line" smooth="yes"/>
      <point x="653" y="0"/>
      <point x="654" y="5"/>
      <point x="654" y="8" type="curve" smooth="yes"/>
      <point x="654" y="16"/>
      <point x="648" y="20"/>
      <point x="638" y="21" type="curve" smooth="yes"/>
      <point x="590" y="27" type="line"/>
      <point x="356" y="367" type="line"/>
      <point x="569" y="668" type="line"/>
      <point x="617" y="674" type="line" smooth="yes"/>
      <point x="627" y="675"/>
      <point x="633" y="679"/>
      <point x="633" y="687" type="curve" smooth="yes"/>
      <point x="633" y="690"/>
      <point x="632" y="695"/>
      <point x="626" y="695" type="curve" smooth="yes"/>
      <point x="481" y="695" type="line" smooth="yes"/>
      <point x="469" y="695"/>
      <point x="464" y="689"/>
      <point x="464" y="681" type="curve" smooth="yes"/>
      <point x="464" y="674"/>
      <point x="468" y="669"/>
      <point x="473" y="669" type="curve" smooth="yes"/>
      <point x="534" y="669" type="line"/>
      <point x="332" y="384" type="line"/>
      <point x="140" y="668" type="line"/>
      <point x="205" y="674" type="line" smooth="yes"/>
      <point x="215" y="675"/>
      <point x="221" y="679"/>
      <point x="221" y="687" type="curve" smooth="yes"/>
      <point x="221" y="690"/>
      <point x="220" y="695"/>
      <point x="214" y="695" type="curve" smooth="yes"/>
      <point x="61" y="695" type="line" smooth="yes"/>
      <point x="49" y="695"/>
      <point x="44" y="689"/>
      <point x="44" y="681" type="curve" smooth="yes"/>
      <point x="44" y="674"/>
      <point x="48" y="669"/>
      <point x="53" y="669" type="curve" smooth="yes"/>
      <point x="97" y="669" type="line"/>
      <point x="305" y="360" type="line"/>
      <point x="74" y="26" type="line"/>
      <point x="39" y="26" type="line" smooth="yes"/>
      <point x="27" y="26"/>
      <point x="22" y="20"/>
      <point x="22" y="12" type="curve" smooth="yes"/>
      <point x="22" y="5"/>
      <point x="26" y="0"/>
      <point x="31" y="0" type="curve" smooth="yes"/>
    </contour>
  </outline>
</glyph>
<glyph name="Z" format="1">
  <advance width="621"/>
  <unicode hex="005A"/>
  <note>
	Z
  </note>
  <outline>
    <contour>
      <point x="556" y="0" type="line"/>
      <point x="556" y="102" type="line" smooth="yes"/>
      <point x="556" y="108"/>
      <point x="553" y="111"/>
      <point x="547" y="111" type="curve" smooth="yes"/>
      <point x="538" y="111"/>
      <point x="534" y="102"/>
      <point x="532" y="87" type="curve" smooth="yes"/>
      <point x="524" y="28" type="line"/>
      <point x="98" y="28" type="line"/>
      <point x="565" y="668" type="line"/>
      <point x="565" y="695" type="line"/>
      <point x="74" y="695" type="line"/>
      <point x="74" y="593" type="line" smooth="yes"/>
      <point x="74" y="587"/>
      <point x="77" y="584"/>
      <point x="83" y="584" type="curve" smooth="yes"/>
      <point x="92" y="584"/>
      <point x="96" y="592"/>
      <point x="98" y="608" type="curve" smooth="yes"/>
      <point x="106" y="667" type="line"/>
      <point x="523" y="667" type="line"/>
      <point x="56" y="27" type="line"/>
      <point x="56" y="0" type="line"/>
    </contour>
  </outline>
</glyph>
<glyph name="bracketleft" format="1">
  <advance width="265"/>
  <unicode hex="005B"/>
  <note>
	bracketleft
  </note>
  <outline>
    <contour>
      <point x="210" y="-131" type="line"/>
      <point x="210" y="-103" type="line"/>
      <point x="102" y="-103" type="line"/>
      <point x="102" y="698" type="line"/>
      <point x="210" y="698" type="line"/>
      <point x="210" y="726" type="line"/>
      <point x="68" y="726" type="line"/>
      <point x="68" y="-131" type="line"/>
    </contour>
  </outline>
</glyph>
<glyph name="backslash" format="1">
  <advance width="337"/>
  <unicode hex="005C"/>
  <note>
	backslash
  </note>
  <outline>
    <contour>
      <point x="356" y="-123" type="line"/>
      <point x="11" y="730" type="line"/>
      <point x="-20" y="718" type="line"/>
      <point x="327" y="-134" type="line"/>
    </contour>
  </outline>
</glyph>
<glyph name="bracketright" format="1">
  <advance width="265"/>
  <unicode hex="005D"/>
  <note>
	bracketright
  </note>
  <outline>
    <contour>
      <point x="197" y="-131" type="line"/>
      <point x="197" y="726" type="line"/>
      <point x="55" y="726" type="line"/>
      <point x="55" y="698" type="line"/>
      <point x="163" y="698" type="line"/>
      <point x="163" y="-103" type="line"/>
      <point x="55" y="-103" type="line"/>
      <point x="55" y="-131" type="line"/>
    </contour>
  </outline>
</glyph>
<glyph name="asciicircum" format="1">
  <advance width="555"/>
  <unicode hex="005E"/>
  <note>
	asciicircum
  </note>
  <outline>
    <contour>
      <point x="277" y="644" type="line"/>
      <point x="458" y="347" type="line"/>
      <point x="484" y="362" type="line"/>
      <point x="293" y="675" type="line"/>
      <point x="261" y="675" type="line"/>
      <point x="70" y="362" type="line"/>
      <point x="96" y="347" type="line"/>
    </contour>
  </outline>
</glyph>
<glyph name="underscore" format="1">
  <advance width="515"/>
  <unicode hex="005F"/>
  <note>
	underscore
  </note>
  <outline>
    <contour>
      <point x="516" y="-210" type="line"/>
      <point x="516" y="-182" type="line"/>
      <point x="-1" y="-182" type="line"/>
      <point x="-1" y="-210" type="line"/>
    </contour>
  </outline>
</glyph>
<glyph name="grave" format="1">
  <advance width="262"/>
  <unicode hex="0060"/>
  <note>
	grave
  </note>
  <outline>
    <contour>
      <point x="182" y="547" type="line"/>
      <point x="110" y="665" type="line"/>
      <point x="80" y="647" type="line"/>
      <point x="160" y="534" type="line"/>
    </contour>
  </outline>
</glyph>
<glyph name="b" format="1">
  <advance width="547"/>
  <unicode hex="0062"/>
  <note>
	b
  </note>
  <outline>
    <contour>
      <point x="407" y="-10"/>
      <point x="499" y="67"/>
      <point x="499" y="240" type="curve" smooth="yes"/>
      <point x="499" y="414"/>
      <point x="419" y="497"/>
      <point x="298" y="497" type="curve" smooth="yes"/>
      <point x="227" y="497"/>
      <point x="166" y="468"/>
      <point x="124" y="409" type="curve"/>
      <point x="121" y="410" type="line"/>
      <point x="121" y="710" type="line"/>
      <point x="46" y="710" type="line" smooth="yes"/>
      <point x="36" y="710"/>
      <point x="28" y="706"/>
      <point x="28" y="696" type="curve" smooth="yes"/>
      <point x="28" y="689"/>
      <point x="32" y="685"/>
      <point x="37" y="685" type="curve" smooth="yes"/>
      <point x="91" y="685" type="line"/>
      <point x="91" y="48" type="line"/>
      <point x="140" y="15"/>
      <point x="218" y="-10"/>
      <point x="277" y="-10" type="curve" smooth="yes"/>
    </contour>
    <contour>
      <point x="224" y="16"/>
      <point x="160" y="35"/>
      <point x="123" y="60" type="curve"/>
      <point x="123" y="327" type="line" smooth="yes"/>
      <point x="123" y="402"/>
      <point x="202" y="471"/>
      <point x="292" y="471" type="curve" smooth="yes"/>
      <point x="387" y="471"/>
      <point x="465" y="413"/>
      <point x="465" y="239" type="curve" smooth="yes"/>
      <point x="465" y="109"/>
      <point x="417" y="16"/>
      <point x="272" y="16" type="curve" smooth="yes"/>
    </contour>
  </outline>
</glyph>
<glyph name="f" format="1">
  <advance width="340"/>
  <unicode hex="0066"/>
  <note>
	f
  </note>
  <outline>
    <contour>
      <point x="219" y="0" type="line" smooth="yes"/>
      <point x="225" y="0"/>
      <point x="226" y="5"/>
      <point x="226" y="8" type="curve" smooth="yes"/>
      <point x="226" y="16"/>
      <point x="219" y="19"/>
      <point x="209" y="20" type="curve" smooth="yes"/>
      <point x="153" y="26" type="line"/>
      <point x="153" y="459" type="line"/>
      <point x="255" y="465" type="line" smooth="yes"/>
      <point x="276" y="466"/>
      <point x="283" y="470"/>
      <point x="283" y="478" type="curve" smooth="yes"/>
      <point x="283" y="483"/>
      <point x="281" y="487"/>
      <point x="275" y="487" type="curve" smooth="yes"/>
      <point x="153" y="487" type="line"/>
      <point x="153" y="607" type="line" smooth="yes"/>
      <point x="153" y="658"/>
      <point x="180" y="690"/>
      <point x="229" y="690" type="curve" smooth="yes"/>
      <point x="254" y="690"/>
      <point x="279" y="685"/>
      <point x="298" y="671" type="curve"/>
      <point x="305" y="620" type="line" smooth="yes"/>
      <point x="307" y="607"/>
      <point x="310" y="602"/>
      <point x="317" y="602" type="curve" smooth="yes"/>
      <point x="322" y="602"/>
      <point x="325" y="605"/>
      <point x="325" y="609" type="curve" smooth="yes"/>
      <point x="325" y="683" type="line"/>
      <point x="308" y="701"/>
      <point x="267" y="717"/>
      <point x="229" y="717" type="curve" smooth="yes"/>
      <point x="162" y="717"/>
      <point x="121" y="673"/>
      <point x="121" y="604" type="curve" smooth="yes"/>
      <point x="121" y="487" type="line"/>
      <point x="70" y="487" type="line" smooth="yes"/>
      <point x="59" y="487"/>
      <point x="52" y="481"/>
      <point x="52" y="471" type="curve" smooth="yes"/>
      <point x="52" y="464"/>
      <point x="56" y="459"/>
      <point x="61" y="459" type="curve" smooth="yes"/>
      <point x="121" y="459" type="line"/>
      <point x="121" y="25" type="line"/>
      <point x="76" y="25" type="line" smooth="yes"/>
      <point x="66" y="25"/>
      <point x="58" y="21"/>
      <point x="58" y="11" type="curve" smooth="yes"/>
      <point x="58" y="4"/>
      <point x="62" y="0"/>
      <point x="67" y="0" type="curve" smooth="yes"/>
    </contour>
  </outline>
</glyph>
<glyph name="i" format="1">
  <advance width="245"/>
  <unicode hex="0069"/>
  <note>
	i
  </note>
  <outline>
    <contour>
      <point x="211" y="0" type="line" smooth="yes"/>
      <point x="217" y="0"/>
      <point x="218" y="5"/>
      <point x="218" y="8" type="curve" smooth="yes"/>
      <point x="218" y="16"/>
      <point x="211" y="19"/>
      <point x="201" y="20" type="curve" smooth="yes"/>
      <point x="146" y="26" type="line"/>
      <point x="146" y="487" type="line"/>
      <point x="68" y="487" type="line" smooth="yes"/>
      <point x="58" y="487"/>
      <point x="50" y="483"/>
      <point x="50" y="473" type="curve" smooth="yes"/>
      <point x="50" y="466"/>
      <point x="54" y="462"/>
      <point x="59" y="462" type="curve" smooth="yes"/>
      <point x="114" y="462" type="line"/>
      <point x="114" y="25" type="line"/>
      <point x="68" y="25" type="line" smooth="yes"/>
      <point x="58" y="25"/>
      <point x="50" y="21"/>
      <point x="50" y="11" type="curve" smooth="yes"/>
      <point x="50" y="4"/>
      <point x="54" y="0"/>
      <point x="59" y="0" type="curve" smooth="yes"/>
    </contour>
    <contour>
      <point x="146" y="578"/>
      <point x="160" y="590"/>
      <point x="160" y="609" type="curve" smooth="yes"/>
      <point x="160" y="628"/>
      <point x="146" y="640"/>
      <point x="129" y="640" type="curve" smooth="yes"/>
      <point x="112" y="640"/>
      <point x="98" y="628"/>
      <point x="98" y="609" type="curve" smooth="yes"/>
      <point x="98" y="590"/>
      <point x="112" y="578"/>
      <point x="129" y="578" type="curve" smooth="yes"/>
    </contour>
  </outline>
</glyph>
<glyph name="j" format="1">
  <advance width="249"/>
  <unicode hex="006A"/>
  <note>
	j
  </note>
  <outline>
    <contour>
      <point x="39" y="-223"/>
      <point x="42" y="-222"/>
      <point x="50" y="-219" type="curve" smooth="yes"/>
      <point x="150" y="-181"/>
      <point x="177" y="-112"/>
      <point x="177" y="-12" type="curve" smooth="yes"/>
      <point x="177" y="487" type="line"/>
      <point x="99" y="487" type="line" smooth="yes"/>
      <point x="89" y="487"/>
      <point x="81" y="483"/>
      <point x="81" y="473" type="curve" smooth="yes"/>
      <point x="81" y="466"/>
      <point x="85" y="462"/>
      <point x="90" y="462" type="curve" smooth="yes"/>
      <point x="145" y="462" type="line"/>
      <point x="145" y="-10" type="line" smooth="yes"/>
      <point x="145" y="-109"/>
      <point x="118" y="-164"/>
      <point x="17" y="-196" type="curve"/>
      <point x="17" y="-215"/>
      <point x="25" y="-223"/>
      <point x="34" y="-223" type="curve" smooth="yes"/>
    </contour>
    <contour>
      <point x="170" y="578"/>
      <point x="184" y="590"/>
      <point x="184" y="609" type="curve" smooth="yes"/>
      <point x="184" y="628"/>
      <point x="170" y="640"/>
      <point x="153" y="640" type="curve" smooth="yes"/>
      <point x="136" y="640"/>
      <point x="122" y="628"/>
      <point x="122" y="609" type="curve" smooth="yes"/>
      <point x="122" y="590"/>
      <point x="136" y="578"/>
      <point x="153" y="578" type="curve" smooth="yes"/>
    </contour>
  </outline>
</glyph>
<glyph name="k" format="1">
  <advance width="527"/>
  <unicode hex="006B"/>
  <note>
	k
  </note>
  <outline>
    <contour>
      <point x="487" y="0" type="line" smooth="yes"/>
      <point x="493" y="0"/>
      <point x="494" y="5"/>
      <point x="494" y="8" type="curve" smooth="yes"/>
      <point x="494" y="16"/>
      <point x="487" y="19"/>
      <point x="477" y="20" type="curve" smooth="yes"/>
      <point x="436" y="24" type="line"/>
      <point x="196" y="267" type="line"/>
      <point x="405" y="461" type="line"/>
      <point x="450" y="467" type="line" smooth="yes"/>
      <point x="458" y="468"/>
      <point x="467" y="471"/>
      <point x="467" y="479" type="curve" smooth="yes"/>
      <point x="467" y="482"/>
      <point x="466" y="487"/>
      <point x="460" y="487" type="curve" smooth="yes"/>
      <point x="317" y="487" type="line" smooth="yes"/>
      <point x="307" y="487"/>
      <point x="299" y="483"/>
      <point x="299" y="473" type="curve" smooth="yes"/>
      <point x="299" y="466"/>
      <point x="303" y="462"/>
      <point x="308" y="462" type="curve" smooth="yes"/>
      <point x="368" y="462" type="line"/>
      <point x="153" y="263" type="line"/>
      <point x="414" y="0" type="line"/>
    </contour>
    <contour>
      <point x="219" y="0" type="line" smooth="yes"/>
      <point x="225" y="0"/>
      <point x="226" y="5"/>
      <point x="226" y="8" type="curve" smooth="yes"/>
      <point x="226" y="16"/>
      <point x="219" y="19"/>
      <point x="209" y="20" type="curve" smooth="yes"/>
      <point x="153" y="26" type="line"/>
      <point x="153" y="710" type="line"/>
      <point x="76" y="710" type="line" smooth="yes"/>
      <point x="66" y="710"/>
      <point x="58" y="706"/>
      <point x="58" y="696" type="curve" smooth="yes"/>
      <point x="58" y="689"/>
      <point x="62" y="685"/>
      <point x="67" y="685" type="curve" smooth="yes"/>
      <point x="121" y="685" type="line"/>
      <point x="121" y="25" type="line"/>
      <point x="76" y="25" type="line" smooth="yes"/>
      <point x="66" y="25"/>
      <point x="58" y="21"/>
      <point x="58" y="11" type="curve" smooth="yes"/>
      <point x="58" y="4"/>
      <point x="62" y="0"/>
      <point x="67" y="0" type="curve" smooth="yes"/>
    </contour>
  </outline>
</glyph>
<glyph name="p" format="1">
  <advance width="579"/>
  <unicode hex="0070"/>
  <note>
	p
  </note>
  <outline>
    <contour>
      <point x="219" y="-213" type="line" smooth="yes"/>
      <point x="225" y="-213"/>
      <point x="226" y="-208"/>
      <point x="226" y="-205" type="curve" smooth="yes"/>
      <point x="226" y="-197"/>
      <point x="219" y="-194"/>
      <point x="209" y="-193" type="curve" smooth="yes"/>
      <point x="153" y="-187" type="line"/>
      <point x="153" y="32" type="line"/>
      <point x="200" y="6"/>
      <point x="262" y="-10"/>
      <point x="309" y="-10" type="curve" smooth="yes"/>
      <point x="439" y="-10"/>
      <point x="531" y="70"/>
      <point x="531" y="240" type="curve" smooth="yes"/>
      <point x="531" y="414"/>
      <point x="451" y="497"/>
      <point x="330" y="497" type="curve" smooth="yes"/>
      <point x="258" y="497"/>
      <point x="195" y="466"/>
      <point x="153" y="406" type="curve"/>
      <point x="150" y="406" type="line"/>
      <point x="150" y="487" type="line"/>
      <point x="76" y="487" type="line" smooth="yes"/>
      <point x="66" y="487"/>
      <point x="58" y="483"/>
      <point x="58" y="473" type="curve" smooth="yes"/>
      <point x="58" y="466"/>
      <point x="62" y="462"/>
      <point x="67" y="462" type="curve" smooth="yes"/>
      <point x="121" y="462" type="line"/>
      <point x="121" y="-188" type="line"/>
      <point x="76" y="-188" type="line" smooth="yes"/>
      <point x="66" y="-188"/>
      <point x="58" y="-192"/>
      <point x="58" y="-202" type="curve" smooth="yes"/>
      <point x="58" y="-209"/>
      <point x="62" y="-213"/>
      <point x="67" y="-213" type="curve" smooth="yes"/>
    </contour>
    <contour>
      <point x="256" y="16"/>
      <point x="190" y="38"/>
      <point x="153" y="64" type="curve"/>
      <point x="153" y="327" type="line" smooth="yes"/>
      <point x="153" y="402"/>
      <point x="232" y="471"/>
      <point x="324" y="471" type="curve" smooth="yes"/>
      <point x="419" y="471"/>
      <point x="497" y="413"/>
      <point x="497" y="239" type="curve" smooth="yes"/>
      <point x="497" y="112"/>
      <point x="449" y="16"/>
      <point x="304" y="16" type="curve" smooth="yes"/>
    </contour>
  </outline>
</glyph>
<glyph name="q" format="1">
  <advance width="549"/>
  <unicode hex="0071"/>
  <note>
	q
  </note>
  <outline>
    <contour>
      <point x="514" y="-213" type="line" smooth="yes"/>
      <point x="520" y="-213"/>
      <point x="521" y="-208"/>
      <point x="521" y="-205" type="curve" smooth="yes"/>
      <point x="521" y="-197"/>
      <point x="514" y="-194"/>
      <point x="504" y="-193" type="curve" smooth="yes"/>
      <point x="458" y="-188" type="line"/>
      <point x="458" y="487" type="line"/>
      <point x="453" y="487" type="line" smooth="yes"/>
      <point x="432" y="487"/>
      <point x="426" y="470"/>
      <point x="426" y="439" type="curve"/>
      <point x="389" y="469"/>
      <point x="331" y="497"/>
      <point x="258" y="497" type="curve" smooth="yes"/>
      <point x="139" y="497"/>
      <point x="46" y="397"/>
      <point x="46" y="240" type="curve" smooth="yes"/>
      <point x="46" y="67"/>
      <point x="142" y="-10"/>
      <point x="255" y="-10" type="curve" smooth="yes"/>
      <point x="343" y="-10"/>
      <point x="395" y="35"/>
      <point x="425" y="82" type="curve"/>
      <point x="428" y="82" type="line"/>
      <point x="428" y="-188" type="line"/>
      <point x="378" y="-188" type="line" smooth="yes"/>
      <point x="368" y="-188"/>
      <point x="360" y="-192"/>
      <point x="360" y="-202" type="curve" smooth="yes"/>
      <point x="360" y="-209"/>
      <point x="364" y="-213"/>
      <point x="369" y="-213" type="curve" smooth="yes"/>
    </contour>
    <contour>
      <point x="138" y="16"/>
      <point x="80" y="109"/>
      <point x="80" y="239" type="curve" smooth="yes"/>
      <point x="80" y="396"/>
      <point x="168" y="471"/>
      <point x="264" y="471" type="curve" smooth="yes"/>
      <point x="326" y="471"/>
      <point x="382" y="446"/>
      <point x="426" y="406" type="curve"/>
      <point x="426" y="170" type="line" smooth="yes"/>
      <point x="426" y="81"/>
      <point x="346" y="16"/>
      <point x="263" y="16" type="curve" smooth="yes"/>
    </contour>
  </outline>
</glyph>
<glyph name="s" format="1">
  <advance width="445"/>
  <unicode hex="0073"/>
  <note>
	s
  </note>
  <outline>
    <contour>
      <point x="309" y="-10"/>
      <point x="395" y="22"/>
      <point x="395" y="110" type="curve" smooth="yes"/>
      <point x="395" y="189"/>
      <point x="345" y="222"/>
      <point x="241" y="262" type="curve" smooth="yes"/>
      <point x="147" y="298"/>
      <point x="91" y="322"/>
      <point x="91" y="384" type="curve" smooth="yes"/>
      <point x="91" y="449"/>
      <point x="156" y="470"/>
      <point x="217" y="470" type="curve" smooth="yes"/>
      <point x="261" y="470"/>
      <point x="320" y="454"/>
      <point x="348" y="425" type="curve"/>
      <point x="355" y="375" type="line" smooth="yes"/>
      <point x="357" y="362"/>
      <point x="360" y="357"/>
      <point x="367" y="357" type="curve" smooth="yes"/>
      <point x="372" y="357"/>
      <point x="375" y="360"/>
      <point x="375" y="364" type="curve" smooth="yes"/>
      <point x="375" y="438" type="line"/>
      <point x="345" y="470"/>
      <point x="274" y="497"/>
      <point x="217" y="497" type="curve" smooth="yes"/>
      <point x="141" y="497"/>
      <point x="57" y="469"/>
      <point x="57" y="380" type="curve" smooth="yes"/>
      <point x="57" y="307"/>
      <point x="123" y="270"/>
      <point x="213" y="237" type="curve" smooth="yes"/>
      <point x="322" y="197"/>
      <point x="361" y="176"/>
      <point x="361" y="109" type="curve" smooth="yes"/>
      <point x="361" y="36"/>
      <point x="288" y="17"/>
      <point x="220" y="17" type="curve" smooth="yes"/>
      <point x="177" y="17"/>
      <point x="110" y="27"/>
      <point x="77" y="57" type="curve"/>
      <point x="70" y="105" type="line" smooth="yes"/>
      <point x="68" y="118"/>
      <point x="65" y="124"/>
      <point x="58" y="124" type="curve" smooth="yes"/>
      <point x="53" y="124"/>
      <point x="50" y="121"/>
      <point x="50" y="117" type="curve" smooth="yes"/>
      <point x="50" y="42" type="line"/>
      <point x="88" y="6"/>
      <point x="166" y="-10"/>
      <point x="220" y="-10" type="curve" smooth="yes"/>
    </contour>
  </outline>
</glyph>
<glyph name="t" format="1">
  <advance width="357"/>
  <unicode hex="0074"/>
  <note>
	t
  </note>
  <outline>
    <contour>
      <point x="257" y="-10"/>
      <point x="282" y="1"/>
      <point x="301" y="14" type="curve" smooth="yes"/>
      <point x="314" y="23"/>
      <point x="322" y="33"/>
      <point x="322" y="40" type="curve" smooth="yes"/>
      <point x="322" y="48"/>
      <point x="316" y="52"/>
      <point x="311" y="52" type="curve" smooth="yes"/>
      <point x="306" y="52"/>
      <point x="303" y="50"/>
      <point x="299" y="46" type="curve" smooth="yes"/>
      <point x="279" y="26"/>
      <point x="257" y="17"/>
      <point x="224" y="17" type="curve" smooth="yes"/>
      <point x="181" y="17"/>
      <point x="151" y="42"/>
      <point x="151" y="95" type="curve" smooth="yes"/>
      <point x="151" y="459" type="line"/>
      <point x="282" y="466" type="line" smooth="yes"/>
      <point x="302" y="467"/>
      <point x="310" y="470"/>
      <point x="310" y="478" type="curve" smooth="yes"/>
      <point x="310" y="483"/>
      <point x="308" y="487"/>
      <point x="302" y="487" type="curve" smooth="yes"/>
      <point x="151" y="487" type="line"/>
      <point x="151" y="587" type="line"/>
      <point x="127" y="587" type="line"/>
      <point x="119" y="487" type="line"/>
      <point x="61" y="487" type="line" smooth="yes"/>
      <point x="50" y="487"/>
      <point x="43" y="481"/>
      <point x="43" y="471" type="curve" smooth="yes"/>
      <point x="43" y="464"/>
      <point x="47" y="459"/>
      <point x="52" y="459" type="curve" smooth="yes"/>
      <point x="119" y="459" type="line"/>
      <point x="119" y="98" type="line" smooth="yes"/>
      <point x="119" y="26"/>
      <point x="164" y="-10"/>
      <point x="222" y="-10" type="curve" smooth="yes"/>
    </contour>
  </outline>
</glyph>
<glyph name="v" format="1">
  <advance width="507"/>
  <unicode hex="0076"/>
  <note>
	v
  </note>
  <outline>
    <contour>
      <point x="274" y="0" type="line"/>
      <point x="433" y="461" type="line"/>
      <point x="478" y="467" type="line" smooth="yes"/>
      <point x="486" y="468"/>
      <point x="495" y="471"/>
      <point x="495" y="479" type="curve" smooth="yes"/>
      <point x="495" y="482"/>
      <point x="494" y="487"/>
      <point x="488" y="487" type="curve" smooth="yes"/>
      <point x="345" y="487" type="line" smooth="yes"/>
      <point x="335" y="487"/>
      <point x="327" y="483"/>
      <point x="327" y="473" type="curve" smooth="yes"/>
      <point x="327" y="466"/>
      <point x="331" y="462"/>
      <point x="336" y="462" type="curve" smooth="yes"/>
      <point x="406" y="462" type="line"/>
      <point x="262" y="48" type="line" smooth="yes"/>
      <point x="257" y="34"/>
      <point x="255" y="16"/>
      <point x="255" y="16" type="curve" smooth="yes"/>
      <point x="251" y="16" type="line" smooth="yes"/>
      <point x="251" y="16"/>
      <point x="249" y="34"/>
      <point x="244" y="48" type="curve" smooth="yes"/>
      <point x="100" y="461" type="line"/>
      <point x="163" y="467" type="line" smooth="yes"/>
      <point x="173" y="468"/>
      <point x="180" y="471"/>
      <point x="180" y="479" type="curve" smooth="yes"/>
      <point x="180" y="482"/>
      <point x="179" y="487"/>
      <point x="173" y="487" type="curve" smooth="yes"/>
      <point x="30" y="487" type="line" smooth="yes"/>
      <point x="20" y="487"/>
      <point x="12" y="483"/>
      <point x="12" y="473" type="curve" smooth="yes"/>
      <point x="12" y="466"/>
      <point x="16" y="462"/>
      <point x="21" y="462" type="curve" smooth="yes"/>
      <point x="65" y="462" type="line"/>
      <point x="226" y="0" type="line"/>
    </contour>
  </outline>
</glyph>
<glyph name="w" format="1">
  <advance width="772"/>
  <unicode hex="0077"/>
  <note>
	w
  </note>
  <outline>
    <contour>
      <point x="251" y="0" type="line"/>
      <point x="374" y="405" type="line" smooth="yes"/>
      <point x="380" y="425"/>
      <point x="381" y="452"/>
      <point x="381" y="452" type="curve"/>
      <point x="384" y="452" type="line"/>
      <point x="384" y="452"/>
      <point x="385" y="425"/>
      <point x="391" y="405" type="curve" smooth="yes"/>
      <point x="518" y="0" type="line"/>
      <point x="566" y="0" type="line"/>
      <point x="699" y="461" type="line"/>
      <point x="743" y="467" type="line" smooth="yes"/>
      <point x="751" y="468"/>
      <point x="760" y="471"/>
      <point x="760" y="479" type="curve" smooth="yes"/>
      <point x="760" y="482"/>
      <point x="759" y="487"/>
      <point x="753" y="487" type="curve" smooth="yes"/>
      <point x="610" y="487" type="line" smooth="yes"/>
      <point x="600" y="487"/>
      <point x="592" y="483"/>
      <point x="592" y="473" type="curve" smooth="yes"/>
      <point x="592" y="466"/>
      <point x="596" y="462"/>
      <point x="601" y="462" type="curve" smooth="yes"/>
      <point x="671" y="462" type="line"/>
      <point x="552" y="44" type="line" smooth="yes"/>
      <point x="548" y="30"/>
      <point x="547" y="16"/>
      <point x="547" y="16" type="curve" smooth="yes"/>
      <point x="543" y="16" type="line" smooth="yes"/>
      <point x="543" y="16"/>
      <point x="542" y="30"/>
      <point x="538" y="44" type="curve" smooth="yes"/>
      <point x="398" y="487" type="line"/>
      <point x="372" y="487" type="line"/>
      <point x="237" y="44" type="line" smooth="yes"/>
      <point x="233" y="30"/>
      <point x="232" y="16"/>
      <point x="232" y="16" type="curve" smooth="yes"/>
      <point x="228" y="16" type="line" smooth="yes"/>
      <point x="228" y="16"/>
      <point x="227" y="30"/>
      <point x="223" y="44" type="curve" smooth="yes"/>
      <point x="99" y="461" type="line"/>
      <point x="163" y="467" type="line" smooth="yes"/>
      <point x="173" y="468"/>
      <point x="180" y="471"/>
      <point x="180" y="479" type="curve" smooth="yes"/>
      <point x="180" y="482"/>
      <point x="179" y="487"/>
      <point x="173" y="487" type="curve" smooth="yes"/>
      <point x="30" y="487" type="line" smooth="yes"/>
      <point x="20" y="487"/>
      <point x="12" y="483"/>
      <point x="12" y="473" type="curve" smooth="yes"/>
      <point x="12" y="466"/>
      <point x="16" y="462"/>
      <point x="21" y="462" type="curve" smooth="yes"/>
      <point x="65" y="462" type="line"/>
      <point x="203" y="0" type="line"/>
    </contour>
  </outline>
</glyph>
<glyph name="x" format="1">
  <advance width="512"/>
  <unicode hex="0078"/>
  <note>
	x
  </note>
  <outline>
    <contour>
      <point x="184" y="0" type="line" smooth="yes"/>
      <point x="190" y="0"/>
      <point x="191" y="5"/>
      <point x="191" y="8" type="curve" smooth="yes"/>
      <point x="191" y="16"/>
      <point x="184" y="19"/>
      <point x="174" y="20" type="curve" smooth="yes"/>
      <point x="107" y="26" type="line"/>
      <point x="248" y="231" type="line"/>
      <point x="406" y="0" type="line"/>
      <point x="482" y="0" type="line" smooth="yes"/>
      <point x="488" y="0"/>
      <point x="489" y="5"/>
      <point x="489" y="8" type="curve" smooth="yes"/>
      <point x="489" y="16"/>
      <point x="480" y="19"/>
      <point x="472" y="20" type="curve" smooth="yes"/>
      <point x="427" y="26" type="line"/>
      <point x="272" y="252" type="line"/>
      <point x="420" y="461" type="line"/>
      <point x="465" y="467" type="line" smooth="yes"/>
      <point x="473" y="468"/>
      <point x="482" y="471"/>
      <point x="482" y="479" type="curve" smooth="yes"/>
      <point x="482" y="482"/>
      <point x="481" y="487"/>
      <point x="475" y="487" type="curve" smooth="yes"/>
      <point x="332" y="487" type="line" smooth="yes"/>
      <point x="322" y="487"/>
      <point x="314" y="483"/>
      <point x="314" y="473" type="curve" smooth="yes"/>
      <point x="314" y="466"/>
      <point x="318" y="462"/>
      <point x="323" y="462" type="curve" smooth="yes"/>
      <point x="389" y="462" type="line"/>
      <point x="254" y="271" type="line"/>
      <point x="253" y="270" type="line"/>
      <point x="106" y="487" type="line"/>
      <point x="49" y="487" type="line" smooth="yes"/>
      <point x="39" y="487"/>
      <point x="31" y="483"/>
      <point x="31" y="473" type="curve" smooth="yes"/>
      <point x="31" y="466"/>
      <point x="35" y="462"/>
      <point x="40" y="462" type="curve" smooth="yes"/>
      <point x="84" y="462" type="line"/>
      <point x="229" y="249" type="line"/>
      <point x="76" y="25" type="line"/>
      <point x="41" y="25" type="line" smooth="yes"/>
      <point x="31" y="25"/>
      <point x="23" y="21"/>
      <point x="23" y="11" type="curve" smooth="yes"/>
      <point x="23" y="4"/>
      <point x="27" y="0"/>
      <point x="32" y="0" type="curve" smooth="yes"/>
    </contour>
  </outline>
</glyph>
<glyph name="z" format="1">
  <advance width="465"/>
  <unicode hex="007A"/>
  <note>
	z
  </note>
  <outline>
    <contour>
      <point x="416" y="0" type="line"/>
      <point x="416" y="89" type="line" smooth="yes"/>
      <point x="416" y="96"/>
      <point x="411" y="99"/>
      <point x="406" y="99" type="curve" smooth="yes"/>
      <point x="397" y="99"/>
      <point x="392" y="93"/>
      <point x="390" y="79" type="curve" smooth="yes"/>
      <point x="384" y="26" type="line"/>
      <point x="91" y="26" type="line"/>
      <point x="412" y="462" type="line"/>
      <point x="412" y="487" type="line"/>
      <point x="63" y="487" type="line"/>
      <point x="63" y="400" type="line" smooth="yes"/>
      <point x="63" y="393"/>
      <point x="68" y="390"/>
      <point x="73" y="390" type="curve" smooth="yes"/>
      <point x="82" y="390"/>
      <point x="87" y="396"/>
      <point x="89" y="410" type="curve" smooth="yes"/>
      <point x="95" y="461" type="line"/>
      <point x="371" y="461" type="line"/>
      <point x="49" y="25" type="line"/>
      <point x="49" y="0" type="line"/>
    </contour>
  </outline>
</glyph>
<glyph name="braceleft" format="1">
  <advance width="424"/>
  <unicode hex="007B"/>
  <note>
	braceleft
  </note>
  <outline>
    <contour>
      <point x="369" y="-143" type="line"/>
      <point x="369" y="-115" type="line"/>
      <point x="308" y="-115" type="line" smooth="yes"/>
      <point x="259" y="-115"/>
      <point x="220" y="-88"/>
      <point x="220" y="-23" type="curve" smooth="yes"/>
      <point x="220" y="148" type="line" smooth="yes"/>
      <point x="220" y="227"/>
      <point x="181" y="277"/>
      <point x="109" y="296" type="curve"/>
      <point x="182" y="320"/>
      <point x="220" y="368"/>
      <point x="220" y="448" type="curve" smooth="yes"/>
      <point x="220" y="616" type="line" smooth="yes"/>
      <point x="220" y="682"/>
      <point x="259" y="708"/>
      <point x="308" y="708" type="curve" smooth="yes"/>
      <point x="369" y="708" type="line"/>
      <point x="369" y="736" type="line"/>
      <point x="309" y="736" type="line" smooth="yes"/>
      <point x="245" y="736"/>
      <point x="186" y="709"/>
      <point x="186" y="617" type="curve" smooth="yes"/>
      <point x="186" y="457" type="line" smooth="yes"/>
      <point x="186" y="375"/>
      <point x="150" y="324"/>
      <point x="62" y="313" type="curve"/>
      <point x="62" y="280" type="line"/>
      <point x="150" y="271"/>
      <point x="186" y="234"/>
      <point x="186" y="135" type="curve" smooth="yes"/>
      <point x="186" y="-24" type="line" smooth="yes"/>
      <point x="186" y="-115"/>
      <point x="245" y="-143"/>
      <point x="309" y="-143" type="curve" smooth="yes"/>
    </contour>
  </outline>
</glyph>
<glyph name="bar" format="1">
  <advance width="262"/>
  <unicode hex="007C"/>
  <note>
	bar
  </note>
  <outline>
    <contour>
      <point x="148" y="-135" type="line"/>
      <point x="148" y="720" type="line"/>
      <point x="114" y="720" type="line"/>
      <point x="114" y="-135" type="line"/>
    </contour>
  </outline>
</glyph>
<glyph name="braceright" format="1">
  <advance width="424"/>
  <unicode hex="007D"/>
  <note>
	braceright
  </note>
  <outline>
    <contour>
      <point x="115" y="-143" type="line" smooth="yes"/>
      <point x="179" y="-143"/>
      <point x="238" y="-115"/>
      <point x="238" y="-24" type="curve" smooth="yes"/>
      <point x="238" y="135" type="line" smooth="yes"/>
      <point x="238" y="234"/>
      <point x="274" y="271"/>
      <point x="362" y="280" type="curve"/>
      <point x="362" y="313" type="line"/>
      <point x="274" y="324"/>
      <point x="238" y="375"/>
      <point x="238" y="457" type="curve" smooth="yes"/>
      <point x="238" y="617" type="line" smooth="yes"/>
      <point x="238" y="709"/>
      <point x="179" y="736"/>
      <point x="115" y="736" type="curve" smooth="yes"/>
      <point x="55" y="736" type="line"/>
      <point x="55" y="708" type="line"/>
      <point x="116" y="708" type="line" smooth="yes"/>
      <point x="165" y="708"/>
      <point x="204" y="682"/>
      <point x="204" y="616" type="curve" smooth="yes"/>
      <point x="204" y="448" type="line" smooth="yes"/>
      <point x="204" y="368"/>
      <point x="242" y="320"/>
      <point x="315" y="296" type="curve"/>
      <point x="243" y="277"/>
      <point x="204" y="227"/>
      <point x="204" y="148" type="curve" smooth="yes"/>
      <point x="204" y="-23" type="line" smooth="yes"/>
      <point x="204" y="-88"/>
      <point x="165" y="-115"/>
      <point x="116" y="-115" type="curve" smooth="yes"/>
      <point x="55" y="-115" type="line"/>
      <point x="55" y="-143" type="line"/>
    </contour>
  </outline>
</glyph>
<glyph name="asciitilde" format="1">
  <advance width="605"/>
  <unicode hex="007E"/>
  <note>
	asciitilde
  </note>
  <outline>
    <contour>
      <point x="453" y="252"/>
      <point x="507" y="277"/>
      <point x="535" y="297" type="curve"/>
      <point x="522" y="322" type="line"/>
      <point x="485" y="298"/>
      <point x="440" y="282"/>
      <point x="408" y="282" type="curve" smooth="yes"/>
      <point x="376" y="282"/>
      <point x="352" y="287"/>
      <point x="308" y="306" type="curve" smooth="yes"/>
      <point x="256" y="329"/>
      <point x="226" y="334"/>
      <point x="192" y="334" type="curve" smooth="yes"/>
      <point x="145" y="334"/>
      <point x="91" y="309"/>
      <point x="63" y="289" type="curve"/>
      <point x="76" y="264" type="line"/>
      <point x="113" y="288"/>
      <point x="158" y="304"/>
      <point x="190" y="304" type="curve" smooth="yes"/>
      <point x="222" y="304"/>
      <point x="246" y="299"/>
      <point x="290" y="280" type="curve" smooth="yes"/>
      <point x="342" y="257"/>
      <point x="372" y="252"/>
      <point x="406" y="252" type="curve" smooth="yes"/>
    </contour>
  </outline>
</glyph>
<glyph name="exclamdown" format="1">
  <advance width="292"/>
  <unicode hex="00A1"/>
  <note>
	exclamdown
  </note>
  <outline>
    <contour>
      <point x="168" y="-216" type="line"/>
      <point x="159" y="331" type="line"/>
      <point x="133" y="331" type="line"/>
      <point x="124" y="-216" type="line"/>
    </contour>
    <contour>
      <point x="164" y="419"/>
      <point x="180" y="433"/>
      <point x="180" y="453" type="curve" smooth="yes"/>
      <point x="180" y="473"/>
      <point x="164" y="487"/>
      <point x="146" y="487" type="curve" smooth="yes"/>
      <point x="128" y="487"/>
      <point x="112" y="473"/>
      <point x="112" y="453" type="curve" smooth="yes"/>
      <point x="112" y="433"/>
      <point x="128" y="419"/>
      <point x="146" y="419" type="curve" smooth="yes"/>
    </contour>
  </outline>
</glyph>
<glyph name="cent" format="1">
  <advance width="549"/>
  <unicode hex="00A2"/>
  <note>
	cent
  </note>
  <outline>
    <contour>
      <point x="313" y="-54" type="line"/>
      <point x="313" y="19" type="line"/>
      <point x="365" y="20"/>
      <point x="414" y="33"/>
      <point x="449" y="57" type="curve" smooth="yes"/>
      <point x="462" y="66"/>
      <point x="475" y="75"/>
      <point x="475" y="84" type="curve" smooth="yes"/>
      <point x="475" y="90"/>
      <point x="471" y="99"/>
      <point x="463" y="99" type="curve" smooth="yes"/>
      <point x="457" y="99"/>
      <point x="454" y="95"/>
      <point x="449" y="91" type="curve" smooth="yes"/>
      <point x="412" y="61"/>
      <point x="364" y="46"/>
      <point x="304" y="46" type="curve" smooth="yes"/>
      <point x="185" y="46"/>
      <point x="103" y="136"/>
      <point x="103" y="290" type="curve" smooth="yes"/>
      <point x="103" y="441"/>
      <point x="181" y="530"/>
      <point x="301" y="530" type="curve" smooth="yes"/>
      <point x="348" y="530"/>
      <point x="411" y="514"/>
      <point x="441" y="483" type="curve"/>
      <point x="448" y="429" type="line" smooth="yes"/>
      <point x="450" y="414"/>
      <point x="453" y="409"/>
      <point x="461" y="409" type="curve" smooth="yes"/>
      <point x="466" y="409"/>
      <point x="470" y="412"/>
      <point x="470" y="418" type="curve" smooth="yes"/>
      <point x="470" y="496" type="line"/>
      <point x="440" y="527"/>
      <point x="372" y="553"/>
      <point x="315" y="557" type="curve"/>
      <point x="315" y="631" type="line"/>
      <point x="286" y="631" type="line"/>
      <point x="286" y="557" type="line"/>
      <point x="140" y="550"/>
      <point x="70" y="439"/>
      <point x="70" y="290" type="curve" smooth="yes"/>
      <point x="70" y="139"/>
      <point x="141" y="29"/>
      <point x="284" y="20" type="curve"/>
      <point x="284" y="-54" type="line"/>
    </contour>
  </outline>
</glyph>
<glyph name="sterling" format="1">
  <advance width="640"/>
  <unicode hex="00A3"/>
  <note>
	sterling
  </note>
  <outline>
    <contour>
      <point x="520" y="0" type="line"/>
      <point x="520" y="103" type="line" smooth="yes"/>
      <point x="520" y="108"/>
      <point x="517" y="112"/>
      <point x="511" y="112" type="curve" smooth="yes"/>
      <point x="502" y="112"/>
      <point x="498" y="106"/>
      <point x="496" y="90" type="curve" smooth="yes"/>
      <point x="489" y="28" type="line"/>
      <point x="173" y="28" type="line"/>
      <point x="210" y="60"/>
      <point x="237" y="107"/>
      <point x="237" y="169" type="curve" smooth="yes"/>
      <point x="237" y="206"/>
      <point x="225" y="241"/>
      <point x="210" y="275" type="curve"/>
      <point x="211" y="275" type="line"/>
      <point x="450" y="281" type="line" smooth="yes"/>
      <point x="460" y="281"/>
      <point x="467" y="285"/>
      <point x="467" y="295" type="curve" smooth="yes"/>
      <point x="467" y="298"/>
      <point x="466" y="303"/>
      <point x="460" y="303" type="curve" smooth="yes"/>
      <point x="198" y="303" type="line"/>
      <point x="179" y="345"/>
      <point x="160" y="386"/>
      <point x="160" y="429" type="curve" smooth="yes"/>
      <point x="160" y="520"/>
      <point x="224" y="563"/>
      <point x="315" y="563" type="curve" smooth="yes"/>
      <point x="376" y="563"/>
      <point x="426" y="546"/>
      <point x="470" y="514" type="curve"/>
      <point x="479" y="446" type="line" smooth="yes"/>
      <point x="481" y="431"/>
      <point x="485" y="424"/>
      <point x="494" y="424" type="curve" smooth="yes"/>
      <point x="500" y="424"/>
      <point x="503" y="428"/>
      <point x="503" y="433" type="curve" smooth="yes"/>
      <point x="503" y="525" type="line"/>
      <point x="456" y="563"/>
      <point x="390" y="591"/>
      <point x="316" y="591" type="curve" smooth="yes"/>
      <point x="209" y="591"/>
      <point x="127" y="537"/>
      <point x="127" y="430" type="curve" smooth="yes"/>
      <point x="127" y="384"/>
      <point x="144" y="343"/>
      <point x="161" y="303" type="curve"/>
      <point x="107" y="303" type="line" smooth="yes"/>
      <point x="95" y="303"/>
      <point x="89" y="295"/>
      <point x="89" y="287" type="curve" smooth="yes"/>
      <point x="89" y="280"/>
      <point x="93" y="275"/>
      <point x="98" y="275" type="curve" smooth="yes"/>
      <point x="174" y="275" type="line"/>
      <point x="190" y="240"/>
      <point x="204" y="206"/>
      <point x="204" y="173" type="curve" smooth="yes"/>
      <point x="204" y="114"/>
      <point x="188" y="75"/>
      <point x="131" y="28" type="curve"/>
      <point x="80" y="28" type="line" smooth="yes"/>
      <point x="68" y="28"/>
      <point x="62" y="20"/>
      <point x="62" y="12" type="curve" smooth="yes"/>
      <point x="62" y="5"/>
      <point x="66" y="0"/>
      <point x="71" y="0" type="curve" smooth="yes"/>
    </contour>
  </outline>
</glyph>
<glyph name="currency" format="1">
  <advance width="564"/>
  <unicode hex="00A4"/>
  <note>
	currency
  </note>
  <outline>
    <contour>
      <point x="171" y="151" type="line"/>
      <point x="201" y="129"/>
      <point x="238" y="117"/>
      <point x="282" y="117" type="curve" smooth="yes"/>
      <point x="326" y="117"/>
      <point x="363" y="129"/>
      <point x="393" y="151" type="curve"/>
      <point x="453" y="80" type="line"/>
      <point x="479" y="98" type="line"/>
      <point x="417" y="171" type="line"/>
      <point x="452" y="207"/>
      <point x="473" y="259"/>
      <point x="473" y="317" type="curve" smooth="yes"/>
      <point x="473" y="375"/>
      <point x="452" y="427"/>
      <point x="417" y="463" type="curve"/>
      <point x="479" y="536" type="line"/>
      <point x="453" y="554" type="line"/>
      <point x="393" y="483" type="line"/>
      <point x="363" y="505"/>
      <point x="326" y="517"/>
      <point x="282" y="517" type="curve" smooth="yes"/>
      <point x="238" y="517"/>
      <point x="201" y="505"/>
      <point x="171" y="483" type="curve"/>
      <point x="111" y="554" type="line"/>
      <point x="85" y="536" type="line"/>
      <point x="147" y="463" type="line"/>
      <point x="112" y="427"/>
      <point x="91" y="375"/>
      <point x="91" y="317" type="curve" smooth="yes"/>
      <point x="91" y="259"/>
      <point x="112" y="207"/>
      <point x="147" y="171" type="curve"/>
      <point x="85" y="98" type="line"/>
      <point x="111" y="80" type="line"/>
    </contour>
    <contour>
      <point x="190" y="144"/>
      <point x="122" y="214"/>
      <point x="122" y="317" type="curve" smooth="yes"/>
      <point x="122" y="420"/>
      <point x="190" y="490"/>
      <point x="282" y="490" type="curve" smooth="yes"/>
      <point x="374" y="490"/>
      <point x="442" y="420"/>
      <point x="442" y="317" type="curve" smooth="yes"/>
      <point x="442" y="214"/>
      <point x="374" y="144"/>
      <point x="282" y="144" type="curve" smooth="yes"/>
    </contour>
  </outline>
</glyph>
<glyph name="yen" format="1">
  <advance width="604"/>
  <unicode hex="00A5"/>
  <note>
	yen
  </note>
  <outline>
    <contour>
      <point x="379" y="0" type="line" smooth="yes"/>
      <point x="385" y="0"/>
      <point x="386" y="5"/>
      <point x="386" y="8" type="curve" smooth="yes"/>
      <point x="386" y="16"/>
      <point x="380" y="20"/>
      <point x="370" y="21" type="curve" smooth="yes"/>
      <point x="312" y="27" type="line"/>
      <point x="312" y="208" type="line"/>
      <point x="488" y="208" type="line"/>
      <point x="488" y="235" type="line"/>
      <point x="312" y="235" type="line"/>
      <point x="312" y="308" type="line"/>
      <point x="334" y="340" type="line"/>
      <point x="488" y="340" type="line"/>
      <point x="488" y="367" type="line"/>
      <point x="352" y="367" type="line"/>
      <point x="552" y="662" type="line"/>
      <point x="600" y="668" type="line" smooth="yes"/>
      <point x="610" y="669"/>
      <point x="616" y="673"/>
      <point x="616" y="681" type="curve" smooth="yes"/>
      <point x="616" y="684"/>
      <point x="615" y="689"/>
      <point x="609" y="689" type="curve" smooth="yes"/>
      <point x="465" y="689" type="line" smooth="yes"/>
      <point x="453" y="689"/>
      <point x="448" y="683"/>
      <point x="448" y="675" type="curve" smooth="yes"/>
      <point x="448" y="668"/>
      <point x="452" y="663"/>
      <point x="457" y="663" type="curve" smooth="yes"/>
      <point x="518" y="663" type="line"/>
      <point x="299" y="339" type="line"/>
      <point x="93" y="662" type="line"/>
      <point x="157" y="668" type="line" smooth="yes"/>
      <point x="167" y="669"/>
      <point x="173" y="673"/>
      <point x="173" y="681" type="curve" smooth="yes"/>
      <point x="173" y="684"/>
      <point x="172" y="689"/>
      <point x="166" y="689" type="curve" smooth="yes"/>
      <point x="13" y="689" type="line" smooth="yes"/>
      <point x="1" y="689"/>
      <point x="-4" y="683"/>
      <point x="-4" y="675" type="curve" smooth="yes"/>
      <point x="-4" y="668"/>
      <point x="0" y="663"/>
      <point x="5" y="663" type="curve" smooth="yes"/>
      <point x="49" y="663" type="line"/>
      <point x="240" y="367" type="line"/>
      <point x="102" y="367" type="line"/>
      <point x="102" y="340" type="line"/>
      <point x="257" y="340" type="line"/>
      <point x="278" y="307" type="line"/>
      <point x="278" y="235" type="line"/>
      <point x="102" y="235" type="line"/>
      <point x="102" y="208" type="line"/>
      <point x="278" y="208" type="line"/>
      <point x="278" y="26" type="line"/>
      <point x="232" y="26" type="line" smooth="yes"/>
      <point x="220" y="26"/>
      <point x="214" y="20"/>
      <point x="214" y="12" type="curve" smooth="yes"/>
      <point x="214" y="5"/>
      <point x="218" y="0"/>
      <point x="223" y="0" type="curve" smooth="yes"/>
    </contour>
  </outline>
</glyph>
<glyph name="brokenbar" format="1">
  <advance width="270"/>
  <unicode hex="00A6"/>
  <note>
	brokenbar
  </note>
  <outline>
    <contour>
      <point x="152" y="360" type="line"/>
      <point x="152" y="735" type="line"/>
      <point x="118" y="735" type="line"/>
      <point x="118" y="360" type="line"/>
    </contour>
    <contour>
      <point x="152" y="-170" type="line"/>
      <point x="152" y="205" type="line"/>
      <point x="118" y="205" type="line"/>
      <point x="118" y="-170" type="line"/>
    </contour>
  </outline>
</glyph>
<glyph name="section" format="1">
  <advance width="582"/>
  <unicode hex="00A7"/>
  <note>
	section
  </note>
  <outline>
    <contour>
      <point x="385" y="-108"/>
      <point x="482" y="-65"/>
      <point x="482" y="40" type="curve" smooth="yes"/>
      <point x="482" y="67"/>
      <point x="476" y="89"/>
      <point x="465" y="109" type="curve"/>
      <point x="488" y="132"/>
      <point x="502" y="163"/>
      <point x="502" y="202" type="curve" smooth="yes"/>
      <point x="502" y="292"/>
      <point x="437" y="333"/>
      <point x="313" y="381" type="curve" smooth="yes"/>
      <point x="200" y="424"/>
      <point x="136" y="449"/>
      <point x="136" y="528" type="curve" smooth="yes"/>
      <point x="136" y="608"/>
      <point x="210" y="636"/>
      <point x="289" y="636" type="curve" smooth="yes"/>
      <point x="342" y="636"/>
      <point x="403" y="624"/>
      <point x="443" y="590" type="curve"/>
      <point x="451" y="533" type="line" smooth="yes"/>
      <point x="453" y="520"/>
      <point x="456" y="514"/>
      <point x="463" y="514" type="curve" smooth="yes"/>
      <point x="469" y="514"/>
      <point x="471" y="518"/>
      <point x="471" y="522" type="curve" smooth="yes"/>
      <point x="471" y="601" type="line"/>
      <point x="430" y="639"/>
      <point x="356" y="665"/>
      <point x="290" y="665" type="curve" smooth="yes"/>
      <point x="197" y="665"/>
      <point x="100" y="627"/>
      <point x="100" y="523" type="curve" smooth="yes"/>
      <point x="100" y="498"/>
      <point x="107" y="475"/>
      <point x="120" y="456" type="curve"/>
      <point x="95" y="434"/>
      <point x="80" y="403"/>
      <point x="80" y="361" type="curve" smooth="yes"/>
      <point x="80" y="279"/>
      <point x="153" y="233"/>
      <point x="259" y="193" type="curve" smooth="yes"/>
      <point x="390" y="144"/>
      <point x="446" y="119"/>
      <point x="446" y="39" type="curve" smooth="yes"/>
      <point x="446" y="-52"/>
      <point x="363" y="-79"/>
      <point x="279" y="-79" type="curve" smooth="yes"/>
      <point x="232" y="-79"/>
      <point x="162" y="-68"/>
      <point x="117" y="-36" type="curve"/>
      <point x="108" y="34" type="line" smooth="yes"/>
      <point x="106" y="49"/>
      <point x="102" y="56"/>
      <point x="93" y="56" type="curve" smooth="yes"/>
      <point x="87" y="56"/>
      <point x="84" y="52"/>
      <point x="84" y="47" type="curve" smooth="yes"/>
      <point x="84" y="-48" type="line"/>
      <point x="132" y="-92"/>
      <point x="222" y="-108"/>
      <point x="279" y="-108" type="curve" smooth="yes"/>
    </contour>
    <contour>
      <point x="414" y="167"/>
      <point x="363" y="192"/>
      <point x="293" y="219" type="curve" smooth="yes"/>
      <point x="180" y="262"/>
      <point x="116" y="287"/>
      <point x="116" y="366" type="curve" smooth="yes"/>
      <point x="116" y="394"/>
      <point x="125" y="416"/>
      <point x="140" y="432" type="curve"/>
      <point x="172" y="401"/>
      <point x="220" y="378"/>
      <point x="279" y="355" type="curve" smooth="yes"/>
      <point x="410" y="306"/>
      <point x="466" y="281"/>
      <point x="466" y="201" type="curve" smooth="yes"/>
      <point x="466" y="174"/>
      <point x="458" y="152"/>
      <point x="445" y="135" type="curve"/>
    </contour>
  </outline>
</glyph>
<glyph name="dieresis" format="1">
  <advance width="367"/>
  <unicode hex="00A8"/>
  <note>
	dieresis
  </note>
  <outline>
    <contour>
      <point x="291" y="547"/>
      <point x="307" y="561"/>
      <point x="307" y="581" type="curve" smooth="yes"/>
      <point x="307" y="601"/>
      <point x="291" y="615"/>
      <point x="273" y="615" type="curve" smooth="yes"/>
      <point x="255" y="615"/>
      <point x="239" y="601"/>
      <point x="239" y="581" type="curve" smooth="yes"/>
      <point x="239" y="561"/>
      <point x="255" y="547"/>
      <point x="273" y="547" type="curve" smooth="yes"/>
    </contour>
    <contour>
      <point x="113" y="547"/>
      <point x="129" y="561"/>
      <point x="129" y="581" type="curve" smooth="yes"/>
      <point x="129" y="601"/>
      <point x="113" y="615"/>
      <point x="95" y="615" type="curve" smooth="yes"/>
      <point x="77" y="615"/>
      <point x="61" y="601"/>
      <point x="61" y="581" type="curve" smooth="yes"/>
      <point x="61" y="561"/>
      <point x="77" y="547"/>
      <point x="95" y="547" type="curve" smooth="yes"/>
    </contour>
  </outline>
</glyph>
<glyph name="copyright" format="1">
  <advance width="789"/>
  <unicode hex="00A9"/>
  <note>
	copyright
  </note>
  <outline>
    <contour>
      <point x="603" y="-10"/>
      <point x="736" y="134"/>
      <point x="736" y="337" type="curve" smooth="yes"/>
      <point x="736" y="540"/>
      <point x="603" y="684"/>
      <point x="394" y="684" type="curve" smooth="yes"/>
      <point x="187" y="684"/>
      <point x="53" y="540"/>
      <point x="53" y="337" type="curve" smooth="yes"/>
      <point x="53" y="134"/>
      <point x="187" y="-10"/>
      <point x="394" y="-10" type="curve" smooth="yes"/>
    </contour>
    <contour>
      <point x="444" y="141"/>
      <point x="479" y="151"/>
      <point x="507" y="170" type="curve" smooth="yes"/>
      <point x="516" y="176"/>
      <point x="526" y="186"/>
      <point x="526" y="194" type="curve" smooth="yes"/>
      <point x="526" y="200"/>
      <point x="523" y="206"/>
      <point x="517" y="206" type="curve" smooth="yes"/>
      <point x="513" y="206"/>
      <point x="511" y="204"/>
      <point x="507" y="201" type="curve" smooth="yes"/>
      <point x="479" y="180"/>
      <point x="446" y="168"/>
      <point x="403" y="168" type="curve" smooth="yes"/>
      <point x="316" y="168"/>
      <point x="261" y="226"/>
      <point x="261" y="337" type="curve" smooth="yes"/>
      <point x="261" y="447"/>
      <point x="314" y="505"/>
      <point x="400" y="505" type="curve" smooth="yes"/>
      <point x="434" y="505"/>
      <point x="480" y="493"/>
      <point x="501" y="471" type="curve"/>
      <point x="507" y="432" type="line" smooth="yes"/>
      <point x="509" y="421"/>
      <point x="511" y="416"/>
      <point x="518" y="416" type="curve" smooth="yes"/>
      <point x="523" y="416"/>
      <point x="526" y="419"/>
      <point x="526" y="424" type="curve" smooth="yes"/>
      <point x="526" y="484" type="line"/>
      <point x="503" y="508"/>
      <point x="449" y="532"/>
      <point x="400" y="532" type="curve" smooth="yes"/>
      <point x="288" y="532"/>
      <point x="229" y="450"/>
      <point x="229" y="337" type="curve" smooth="yes"/>
      <point x="229" y="223"/>
      <point x="290" y="141"/>
      <point x="403" y="141" type="curve" smooth="yes"/>
    </contour>
    <contour>
      <point x="205" y="17"/>
      <point x="85" y="152"/>
      <point x="85" y="337" type="curve" smooth="yes"/>
      <point x="85" y="522"/>
      <point x="205" y="657"/>
      <point x="394" y="657" type="curve" smooth="yes"/>
      <point x="583" y="657"/>
      <point x="704" y="522"/>
      <point x="704" y="337" type="curve" smooth="yes"/>
      <point x="704" y="152"/>
      <point x="583" y="17"/>
      <point x="394" y="17" type="curve" smooth="yes"/>
    </contour>
  </outline>
</glyph>
<glyph name="ordfeminine" format="1">
  <advance width="402"/>
  <unicode hex="00AA"/>
  <note>
	ordfeminine
  </note>
  <outline>
    <contour>
      <point x="223" y="319"/>
      <point x="258" y="349"/>
      <point x="279" y="381" type="curve"/>
      <point x="282" y="381" type="line"/>
      <point x="282" y="325" type="line"/>
      <point x="349" y="325" type="line" smooth="yes"/>
      <point x="355" y="325"/>
      <point x="357" y="328"/>
      <point x="357" y="334" type="curve" smooth="yes"/>
      <point x="357" y="341"/>
      <point x="352" y="345"/>
      <point x="341" y="347" type="curve" smooth="yes"/>
      <point x="311" y="352" type="line"/>
      <point x="311" y="546" type="line" smooth="yes"/>
      <point x="311" y="608"/>
      <point x="271" y="643"/>
      <point x="206" y="643" type="curve" smooth="yes"/>
      <point x="166" y="643"/>
      <point x="114" y="626"/>
      <point x="84" y="606" type="curve"/>
      <point x="84" y="552" type="line" smooth="yes"/>
      <point x="84" y="545"/>
      <point x="88" y="542"/>
      <point x="94" y="542" type="curve" smooth="yes"/>
      <point x="99" y="542"/>
      <point x="105" y="546"/>
      <point x="106" y="556" type="curve" smooth="yes"/>
      <point x="111" y="589" type="line"/>
      <point x="136" y="603"/>
      <point x="175" y="616"/>
      <point x="204" y="616" type="curve" smooth="yes"/>
      <point x="258" y="616"/>
      <point x="281" y="590"/>
      <point x="281" y="545" type="curve" smooth="yes"/>
      <point x="281" y="516" type="line"/>
      <point x="179" y="501" type="line" smooth="yes"/>
      <point x="110" y="491"/>
      <point x="63" y="464"/>
      <point x="63" y="406" type="curve" smooth="yes"/>
      <point x="63" y="345"/>
      <point x="111" y="319"/>
      <point x="163" y="319" type="curve" smooth="yes"/>
    </contour>
    <contour>
      <point x="123" y="346"/>
      <point x="94" y="366"/>
      <point x="94" y="405" type="curve" smooth="yes"/>
      <point x="94" y="446"/>
      <point x="127" y="464"/>
      <point x="177" y="472" type="curve" smooth="yes"/>
      <point x="281" y="489" type="line"/>
      <point x="281" y="446" type="line" smooth="yes"/>
      <point x="281" y="389"/>
      <point x="223" y="346"/>
      <point x="169" y="346" type="curve" smooth="yes"/>
    </contour>
  </outline>
</glyph>
<glyph name="guillemotleft" format="1">
  <advance width="440"/>
  <unicode hex="00AB"/>
  <note>
	guillemotleft
  </note>
  <outline>
    <contour>
      <point x="355" y="67" type="line"/>
      <point x="252" y="237" type="line"/>
      <point x="355" y="407" type="line"/>
      <point x="335" y="422" type="line"/>
      <point x="221" y="250" type="line"/>
      <point x="221" y="224" type="line"/>
      <point x="335" y="52" type="line"/>
    </contour>
    <contour>
      <point x="209" y="67" type="line"/>
      <point x="106" y="237" type="line"/>
      <point x="209" y="407" type="line"/>
      <point x="189" y="422" type="line"/>
      <point x="75" y="250" type="line"/>
      <point x="75" y="224" type="line"/>
      <point x="189" y="52" type="line"/>
    </contour>
  </outline>
</glyph>
<glyph name="logicalnot" format="1">
  <advance width="642"/>
  <unicode hex="00AC"/>
  <note>
	logicalnot
  </note>
  <outline>
    <contour>
      <point x="549" y="141" type="line"/>
      <point x="549" y="356" type="line"/>
      <point x="84" y="356" type="line"/>
      <point x="84" y="326" type="line"/>
      <point x="518" y="326" type="line"/>
      <point x="518" y="141" type="line"/>
    </contour>
  </outline>
</glyph>
<glyph name="softhyphen" format="1">
  <advance width="282"/>
  <unicode hex="00AD"/>
  <note>
	softhyphen
  </note>
  <outline>
    <contour>
      <point x="227" y="253" type="line"/>
      <point x="227" y="281" type="line"/>
      <point x="55" y="281" type="line"/>
      <point x="55" y="253" type="line"/>
    </contour>
  </outline>
</glyph>
<glyph name="registered" format="1">
  <advance width="475"/>
  <unicode hex="00AE"/>
  <note>
	registered
  </note>
  <outline>
    <contour>
      <point x="366" y="342"/>
      <point x="448" y="434"/>
      <point x="448" y="554" type="curve" smooth="yes"/>
      <point x="448" y="674"/>
      <point x="366" y="766"/>
      <point x="236" y="766" type="curve" smooth="yes"/>
      <point x="110" y="766"/>
      <point x="27" y="674"/>
      <point x="27" y="554" type="curve" smooth="yes"/>
      <point x="27" y="434"/>
      <point x="110" y="342"/>
      <point x="236" y="342" type="curve" smooth="yes"/>
    </contour>
    <contour>
      <point x="130" y="368"/>
      <point x="56" y="444"/>
      <point x="56" y="554" type="curve" smooth="yes"/>
      <point x="56" y="664"/>
      <point x="130" y="740"/>
      <point x="236" y="740" type="curve" smooth="yes"/>
      <point x="344" y="740"/>
      <point x="419" y="664"/>
      <point x="419" y="554" type="curve" smooth="yes"/>
      <point x="419" y="444"/>
      <point x="344" y="368"/>
      <point x="236" y="368" type="curve" smooth="yes"/>
    </contour>
    <contour>
      <point x="230" y="452" type="line" smooth="yes"/>
      <point x="233" y="452"/>
      <point x="235" y="453"/>
      <point x="235" y="457" type="curve" smooth="yes"/>
      <point x="235" y="462"/>
      <point x="231" y="464"/>
      <point x="218" y="467" type="curve" smooth="yes"/>
      <point x="201" y="471" type="line"/>
      <point x="201" y="544" type="line"/>
      <point x="293" y="452" type="line"/>
      <point x="338" y="452" type="line" smooth="yes"/>
      <point x="341" y="452"/>
      <point x="342" y="454"/>
      <point x="342" y="457" type="curve" smooth="yes"/>
      <point x="342" y="462"/>
      <point x="339" y="464"/>
      <point x="326" y="467" type="curve" smooth="yes"/>
      <point x="310" y="471" type="line"/>
      <point x="231" y="548" type="line"/>
      <point x="251" y="548" type="line" smooth="yes"/>
      <point x="293" y="548"/>
      <point x="317" y="567"/>
      <point x="317" y="603" type="curve" smooth="yes"/>
      <point x="317" y="639"/>
      <point x="293" y="659"/>
      <point x="251" y="659" type="curve" smooth="yes"/>
      <point x="151" y="659" type="line" smooth="yes"/>
      <point x="144" y="659"/>
      <point x="141" y="656"/>
      <point x="141" y="651" type="curve" smooth="yes"/>
      <point x="141" y="644"/>
      <point x="149" y="642"/>
      <point x="162" y="639" type="curve" smooth="yes"/>
      <point x="175" y="636" type="line"/>
      <point x="175" y="470" type="line"/>
      <point x="155" y="470" type="line" smooth="yes"/>
      <point x="147" y="470"/>
      <point x="141" y="467"/>
      <point x="141" y="460" type="curve" smooth="yes"/>
      <point x="141" y="454"/>
      <point x="144" y="452"/>
      <point x="148" y="452" type="curve" smooth="yes"/>
    </contour>
    <contour>
      <point x="201" y="636" type="line"/>
      <point x="250" y="636" type="line" smooth="yes"/>
      <point x="276" y="636"/>
      <point x="292" y="627"/>
      <point x="292" y="603" type="curve" smooth="yes"/>
      <point x="292" y="579"/>
      <point x="276" y="569"/>
      <point x="250" y="569" type="curve" smooth="yes"/>
      <point x="201" y="569" type="line"/>
    </contour>
  </outline>
</glyph>
<glyph name="macron" format="1">
  <advance width="382"/>
  <unicode hex="00AF"/>
  <note>
	macron
  </note>
  <outline>
    <contour>
      <point x="326" y="557" type="line"/>
      <point x="326" y="585" type="line"/>
      <point x="56" y="585" type="line"/>
      <point x="56" y="557" type="line"/>
    </contour>
  </outline>
</glyph>
<glyph name="degree" format="1">
  <advance width="351"/>
  <unicode hex="00B0"/>
  <note>
	degree
  </note>
  <outline>
    <contour>
      <point x="244" y="554"/>
      <point x="295" y="601"/>
      <point x="295" y="672" type="curve" smooth="yes"/>
      <point x="295" y="743"/>
      <point x="244" y="790"/>
      <point x="175" y="790" type="curve" smooth="yes"/>
      <point x="106" y="790"/>
      <point x="55" y="743"/>
      <point x="55" y="672" type="curve" smooth="yes"/>
      <point x="55" y="601"/>
      <point x="106" y="554"/>
      <point x="175" y="554" type="curve" smooth="yes"/>
    </contour>
    <contour>
      <point x="128" y="581"/>
      <point x="86" y="613"/>
      <point x="86" y="672" type="curve" smooth="yes"/>
      <point x="86" y="731"/>
      <point x="128" y="763"/>
      <point x="175" y="763" type="curve" smooth="yes"/>
      <point x="222" y="763"/>
      <point x="264" y="731"/>
      <point x="264" y="672" type="curve" smooth="yes"/>
      <point x="264" y="613"/>
      <point x="222" y="581"/>
      <point x="175" y="581" type="curve" smooth="yes"/>
    </contour>
  </outline>
</glyph>
<glyph name="plusminus" format="1">
  <advance width="551"/>
  <unicode hex="00B1"/>
  <note>
	plusminus
  </note>
  <outline>
    <contour>
      <point x="290" y="188" type="line"/>
      <point x="290" y="380" type="line"/>
      <point x="484" y="380" type="line"/>
      <point x="484" y="408" type="line"/>
      <point x="290" y="408" type="line"/>
      <point x="290" y="600" type="line"/>
      <point x="261" y="600" type="line"/>
      <point x="261" y="408" type="line"/>
      <point x="67" y="408" type="line"/>
      <point x="67" y="380" type="line"/>
      <point x="261" y="380" type="line"/>
      <point x="261" y="188" type="line"/>
    </contour>
    <contour>
      <point x="484" y="0" type="line"/>
      <point x="484" y="28" type="line"/>
      <point x="67" y="28" type="line"/>
      <point x="67" y="0" type="line"/>
    </contour>
  </outline>
</glyph>
<glyph name="twosuperior" format="1">
  <advance width="321"/>
  <unicode hex="00B2"/>
  <note>
	twosuperior
  </note>
  <outline>
    <contour>
      <point x="281" y="393" type="line"/>
      <point x="281" y="418" type="line"/>
      <point x="76" y="418" type="line"/>
      <point x="190" y="535" type="line" smooth="yes"/>
      <point x="234" y="581"/>
      <point x="273" y="626"/>
      <point x="273" y="671" type="curve" smooth="yes"/>
      <point x="273" y="736"/>
      <point x="223" y="769"/>
      <point x="169" y="769" type="curve" smooth="yes"/>
      <point x="126" y="769"/>
      <point x="86" y="754"/>
      <point x="51" y="730" type="curve"/>
      <point x="51" y="678" type="line" smooth="yes"/>
      <point x="51" y="671"/>
      <point x="55" y="668"/>
      <point x="61" y="668" type="curve" smooth="yes"/>
      <point x="70" y="668"/>
      <point x="73" y="673"/>
      <point x="75" y="684" type="curve" smooth="yes"/>
      <point x="80" y="719" type="line"/>
      <point x="104" y="733"/>
      <point x="135" y="744"/>
      <point x="168" y="744" type="curve" smooth="yes"/>
      <point x="209" y="744"/>
      <point x="242" y="720"/>
      <point x="242" y="671" type="curve" smooth="yes"/>
      <point x="242" y="633"/>
      <point x="208" y="593"/>
      <point x="177" y="561" type="curve" smooth="yes"/>
      <point x="42" y="422" type="line"/>
      <point x="42" y="393" type="line"/>
    </contour>
  </outline>
</glyph>
<glyph name="threesuperior" format="1">
  <advance width="322"/>
  <unicode hex="00B3"/>
  <note>
	threesuperior
  </note>
  <outline>
    <contour>
      <point x="225" y="383"/>
      <point x="275" y="416"/>
      <point x="275" y="487" type="curve" smooth="yes"/>
      <point x="275" y="534"/>
      <point x="251" y="571"/>
      <point x="198" y="585" type="curve"/>
      <point x="238" y="601"/>
      <point x="262" y="632"/>
      <point x="262" y="674" type="curve" smooth="yes"/>
      <point x="262" y="741"/>
      <point x="212" y="769"/>
      <point x="157" y="769" type="curve" smooth="yes"/>
      <point x="113" y="769"/>
      <point x="68" y="752"/>
      <point x="38" y="729" type="curve"/>
      <point x="38" y="675" type="line" smooth="yes"/>
      <point x="38" y="668"/>
      <point x="42" y="665"/>
      <point x="48" y="665" type="curve" smooth="yes"/>
      <point x="56" y="665"/>
      <point x="59" y="670"/>
      <point x="61" y="681" type="curve" smooth="yes"/>
      <point x="66" y="717" type="line"/>
      <point x="91" y="734"/>
      <point x="120" y="744"/>
      <point x="155" y="744" type="curve" smooth="yes"/>
      <point x="199" y="744"/>
      <point x="234" y="724"/>
      <point x="234" y="674" type="curve" smooth="yes"/>
      <point x="234" y="621"/>
      <point x="183" y="597"/>
      <point x="139" y="592" type="curve" smooth="yes"/>
      <point x="95" y="587" type="line"/>
      <point x="95" y="561" type="line"/>
      <point x="142" y="566"/>
      <point x="150" y="567"/>
      <point x="158" y="567" type="curve" smooth="yes"/>
      <point x="210" y="567"/>
      <point x="247" y="533"/>
      <point x="247" y="488" type="curve" smooth="yes"/>
      <point x="247" y="433"/>
      <point x="205" y="408"/>
      <point x="143" y="408" type="curve" smooth="yes"/>
      <point x="108" y="408"/>
      <point x="67" y="418"/>
      <point x="32" y="433" type="curve"/>
      <point x="32" y="407" type="line"/>
      <point x="58" y="395"/>
      <point x="100" y="383"/>
      <point x="145" y="383" type="curve" smooth="yes"/>
    </contour>
  </outline>
</glyph>
<glyph name="acute" format="1">
  <advance width="261"/>
  <unicode hex="00B4"/>
  <note>
	acute
  </note>
  <outline>
    <contour>
      <point x="185" y="647" type="line"/>
      <point x="155" y="665" type="line"/>
      <point x="83" y="547" type="line"/>
      <point x="105" y="534" type="line"/>
    </contour>
  </outline>
</glyph>
<glyph name="mu" format="1">
  <advance width="596"/>
  <unicode hex="00B5"/>
  <note>
	mu
  </note>
  <outline>
    <contour>
      <point x="128" y="-240" type="line"/>
      <point x="122" y="53" type="line"/>
      <point x="152" y="13"/>
      <point x="201" y="-10"/>
      <point x="253" y="-10" type="curve" smooth="yes"/>
      <point x="327" y="-10"/>
      <point x="385" y="29"/>
      <point x="433" y="76" type="curve"/>
      <point x="436" y="76" type="line"/>
      <point x="436" y="51" type="line" smooth="yes"/>
      <point x="436" y="9"/>
      <point x="465" y="-10"/>
      <point x="498" y="-10" type="curve" smooth="yes"/>
      <point x="521" y="-10"/>
      <point x="548" y="1"/>
      <point x="563" y="11" type="curve"/>
      <point x="563" y="39" type="line"/>
      <point x="546" y="29"/>
      <point x="524" y="18"/>
      <point x="501" y="18" type="curve" smooth="yes"/>
      <point x="480" y="18"/>
      <point x="465" y="27"/>
      <point x="465" y="55" type="curve" smooth="yes"/>
      <point x="465" y="487" type="line"/>
      <point x="433" y="487" type="line"/>
      <point x="433" y="113" type="line"/>
      <point x="386" y="58"/>
      <point x="323" y="18"/>
      <point x="258" y="18" type="curve" smooth="yes"/>
      <point x="175" y="18"/>
      <point x="125" y="72"/>
      <point x="125" y="136" type="curve" smooth="yes"/>
      <point x="125" y="487" type="line"/>
      <point x="93" y="487" type="line"/>
      <point x="93" y="48" type="line"/>
      <point x="87" y="-240" type="line"/>
    </contour>
  </outline>
</glyph>
<glyph name="paragraph" format="1">
  <advance width="647"/>
  <unicode hex="00B6"/>
  <note>
	paragraph
  </note>
  <outline>
    <contour>
      <point x="520" y="-160" type="line" smooth="yes"/>
      <point x="526" y="-160"/>
      <point x="527" y="-155"/>
      <point x="527" y="-152" type="curve" smooth="yes"/>
      <point x="527" y="-144"/>
      <point x="521" y="-140"/>
      <point x="510" y="-140" type="curve" smooth="yes"/>
      <point x="360" y="-134" type="line"/>
      <point x="360" y="669" type="line"/>
      <point x="420" y="669" type="line"/>
      <point x="420" y="-82" type="line"/>
      <point x="454" y="-82" type="line"/>
      <point x="454" y="668" type="line"/>
      <point x="506" y="674" type="line" smooth="yes"/>
      <point x="516" y="675"/>
      <point x="522" y="679"/>
      <point x="522" y="687" type="curve" smooth="yes"/>
      <point x="522" y="690"/>
      <point x="521" y="695"/>
      <point x="515" y="695" type="curve" smooth="yes"/>
      <point x="295" y="695" type="line" smooth="yes"/>
      <point x="184" y="695"/>
      <point x="100" y="653"/>
      <point x="100" y="544" type="curve" smooth="yes"/>
      <point x="100" y="442"/>
      <point x="174" y="392"/>
      <point x="275" y="392" type="curve" smooth="yes"/>
      <point x="326" y="392" type="line"/>
      <point x="326" y="-134" type="line"/>
      <point x="272" y="-134" type="line" smooth="yes"/>
      <point x="260" y="-134"/>
      <point x="253" y="-139"/>
      <point x="253" y="-149" type="curve" smooth="yes"/>
      <point x="253" y="-156"/>
      <point x="257" y="-160"/>
      <point x="262" y="-160" type="curve" smooth="yes"/>
    </contour>
  </outline>
</glyph>
<glyph name="periodcentered" format="1">
  <advance width="270"/>
  <unicode hex="00B7"/>
  <note>
	periodcentered
  </note>
  <outline>
    <contour>
      <point x="159" y="305"/>
      <point x="178" y="322"/>
      <point x="178" y="349" type="curve" smooth="yes"/>
      <point x="178" y="376"/>
      <point x="159" y="393"/>
      <point x="135" y="393" type="curve" smooth="yes"/>
      <point x="111" y="393"/>
      <point x="92" y="376"/>
      <point x="92" y="349" type="curve" smooth="yes"/>
      <point x="92" y="322"/>
      <point x="111" y="305"/>
      <point x="135" y="305" type="curve" smooth="yes"/>
    </contour>
  </outline>
</glyph>
<glyph name="cedilla" format="1">
  <advance width="372"/>
  <unicode hex="00B8"/>
  <note>
	cedilla
  </note>
  <outline>
    <contour>
      <point x="186" y="-188"/>
      <point x="233" y="-156"/>
      <point x="233" y="-113" type="curve" smooth="yes"/>
      <point x="233" y="-72"/>
      <point x="207" y="-54"/>
      <point x="184" y="-44" type="curve"/>
      <point x="205" y="0" type="line"/>
      <point x="175" y="0" type="line"/>
      <point x="154" y="-56" type="line"/>
      <point x="192" y="-67"/>
      <point x="203" y="-85"/>
      <point x="203" y="-113" type="curve" smooth="yes"/>
      <point x="203" y="-141"/>
      <point x="179" y="-167"/>
      <point x="133" y="-182" type="curve"/>
      <point x="140" y="-201" type="line"/>
    </contour>
  </outline>
</glyph>
<glyph name="onesuperior" format="1">
  <advance width="230"/>
  <unicode hex="00B9"/>
  <note>
	onesuperior
  </note>
  <outline>
    <contour>
      <point x="184" y="393" type="line" smooth="yes"/>
      <point x="188" y="393"/>
      <point x="190" y="396"/>
      <point x="190" y="400" type="curve" smooth="yes"/>
      <point x="190" y="408"/>
      <point x="185" y="410"/>
      <point x="173" y="411" type="curve" smooth="yes"/>
      <point x="127" y="414" type="line"/>
      <point x="127" y="761" type="line"/>
      <point x="98" y="761" type="line"/>
      <point x="35" y="738" type="line"/>
      <point x="35" y="714" type="line"/>
      <point x="97" y="735" type="line"/>
      <point x="97" y="414" type="line"/>
      <point x="42" y="414" type="line" smooth="yes"/>
      <point x="33" y="414"/>
      <point x="27" y="410"/>
      <point x="27" y="402" type="curve" smooth="yes"/>
      <point x="27" y="396"/>
      <point x="31" y="393"/>
      <point x="36" y="393" type="curve" smooth="yes"/>
    </contour>
  </outline>
</glyph>
<glyph name="ordmasculine" format="1">
  <advance width="392"/>
  <unicode hex="00BA"/>
  <note>
	ordmasculine
  </note>
  <outline>
    <contour>
      <point x="287" y="319"/>
      <point x="335" y="388"/>
      <point x="335" y="481" type="curve" smooth="yes"/>
      <point x="335" y="574"/>
      <point x="287" y="643"/>
      <point x="196" y="643" type="curve" smooth="yes"/>
      <point x="105" y="643"/>
      <point x="57" y="574"/>
      <point x="57" y="481" type="curve" smooth="yes"/>
      <point x="57" y="388"/>
      <point x="105" y="319"/>
      <point x="196" y="319" type="curve" smooth="yes"/>
    </contour>
    <contour>
      <point x="128" y="346"/>
      <point x="88" y="398"/>
      <point x="88" y="481" type="curve" smooth="yes"/>
      <point x="88" y="564"/>
      <point x="128" y="616"/>
      <point x="196" y="616" type="curve" smooth="yes"/>
      <point x="264" y="616"/>
      <point x="304" y="564"/>
      <point x="304" y="481" type="curve" smooth="yes"/>
      <point x="304" y="398"/>
      <point x="264" y="346"/>
      <point x="196" y="346" type="curve" smooth="yes"/>
    </contour>
  </outline>
</glyph>
<glyph name="guillemotright" format="1">
  <advance width="440"/>
  <unicode hex="00BB"/>
  <note>
	guillemotright
  </note>
  <outline>
    <contour>
      <point x="365" y="224" type="line"/>
      <point x="365" y="250" type="line"/>
      <point x="251" y="422" type="line"/>
      <point x="231" y="407" type="line"/>
      <point x="334" y="237" type="line"/>
      <point x="231" y="67" type="line"/>
      <point x="251" y="52" type="line"/>
    </contour>
    <contour>
      <point x="219" y="224" type="line"/>
      <point x="219" y="250" type="line"/>
      <point x="105" y="422" type="line"/>
      <point x="85" y="407" type="line"/>
      <point x="188" y="237" type="line"/>
      <point x="85" y="67" type="line"/>
      <point x="105" y="52" type="line"/>
    </contour>
  </outline>
</glyph>
<glyph name="onequarter" format="1">
  <advance width="789"/>
  <unicode hex="00BC"/>
  <note>
	onequarter
  </note>
  <outline>
    <contour>
      <point x="645" y="679" type="line"/>
      <point x="621" y="695" type="line"/>
      <point x="141" y="0" type="line"/>
      <point x="164" y="-16" type="line"/>
    </contour>
    <contour>
      <point x="200" y="307" type="line" smooth="yes"/>
      <point x="204" y="307"/>
      <point x="206" y="310"/>
      <point x="206" y="314" type="curve" smooth="yes"/>
      <point x="206" y="322"/>
      <point x="201" y="324"/>
      <point x="189" y="325" type="curve" smooth="yes"/>
      <point x="143" y="328" type="line"/>
      <point x="143" y="675" type="line"/>
      <point x="114" y="675" type="line"/>
      <point x="51" y="652" type="line"/>
      <point x="51" y="628" type="line"/>
      <point x="113" y="649" type="line"/>
      <point x="113" y="328" type="line"/>
      <point x="58" y="328" type="line" smooth="yes"/>
      <point x="49" y="328"/>
      <point x="43" y="324"/>
      <point x="43" y="316" type="curve" smooth="yes"/>
      <point x="43" y="310"/>
      <point x="47" y="307"/>
      <point x="52" y="307" type="curve" smooth="yes"/>
    </contour>
    <contour>
      <point x="700" y="0" type="line"/>
      <point x="700" y="94" type="line"/>
      <point x="754" y="94" type="line"/>
      <point x="754" y="119" type="line"/>
      <point x="700" y="119" type="line"/>
      <point x="700" y="368" type="line"/>
      <point x="662" y="368" type="line"/>
      <point x="488" y="124" type="line"/>
      <point x="488" y="94" type="line"/>
      <point x="670" y="94" type="line"/>
      <point x="670" y="0" type="line"/>
    </contour>
    <contour>
      <point x="670" y="335" type="line"/>
      <point x="670" y="119" type="line"/>
      <point x="517" y="119" type="line"/>
    </contour>
  </outline>
</glyph>
<glyph name="onehalf" format="1">
  <advance width="817"/>
  <unicode hex="00BD"/>
  <note>
	onehalf
  </note>
  <outline>
    <contour>
      <point x="645" y="679" type="line"/>
      <point x="621" y="695" type="line"/>
      <point x="141" y="0" type="line"/>
      <point x="164" y="-16" type="line"/>
    </contour>
    <contour>
      <point x="200" y="307" type="line" smooth="yes"/>
      <point x="204" y="307"/>
      <point x="206" y="310"/>
      <point x="206" y="314" type="curve" smooth="yes"/>
      <point x="206" y="322"/>
      <point x="201" y="324"/>
      <point x="189" y="325" type="curve" smooth="yes"/>
      <point x="143" y="328" type="line"/>
      <point x="143" y="675" type="line"/>
      <point x="114" y="675" type="line"/>
      <point x="51" y="652" type="line"/>
      <point x="51" y="628" type="line"/>
      <point x="113" y="649" type="line"/>
      <point x="113" y="328" type="line"/>
      <point x="58" y="328" type="line" smooth="yes"/>
      <point x="49" y="328"/>
      <point x="43" y="324"/>
      <point x="43" y="316" type="curve" smooth="yes"/>
      <point x="43" y="310"/>
      <point x="47" y="307"/>
      <point x="52" y="307" type="curve" smooth="yes"/>
    </contour>
    <contour>
      <point x="777" y="0" type="line"/>
      <point x="777" y="25" type="line"/>
      <point x="572" y="25" type="line"/>
      <point x="686" y="142" type="line" smooth="yes"/>
      <point x="730" y="188"/>
      <point x="769" y="233"/>
      <point x="769" y="278" type="curve" smooth="yes"/>
      <point x="769" y="343"/>
      <point x="719" y="376"/>
      <point x="665" y="376" type="curve" smooth="yes"/>
      <point x="622" y="376"/>
      <point x="582" y="361"/>
      <point x="547" y="337" type="curve"/>
      <point x="547" y="285" type="line" smooth="yes"/>
      <point x="547" y="278"/>
      <point x="551" y="275"/>
      <point x="557" y="275" type="curve" smooth="yes"/>
      <point x="566" y="275"/>
      <point x="569" y="280"/>
      <point x="571" y="291" type="curve" smooth="yes"/>
      <point x="576" y="326" type="line"/>
      <point x="600" y="340"/>
      <point x="631" y="351"/>
      <point x="664" y="351" type="curve" smooth="yes"/>
      <point x="705" y="351"/>
      <point x="738" y="327"/>
      <point x="738" y="278" type="curve" smooth="yes"/>
      <point x="738" y="240"/>
      <point x="704" y="200"/>
      <point x="673" y="168" type="curve" smooth="yes"/>
      <point x="538" y="29" type="line"/>
      <point x="538" y="0" type="line"/>
    </contour>
  </outline>
</glyph>
<glyph name="threequarters" format="1">
  <advance width="800"/>
  <unicode hex="00BE"/>
  <note>
	threequarters
  </note>
  <outline>
    <contour>
      <point x="656" y="679" type="line"/>
      <point x="632" y="695" type="line"/>
      <point x="152" y="0" type="line"/>
      <point x="175" y="-16" type="line"/>
    </contour>
    <contour>
      <point x="227" y="297"/>
      <point x="277" y="330"/>
      <point x="277" y="401" type="curve" smooth="yes"/>
      <point x="277" y="448"/>
      <point x="253" y="485"/>
      <point x="200" y="499" type="curve"/>
      <point x="240" y="515"/>
      <point x="264" y="546"/>
      <point x="264" y="588" type="curve" smooth="yes"/>
      <point x="264" y="655"/>
      <point x="214" y="683"/>
      <point x="159" y="683" type="curve" smooth="yes"/>
      <point x="115" y="683"/>
      <point x="70" y="666"/>
      <point x="40" y="643" type="curve"/>
      <point x="40" y="589" type="line" smooth="yes"/>
      <point x="40" y="582"/>
      <point x="44" y="579"/>
      <point x="50" y="579" type="curve" smooth="yes"/>
      <point x="58" y="579"/>
      <point x="61" y="584"/>
      <point x="63" y="595" type="curve" smooth="yes"/>
      <point x="68" y="631" type="line"/>
      <point x="93" y="648"/>
      <point x="122" y="658"/>
      <point x="157" y="658" type="curve" smooth="yes"/>
      <point x="201" y="658"/>
      <point x="236" y="638"/>
      <point x="236" y="588" type="curve" smooth="yes"/>
      <point x="236" y="535"/>
      <point x="185" y="511"/>
      <point x="141" y="506" type="curve" smooth="yes"/>
      <point x="97" y="501" type="line"/>
      <point x="97" y="475" type="line"/>
      <point x="155" y="481"/>
      <point x="154" y="481"/>
      <point x="160" y="481" type="curve" smooth="yes"/>
      <point x="212" y="481"/>
      <point x="249" y="447"/>
      <point x="249" y="402" type="curve" smooth="yes"/>
      <point x="249" y="347"/>
      <point x="207" y="322"/>
      <point x="145" y="322" type="curve" smooth="yes"/>
      <point x="110" y="322"/>
      <point x="69" y="332"/>
      <point x="34" y="347" type="curve"/>
      <point x="34" y="321" type="line"/>
      <point x="60" y="309"/>
      <point x="102" y="297"/>
      <point x="147" y="297" type="curve" smooth="yes"/>
    </contour>
    <contour>
      <point x="711" y="0" type="line"/>
      <point x="711" y="94" type="line"/>
      <point x="765" y="94" type="line"/>
      <point x="765" y="119" type="line"/>
      <point x="711" y="119" type="line"/>
      <point x="711" y="368" type="line"/>
      <point x="673" y="368" type="line"/>
      <point x="499" y="124" type="line"/>
      <point x="499" y="94" type="line"/>
      <point x="681" y="94" type="line"/>
      <point x="681" y="0" type="line"/>
    </contour>
    <contour>
      <point x="681" y="335" type="line"/>
      <point x="681" y="119" type="line"/>
      <point x="528" y="119" type="line"/>
    </contour>
  </outline>
</glyph>
<glyph name="questiondown" format="1">
  <advance width="463"/>
  <unicode hex="00BF"/>
  <note>
	questiondown
  </note>
  <outline>
    <contour>
      <point x="274" y="-223"/>
      <point x="338" y="-196"/>
      <point x="378" y="-164" type="curve"/>
      <point x="378" y="-90" type="line" smooth="yes"/>
      <point x="378" y="-86"/>
      <point x="375" y="-83"/>
      <point x="370" y="-83" type="curve" smooth="yes"/>
      <point x="363" y="-83"/>
      <point x="360" y="-88"/>
      <point x="358" y="-101" type="curve" smooth="yes"/>
      <point x="351" y="-151" type="line"/>
      <point x="313" y="-180"/>
      <point x="261" y="-195"/>
      <point x="217" y="-195" type="curve" smooth="yes"/>
      <point x="146" y="-195"/>
      <point x="94" y="-162"/>
      <point x="94" y="-90" type="curve" smooth="yes"/>
      <point x="94" y="-22"/>
      <point x="134" y="13"/>
      <point x="175" y="51" type="curve" smooth="yes"/>
      <point x="231" y="104"/>
      <point x="258" y="137"/>
      <point x="258" y="219" type="curve" smooth="yes"/>
      <point x="258" y="331" type="line"/>
      <point x="226" y="331" type="line"/>
      <point x="226" y="230" type="line" smooth="yes"/>
      <point x="226" y="149"/>
      <point x="209" y="119"/>
      <point x="157" y="75" type="curve" smooth="yes"/>
      <point x="109" y="34"/>
      <point x="60" y="-11"/>
      <point x="60" y="-90" type="curve" smooth="yes"/>
      <point x="60" y="-186"/>
      <point x="131" y="-223"/>
      <point x="217" y="-223" type="curve" smooth="yes"/>
    </contour>
    <contour>
      <point x="260" y="419"/>
      <point x="276" y="433"/>
      <point x="276" y="453" type="curve" smooth="yes"/>
      <point x="276" y="473"/>
      <point x="260" y="487"/>
      <point x="242" y="487" type="curve" smooth="yes"/>
      <point x="224" y="487"/>
      <point x="208" y="473"/>
      <point x="208" y="453" type="curve" smooth="yes"/>
      <point x="208" y="433"/>
      <point x="224" y="419"/>
      <point x="242" y="419" type="curve" smooth="yes"/>
    </contour>
  </outline>
</glyph>
<glyph name="Agrave" format="1">
  <advance width="672"/>
  <unicode hex="00C0"/>
  <note>
	Agrave
  </note>
  <outline>
    <contour>
      <point x="379" y="763" type="line"/>
      <point x="307" y="881" type="line"/>
      <point x="277" y="863" type="line"/>
      <point x="357" y="750" type="line"/>
    </contour>
    <component base="A"/>
  </outline>
</glyph>
<glyph name="Aacute" format="1">
  <advance width="672"/>
  <unicode hex="00C1"/>
  <note>
	Aacute
  </note>
  <outline>
    <contour>
      <point x="389" y="862" type="line"/>
      <point x="359" y="880" type="line"/>
      <point x="287" y="762" type="line"/>
      <point x="309" y="749" type="line"/>
    </contour>
    <component base="A"/>
  </outline>
</glyph>
<glyph name="Acircumflex" format="1">
  <advance width="672"/>
  <unicode hex="00C2"/>
  <note>
	Acircumflex
  </note>
  <outline>
    <contour>
      <point x="330" y="840" type="line"/>
      <point x="417" y="749" type="line"/>
      <point x="438" y="763" type="line"/>
      <point x="343" y="881" type="line"/>
      <point x="317" y="881" type="line"/>
      <point x="222" y="763" type="line"/>
      <point x="243" y="749" type="line"/>
    </contour>
    <component base="A"/>
  </outline>
</glyph>
<glyph name="Atilde" format="1">
  <advance width="672"/>
  <unicode hex="00C3"/>
  <note>
	Atilde
  </note>
  <outline>
    <contour>
      <point x="412" y="760"/>
      <point x="443" y="779"/>
      <point x="466" y="800" type="curve"/>
      <point x="451" y="818" type="line"/>
      <point x="429" y="802"/>
      <point x="407" y="790"/>
      <point x="382" y="790" type="curve" smooth="yes"/>
      <point x="354" y="790"/>
      <point x="314" y="821"/>
      <point x="280" y="821" type="curve" smooth="yes"/>
      <point x="251" y="821"/>
      <point x="218" y="802"/>
      <point x="195" y="781" type="curve"/>
      <point x="210" y="763" type="line"/>
      <point x="232" y="779"/>
      <point x="254" y="791"/>
      <point x="279" y="791" type="curve" smooth="yes"/>
      <point x="316" y="791"/>
      <point x="344" y="760"/>
      <point x="383" y="760" type="curve" smooth="yes"/>
    </contour>
    <component base="A"/>
  </outline>
</glyph>
<glyph name="Adieresis" format="1">
  <advance width="672"/>
  <unicode hex="00C4"/>
  <note>
	Adieresis
  </note>
  <outline>
    <contour>
      <point x="437" y="760"/>
      <point x="453" y="774"/>
      <point x="453" y="794" type="curve" smooth="yes"/>
      <point x="453" y="814"/>
      <point x="437" y="828"/>
      <point x="419" y="828" type="curve" smooth="yes"/>
      <point x="401" y="828"/>
      <point x="385" y="814"/>
      <point x="385" y="794" type="curve" smooth="yes"/>
      <point x="385" y="774"/>
      <point x="401" y="760"/>
      <point x="419" y="760" type="curve" smooth="yes"/>
    </contour>
    <contour>
      <point x="259" y="760"/>
      <point x="275" y="774"/>
      <point x="275" y="794" type="curve" smooth="yes"/>
      <point x="275" y="814"/>
      <point x="259" y="828"/>
      <point x="241" y="828" type="curve" smooth="yes"/>
      <point x="223" y="828"/>
      <point x="207" y="814"/>
      <point x="207" y="794" type="curve" smooth="yes"/>
      <point x="207" y="774"/>
      <point x="223" y="760"/>
      <point x="241" y="760" type="curve" smooth="yes"/>
    </contour>
    <component base="A"/>
  </outline>
</glyph>
<glyph name="Aring" format="1">
  <advance width="672"/>
  <unicode hex="00C5"/>
  <note>
	Aring
  </note>
  <outline>
    <contour>
      <point x="381" y="730"/>
      <point x="409" y="763"/>
      <point x="409" y="802" type="curve" smooth="yes"/>
      <point x="409" y="841"/>
      <point x="381" y="874"/>
      <point x="334" y="874" type="curve" smooth="yes"/>
      <point x="287" y="874"/>
      <point x="259" y="841"/>
      <point x="259" y="802" type="curve" smooth="yes"/>
      <point x="259" y="763"/>
      <point x="287" y="730"/>
      <point x="334" y="730" type="curve" smooth="yes"/>
    </contour>
    <contour>
      <point x="307" y="753"/>
      <point x="286" y="770"/>
      <point x="286" y="802" type="curve" smooth="yes"/>
      <point x="286" y="834"/>
      <point x="307" y="851"/>
      <point x="334" y="851" type="curve" smooth="yes"/>
      <point x="361" y="851"/>
      <point x="382" y="834"/>
      <point x="382" y="802" type="curve" smooth="yes"/>
      <point x="382" y="770"/>
      <point x="361" y="753"/>
      <point x="334" y="753" type="curve" smooth="yes"/>
    </contour>
    <component base="A"/>
  </outline>
</glyph>
<glyph name="Ccedilla" format="1">
  <advance width="639"/>
  <unicode hex="00C7"/>
  <note>
	Ccedilla
  </note>
  <outline>
    <contour>
      <point x="360" y="-192"/>
      <point x="407" y="-160"/>
      <point x="407" y="-117" type="curve" smooth="yes"/>
      <point x="407" y="-76"/>
      <point x="381" y="-58"/>
      <point x="358" y="-48" type="curve"/>
      <point x="376" y="-10" type="line"/>
      <point x="379" y="-10" type="line" smooth="yes"/>
      <point x="446" y="-10"/>
      <point x="512" y="6"/>
      <point x="555" y="31" type="curve" smooth="yes"/>
      <point x="567" y="38"/>
      <point x="579" y="47"/>
      <point x="579" y="56" type="curve" smooth="yes"/>
      <point x="579" y="62"/>
      <point x="575" y="69"/>
      <point x="568" y="69" type="curve" smooth="yes"/>
      <point x="563" y="69"/>
      <point x="561" y="67"/>
      <point x="555" y="63" type="curve" smooth="yes"/>
      <point x="507" y="31"/>
      <point x="441" y="19"/>
      <point x="379" y="19" type="curve" smooth="yes"/>
      <point x="202" y="19"/>
      <point x="89" y="141"/>
      <point x="89" y="347" type="curve" smooth="yes"/>
      <point x="89" y="553"/>
      <point x="194" y="676"/>
      <point x="366" y="676" type="curve" smooth="yes"/>
      <point x="431" y="676"/>
      <point x="497" y="660"/>
      <point x="542" y="623" type="curve"/>
      <point x="552" y="554" type="line" smooth="yes"/>
      <point x="554" y="539"/>
      <point x="558" y="532"/>
      <point x="567" y="532" type="curve" smooth="yes"/>
      <point x="573" y="532"/>
      <point x="576" y="536"/>
      <point x="576" y="541" type="curve" smooth="yes"/>
      <point x="576" y="634" type="line"/>
      <point x="523" y="679"/>
      <point x="441" y="705"/>
      <point x="366" y="705" type="curve" smooth="yes"/>
      <point x="178" y="705"/>
      <point x="54" y="582"/>
      <point x="54" y="347" type="curve" smooth="yes"/>
      <point x="54" y="125"/>
      <point x="172" y="4"/>
      <point x="347" y="-9" type="curve"/>
      <point x="328" y="-60" type="line"/>
      <point x="366" y="-71"/>
      <point x="377" y="-89"/>
      <point x="377" y="-117" type="curve" smooth="yes"/>
      <point x="377" y="-145"/>
      <point x="353" y="-171"/>
      <point x="307" y="-186" type="curve"/>
      <point x="314" y="-205" type="line"/>
    </contour>
  </outline>
</glyph>
<glyph name="Egrave" format="1">
  <advance width="656"/>
  <unicode hex="00C8"/>
  <note>
	Egrave
  </note>
  <outline>
    <contour>
      <point x="380" y="763" type="line"/>
      <point x="308" y="881" type="line"/>
      <point x="278" y="863" type="line"/>
      <point x="358" y="750" type="line"/>
    </contour>
    <component base="E"/>
  </outline>
</glyph>
<glyph name="Eacute" format="1">
  <advance width="656"/>
  <unicode hex="00C9"/>
  <note>
	Eacute
  </note>
  <outline>
    <contour>
      <point x="384" y="863" type="line"/>
      <point x="354" y="881" type="line"/>
      <point x="282" y="763" type="line"/>
      <point x="304" y="750" type="line"/>
    </contour>
    <component base="E"/>
  </outline>
</glyph>
<glyph name="Ecircumflex" format="1">
  <advance width="656"/>
  <unicode hex="00CA"/>
  <note>
	Ecircumflex
  </note>
  <outline>
    <contour>
      <point x="337" y="840" type="line"/>
      <point x="424" y="749" type="line"/>
      <point x="445" y="763" type="line"/>
      <point x="350" y="881" type="line"/>
      <point x="324" y="881" type="line"/>
      <point x="229" y="763" type="line"/>
      <point x="250" y="749" type="line"/>
    </contour>
    <component base="E"/>
  </outline>
</glyph>
<glyph name="Edieresis" format="1">
  <advance width="656"/>
  <unicode hex="00CB"/>
  <note>
	Edieresis
  </note>
  <outline>
    <contour>
      <point x="448" y="760"/>
      <point x="464" y="774"/>
      <point x="464" y="794" type="curve" smooth="yes"/>
      <point x="464" y="814"/>
      <point x="448" y="828"/>
      <point x="430" y="828" type="curve" smooth="yes"/>
      <point x="412" y="828"/>
      <point x="396" y="814"/>
      <point x="396" y="794" type="curve" smooth="yes"/>
      <point x="396" y="774"/>
      <point x="412" y="760"/>
      <point x="430" y="760" type="curve" smooth="yes"/>
    </contour>
    <contour>
      <point x="270" y="760"/>
      <point x="286" y="774"/>
      <point x="286" y="794" type="curve" smooth="yes"/>
      <point x="286" y="814"/>
      <point x="270" y="828"/>
      <point x="252" y="828" type="curve" smooth="yes"/>
      <point x="234" y="828"/>
      <point x="218" y="814"/>
      <point x="218" y="794" type="curve" smooth="yes"/>
      <point x="218" y="774"/>
      <point x="234" y="760"/>
      <point x="252" y="760" type="curve" smooth="yes"/>
    </contour>
    <component base="E"/>
  </outline>
</glyph>
<glyph name="Igrave" format="1">
  <advance width="312"/>
  <unicode hex="00CC"/>
  <note>
	Igrave
  </note>
  <outline>
    <contour>
      <point x="235" y="0" type="line" smooth="yes"/>
      <point x="241" y="0"/>
      <point x="242" y="5"/>
      <point x="242" y="8" type="curve" smooth="yes"/>
      <point x="242" y="16"/>
      <point x="236" y="20"/>
      <point x="226" y="21" type="curve" smooth="yes"/>
      <point x="168" y="27" type="line"/>
      <point x="168" y="668" type="line"/>
      <point x="226" y="674" type="line" smooth="yes"/>
      <point x="236" y="675"/>
      <point x="242" y="679"/>
      <point x="242" y="687" type="curve" smooth="yes"/>
      <point x="242" y="690"/>
      <point x="241" y="695"/>
      <point x="235" y="695" type="curve" smooth="yes"/>
      <point x="87" y="695" type="line" smooth="yes"/>
      <point x="75" y="695"/>
      <point x="70" y="689"/>
      <point x="70" y="681" type="curve" smooth="yes"/>
      <point x="70" y="674"/>
      <point x="74" y="669"/>
      <point x="79" y="669" type="curve" smooth="yes"/>
      <point x="134" y="669" type="line"/>
      <point x="134" y="26" type="line"/>
      <point x="88" y="26" type="line" smooth="yes"/>
      <point x="76" y="26"/>
      <point x="70" y="20"/>
      <point x="70" y="12" type="curve" smooth="yes"/>
      <point x="70" y="5"/>
      <point x="74" y="0"/>
      <point x="79" y="0" type="curve" smooth="yes"/>
    </contour>
    <contour>
      <point x="202" y="763" type="line"/>
      <point x="130" y="881" type="line"/>
      <point x="100" y="863" type="line"/>
      <point x="180" y="750" type="line"/>
    </contour>
  </outline>
</glyph>
<glyph name="Iacute" format="1">
  <advance width="312"/>
  <unicode hex="00CD"/>
  <note>
	Iacute
  </note>
  <outline>
    <contour>
      <point x="235" y="0" type="line" smooth="yes"/>
      <point x="241" y="0"/>
      <point x="242" y="5"/>
      <point x="242" y="8" type="curve" smooth="yes"/>
      <point x="242" y="16"/>
      <point x="236" y="20"/>
      <point x="226" y="21" type="curve" smooth="yes"/>
      <point x="168" y="27" type="line"/>
      <point x="168" y="668" type="line"/>
      <point x="226" y="674" type="line" smooth="yes"/>
      <point x="236" y="675"/>
      <point x="242" y="679"/>
      <point x="242" y="687" type="curve" smooth="yes"/>
      <point x="242" y="690"/>
      <point x="241" y="695"/>
      <point x="235" y="695" type="curve" smooth="yes"/>
      <point x="87" y="695" type="line" smooth="yes"/>
      <point x="75" y="695"/>
      <point x="70" y="689"/>
      <point x="70" y="681" type="curve" smooth="yes"/>
      <point x="70" y="674"/>
      <point x="74" y="669"/>
      <point x="79" y="669" type="curve" smooth="yes"/>
      <point x="134" y="669" type="line"/>
      <point x="134" y="26" type="line"/>
      <point x="88" y="26" type="line" smooth="yes"/>
      <point x="76" y="26"/>
      <point x="70" y="20"/>
      <point x="70" y="12" type="curve" smooth="yes"/>
      <point x="70" y="5"/>
      <point x="74" y="0"/>
      <point x="79" y="0" type="curve" smooth="yes"/>
    </contour>
    <contour>
      <point x="211" y="863" type="line"/>
      <point x="181" y="881" type="line"/>
      <point x="109" y="763" type="line"/>
      <point x="131" y="750" type="line"/>
    </contour>
  </outline>
</glyph>
<glyph name="Icircumflex" format="1">
  <advance width="308"/>
  <unicode hex="00CE"/>
  <note>
	Icircumflex
  </note>
  <outline>
    <contour>
      <point x="233" y="0" type="line" smooth="yes"/>
      <point x="239" y="0"/>
      <point x="240" y="5"/>
      <point x="240" y="8" type="curve" smooth="yes"/>
      <point x="240" y="16"/>
      <point x="234" y="20"/>
      <point x="224" y="21" type="curve" smooth="yes"/>
      <point x="166" y="27" type="line"/>
      <point x="166" y="668" type="line"/>
      <point x="224" y="674" type="line" smooth="yes"/>
      <point x="234" y="675"/>
      <point x="240" y="679"/>
      <point x="240" y="687" type="curve" smooth="yes"/>
      <point x="240" y="690"/>
      <point x="239" y="695"/>
      <point x="233" y="695" type="curve" smooth="yes"/>
      <point x="85" y="695" type="line" smooth="yes"/>
      <point x="73" y="695"/>
      <point x="68" y="689"/>
      <point x="68" y="681" type="curve" smooth="yes"/>
      <point x="68" y="674"/>
      <point x="72" y="669"/>
      <point x="77" y="669" type="curve" smooth="yes"/>
      <point x="132" y="669" type="line"/>
      <point x="132" y="26" type="line"/>
      <point x="86" y="26" type="line" smooth="yes"/>
      <point x="74" y="26"/>
      <point x="68" y="20"/>
      <point x="68" y="12" type="curve" smooth="yes"/>
      <point x="68" y="5"/>
      <point x="72" y="0"/>
      <point x="77" y="0" type="curve" smooth="yes"/>
    </contour>
    <contour>
      <point x="154" y="840" type="line"/>
      <point x="241" y="749" type="line"/>
      <point x="262" y="763" type="line"/>
      <point x="167" y="881" type="line"/>
      <point x="141" y="881" type="line"/>
      <point x="46" y="763" type="line"/>
      <point x="67" y="749" type="line"/>
    </contour>
  </outline>
</glyph>
<glyph name="Idieresis" format="1">
  <advance width="308"/>
  <unicode hex="00CF"/>
  <note>
	Idieresis
  </note>
  <outline>
    <contour>
      <point x="236" y="0" type="line" smooth="yes"/>
      <point x="242" y="0"/>
      <point x="243" y="5"/>
      <point x="243" y="8" type="curve" smooth="yes"/>
      <point x="243" y="16"/>
      <point x="237" y="20"/>
      <point x="227" y="21" type="curve" smooth="yes"/>
      <point x="169" y="27" type="line"/>
      <point x="169" y="668" type="line"/>
      <point x="227" y="674" type="line" smooth="yes"/>
      <point x="237" y="675"/>
      <point x="243" y="679"/>
      <point x="243" y="687" type="curve" smooth="yes"/>
      <point x="243" y="690"/>
      <point x="242" y="695"/>
      <point x="236" y="695" type="curve" smooth="yes"/>
      <point x="88" y="695" type="line" smooth="yes"/>
      <point x="76" y="695"/>
      <point x="71" y="689"/>
      <point x="71" y="681" type="curve" smooth="yes"/>
      <point x="71" y="674"/>
      <point x="75" y="669"/>
      <point x="80" y="669" type="curve" smooth="yes"/>
      <point x="135" y="669" type="line"/>
      <point x="135" y="26" type="line"/>
      <point x="89" y="26" type="line" smooth="yes"/>
      <point x="77" y="26"/>
      <point x="71" y="20"/>
      <point x="71" y="12" type="curve" smooth="yes"/>
      <point x="71" y="5"/>
      <point x="75" y="0"/>
      <point x="80" y="0" type="curve" smooth="yes"/>
    </contour>
    <contour>
      <point x="83" y="760"/>
      <point x="99" y="774"/>
      <point x="99" y="794" type="curve" smooth="yes"/>
      <point x="99" y="814"/>
      <point x="83" y="828"/>
      <point x="65" y="828" type="curve" smooth="yes"/>
      <point x="47" y="828"/>
      <point x="31" y="814"/>
      <point x="31" y="794" type="curve" smooth="yes"/>
      <point x="31" y="774"/>
      <point x="47" y="760"/>
      <point x="65" y="760" type="curve" smooth="yes"/>
    </contour>
    <contour>
      <point x="261" y="760"/>
      <point x="277" y="774"/>
      <point x="277" y="794" type="curve" smooth="yes"/>
      <point x="277" y="814"/>
      <point x="261" y="828"/>
      <point x="243" y="828" type="curve" smooth="yes"/>
      <point x="225" y="828"/>
      <point x="209" y="814"/>
      <point x="209" y="794" type="curve" smooth="yes"/>
      <point x="209" y="774"/>
      <point x="225" y="760"/>
      <point x="243" y="760" type="curve" smooth="yes"/>
    </contour>
  </outline>
</glyph>
<glyph name="Ograve" format="1">
  <advance width="718"/>
  <unicode hex="00D2"/>
  <note>
	Ograve
  </note>
  <outline>
    <contour>
      <point x="547" y="-10"/>
      <point x="661" y="112"/>
      <point x="661" y="346" type="curve" smooth="yes"/>
      <point x="661" y="580"/>
      <point x="547" y="705"/>
      <point x="359" y="705" type="curve" smooth="yes"/>
      <point x="171" y="705"/>
      <point x="57" y="580"/>
      <point x="57" y="346" type="curve" smooth="yes"/>
      <point x="57" y="112"/>
      <point x="171" y="-10"/>
      <point x="359" y="-10" type="curve" smooth="yes"/>
    </contour>
    <contour>
      <point x="188" y="18"/>
      <point x="92" y="140"/>
      <point x="92" y="346" type="curve" smooth="yes"/>
      <point x="92" y="552"/>
      <point x="188" y="677"/>
      <point x="359" y="677" type="curve" smooth="yes"/>
      <point x="530" y="677"/>
      <point x="626" y="552"/>
      <point x="626" y="346" type="curve" smooth="yes"/>
      <point x="626" y="140"/>
      <point x="530" y="18"/>
      <point x="359" y="18" type="curve" smooth="yes"/>
    </contour>
    <contour>
      <point x="408" y="763" type="line"/>
      <point x="336" y="881" type="line"/>
      <point x="306" y="863" type="line"/>
      <point x="386" y="750" type="line"/>
    </contour>
  </outline>
</glyph>
<glyph name="Oacute" format="1">
  <advance width="718"/>
  <unicode hex="00D3"/>
  <note>
	Oacute
  </note>
  <outline>
    <contour>
      <point x="547" y="-10"/>
      <point x="661" y="112"/>
      <point x="661" y="346" type="curve" smooth="yes"/>
      <point x="661" y="580"/>
      <point x="547" y="705"/>
      <point x="359" y="705" type="curve" smooth="yes"/>
      <point x="171" y="705"/>
      <point x="57" y="580"/>
      <point x="57" y="346" type="curve" smooth="yes"/>
      <point x="57" y="112"/>
      <point x="171" y="-10"/>
      <point x="359" y="-10" type="curve" smooth="yes"/>
    </contour>
    <contour>
      <point x="188" y="18"/>
      <point x="92" y="140"/>
      <point x="92" y="346" type="curve" smooth="yes"/>
      <point x="92" y="552"/>
      <point x="188" y="677"/>
      <point x="359" y="677" type="curve" smooth="yes"/>
      <point x="530" y="677"/>
      <point x="626" y="552"/>
      <point x="626" y="346" type="curve" smooth="yes"/>
      <point x="626" y="140"/>
      <point x="530" y="18"/>
      <point x="359" y="18" type="curve" smooth="yes"/>
    </contour>
    <contour>
      <point x="411" y="862" type="line"/>
      <point x="381" y="880" type="line"/>
      <point x="309" y="762" type="line"/>
      <point x="331" y="749" type="line"/>
    </contour>
  </outline>
</glyph>
<glyph name="Odieresis" format="1">
  <advance width="718"/>
  <unicode hex="00D6"/>
  <note>
	Odieresis
  </note>
  <outline>
    <contour>
      <point x="547" y="-10"/>
      <point x="661" y="112"/>
      <point x="661" y="346" type="curve" smooth="yes"/>
      <point x="661" y="580"/>
      <point x="547" y="705"/>
      <point x="359" y="705" type="curve" smooth="yes"/>
      <point x="171" y="705"/>
      <point x="57" y="580"/>
      <point x="57" y="346" type="curve" smooth="yes"/>
      <point x="57" y="112"/>
      <point x="171" y="-10"/>
      <point x="359" y="-10" type="curve" smooth="yes"/>
    </contour>
    <contour>
      <point x="188" y="18"/>
      <point x="92" y="140"/>
      <point x="92" y="346" type="curve" smooth="yes"/>
      <point x="92" y="552"/>
      <point x="188" y="677"/>
      <point x="359" y="677" type="curve" smooth="yes"/>
      <point x="530" y="677"/>
      <point x="626" y="552"/>
      <point x="626" y="346" type="curve" smooth="yes"/>
      <point x="626" y="140"/>
      <point x="530" y="18"/>
      <point x="359" y="18" type="curve" smooth="yes"/>
    </contour>
    <contour>
      <point x="288" y="760"/>
      <point x="304" y="774"/>
      <point x="304" y="794" type="curve" smooth="yes"/>
      <point x="304" y="814"/>
      <point x="288" y="828"/>
      <point x="270" y="828" type="curve" smooth="yes"/>
      <point x="252" y="828"/>
      <point x="236" y="814"/>
      <point x="236" y="794" type="curve" smooth="yes"/>
      <point x="236" y="774"/>
      <point x="252" y="760"/>
      <point x="270" y="760" type="curve" smooth="yes"/>
    </contour>
    <contour>
      <point x="466" y="760"/>
      <point x="482" y="774"/>
      <point x="482" y="794" type="curve" smooth="yes"/>
      <point x="482" y="814"/>
      <point x="466" y="828"/>
      <point x="448" y="828" type="curve" smooth="yes"/>
      <point x="430" y="828"/>
      <point x="414" y="814"/>
      <point x="414" y="794" type="curve" smooth="yes"/>
      <point x="414" y="774"/>
      <point x="430" y="760"/>
      <point x="448" y="760" type="curve" smooth="yes"/>
    </contour>
  </outline>
</glyph>
<glyph name="multiply" format="1">
  <advance width="572"/>
  <unicode hex="00D7"/>
  <note>
	multiply
  </note>
  <outline>
    <contour>
      <point x="282" y="326" type="line"/>
      <point x="474" y="130" type="line"/>
      <point x="498" y="153" type="line"/>
      <point x="305" y="350" type="line"/>
      <point x="498" y="546" type="line"/>
      <point x="474" y="569" type="line"/>
      <point x="282" y="373" type="line"/>
      <point x="90" y="569" type="line"/>
      <point x="66" y="546" type="line"/>
      <point x="259" y="350" type="line"/>
      <point x="66" y="153" type="line"/>
      <point x="90" y="130" type="line"/>
    </contour>
  </outline>
</glyph>
<glyph name="Thorn" format="1">
  <advance width="605"/>
  <unicode hex="00DE"/>
  <note>
	Thorn
  </note>
  <outline>
    <contour>
      <point x="230" y="0" type="line" smooth="yes"/>
      <point x="236" y="0"/>
      <point x="237" y="5"/>
      <point x="237" y="8" type="curve" smooth="yes"/>
      <point x="237" y="16"/>
      <point x="231" y="20"/>
      <point x="221" y="21" type="curve" smooth="yes"/>
      <point x="163" y="27" type="line"/>
      <point x="163" y="158" type="line"/>
      <point x="208" y="144"/>
      <point x="255" y="138"/>
      <point x="299" y="138" type="curve" smooth="yes"/>
      <point x="445" y="138"/>
      <point x="543" y="214"/>
      <point x="543" y="352" type="curve" smooth="yes"/>
      <point x="543" y="490"/>
      <point x="445" y="566"/>
      <point x="299" y="566" type="curve" smooth="yes"/>
      <point x="255" y="566"/>
      <point x="208" y="560"/>
      <point x="163" y="546" type="curve"/>
      <point x="163" y="668" type="line"/>
      <point x="221" y="674" type="line" smooth="yes"/>
      <point x="231" y="675"/>
      <point x="237" y="679"/>
      <point x="237" y="687" type="curve" smooth="yes"/>
      <point x="237" y="690"/>
      <point x="236" y="695"/>
      <point x="230" y="695" type="curve" smooth="yes"/>
      <point x="82" y="695" type="line" smooth="yes"/>
      <point x="70" y="695"/>
      <point x="65" y="689"/>
      <point x="65" y="681" type="curve" smooth="yes"/>
      <point x="65" y="674"/>
      <point x="69" y="669"/>
      <point x="74" y="669" type="curve" smooth="yes"/>
      <point x="129" y="669" type="line"/>
      <point x="129" y="26" type="line"/>
      <point x="83" y="26" type="line" smooth="yes"/>
      <point x="71" y="26"/>
      <point x="65" y="20"/>
      <point x="65" y="12" type="curve" smooth="yes"/>
      <point x="65" y="5"/>
      <point x="69" y="0"/>
      <point x="74" y="0" type="curve" smooth="yes"/>
    </contour>
    <contour>
      <point x="258" y="165"/>
      <point x="217" y="170"/>
      <point x="163" y="187" type="curve"/>
      <point x="163" y="517" type="line"/>
      <point x="217" y="534"/>
      <point x="258" y="539"/>
      <point x="299" y="539" type="curve" smooth="yes"/>
      <point x="411" y="539"/>
      <point x="509" y="486"/>
      <point x="509" y="352" type="curve" smooth="yes"/>
      <point x="509" y="218"/>
      <point x="411" y="165"/>
      <point x="299" y="165" type="curve" smooth="yes"/>
    </contour>
  </outline>
</glyph>
<glyph name="germandbls" format="1">
  <advance width="652"/>
  <unicode hex="00DF"/>
  <note>
	germandbls
  </note>
  <outline>
    <contour>
      <point x="535" y="-10"/>
      <point x="584" y="65"/>
      <point x="584" y="132" type="curve" smooth="yes"/>
      <point x="584" y="261"/>
      <point x="436" y="294"/>
      <point x="436" y="385" type="curve" smooth="yes"/>
      <point x="436" y="458"/>
      <point x="523" y="492"/>
      <point x="523" y="578" type="curve" smooth="yes"/>
      <point x="523" y="652"/>
      <point x="444" y="719"/>
      <point x="333" y="719" type="curve" smooth="yes"/>
      <point x="199" y="719"/>
      <point x="128" y="642"/>
      <point x="128" y="518" type="curve" smooth="yes"/>
      <point x="128" y="25" type="line"/>
      <point x="83" y="25" type="line" smooth="yes"/>
      <point x="73" y="25"/>
      <point x="65" y="21"/>
      <point x="65" y="11" type="curve" smooth="yes"/>
      <point x="65" y="4"/>
      <point x="69" y="0"/>
      <point x="74" y="0" type="curve" smooth="yes"/>
      <point x="160" y="0" type="line"/>
      <point x="160" y="516" type="line" smooth="yes"/>
      <point x="160" y="628"/>
      <point x="217" y="691"/>
      <point x="332" y="691" type="curve" smooth="yes"/>
      <point x="423" y="691"/>
      <point x="490" y="642"/>
      <point x="490" y="576" type="curve" smooth="yes"/>
      <point x="490" y="501"/>
      <point x="405" y="472"/>
      <point x="405" y="385" type="curve" smooth="yes"/>
      <point x="405" y="277"/>
      <point x="551" y="245"/>
      <point x="551" y="135" type="curve" smooth="yes"/>
      <point x="551" y="73"/>
      <point x="507" y="17"/>
      <point x="419" y="17" type="curve" smooth="yes"/>
      <point x="376" y="17"/>
      <point x="319" y="27"/>
      <point x="286" y="57" type="curve"/>
      <point x="279" y="105" type="line" smooth="yes"/>
      <point x="277" y="118"/>
      <point x="274" y="124"/>
      <point x="267" y="124" type="curve" smooth="yes"/>
      <point x="262" y="124"/>
      <point x="259" y="121"/>
      <point x="259" y="117" type="curve" smooth="yes"/>
      <point x="259" y="42" type="line"/>
      <point x="297" y="6"/>
      <point x="365" y="-10"/>
      <point x="419" y="-10" type="curve" smooth="yes"/>
    </contour>
  </outline>
</glyph>
<glyph name="ae" format="1">
  <advance width="840"/>
  <unicode hex="00E6"/>
  <note>
	ae
  </note>
  <outline>
    <contour>
      <point x="298" y="-10"/>
      <point x="373" y="44"/>
      <point x="405" y="125" type="curve"/>
      <point x="438" y="39"/>
      <point x="510" y="-10"/>
      <point x="606" y="-10" type="curve" smooth="yes"/>
      <point x="660" y="-10"/>
      <point x="704" y="3"/>
      <point x="742" y="27" type="curve" smooth="yes"/>
      <point x="754" y="35"/>
      <point x="766" y="43"/>
      <point x="766" y="52" type="curve" smooth="yes"/>
      <point x="766" y="58"/>
      <point x="762" y="65"/>
      <point x="755" y="65" type="curve" smooth="yes"/>
      <point x="750" y="65"/>
      <point x="747" y="63"/>
      <point x="742" y="59" type="curve" smooth="yes"/>
      <point x="707" y="31"/>
      <point x="662" y="16"/>
      <point x="606" y="16" type="curve" smooth="yes"/>
      <point x="477" y="16"/>
      <point x="418" y="126"/>
      <point x="418" y="238" type="curve" smooth="yes"/>
      <point x="418" y="256" type="line"/>
      <point x="786" y="256" type="line"/>
      <point x="791" y="269"/>
      <point x="795" y="285"/>
      <point x="795" y="303" type="curve" smooth="yes"/>
      <point x="795" y="405"/>
      <point x="733" y="497"/>
      <point x="601" y="497" type="curve" smooth="yes"/>
      <point x="508" y="497"/>
      <point x="446" y="452"/>
      <point x="413" y="382" type="curve"/>
      <point x="397" y="456"/>
      <point x="333" y="497"/>
      <point x="258" y="497" type="curve" smooth="yes"/>
      <point x="196" y="497"/>
      <point x="124" y="471"/>
      <point x="76" y="441" type="curve"/>
      <point x="76" y="367" type="line" smooth="yes"/>
      <point x="76" y="363"/>
      <point x="79" y="360"/>
      <point x="84" y="360" type="curve" smooth="yes"/>
      <point x="91" y="360"/>
      <point x="94" y="365"/>
      <point x="96" y="378" type="curve" smooth="yes"/>
      <point x="103" y="426" type="line"/>
      <point x="144" y="452"/>
      <point x="210" y="471"/>
      <point x="256" y="471" type="curve" smooth="yes"/>
      <point x="328" y="471"/>
      <point x="385" y="426"/>
      <point x="385" y="342" type="curve" smooth="yes"/>
      <point x="385" y="281" type="line"/>
      <point x="206" y="254" type="line" smooth="yes"/>
      <point x="123" y="241"/>
      <point x="51" y="207"/>
      <point x="51" y="118" type="curve" smooth="yes"/>
      <point x="51" y="34"/>
      <point x="124" y="-10"/>
      <point x="201" y="-10" type="curve" smooth="yes"/>
    </contour>
    <contour>
      <point x="144" y="16"/>
      <point x="85" y="47"/>
      <point x="85" y="120" type="curve" smooth="yes"/>
      <point x="85" y="192"/>
      <point x="147" y="218"/>
      <point x="218" y="229" type="curve" smooth="yes"/>
      <point x="386" y="255" type="line"/>
      <point x="385" y="247"/>
      <point x="385" y="239"/>
      <point x="385" y="231" type="curve" smooth="yes"/>
      <point x="385" y="212"/>
      <point x="386" y="207"/>
      <point x="389" y="185" type="curve"/>
      <point x="389" y="96"/>
      <point x="295" y="16"/>
      <point x="210" y="16" type="curve" smooth="yes"/>
    </contour>
    <contour>
      <point x="428" y="408"/>
      <point x="496" y="471"/>
      <point x="601" y="471" type="curve" smooth="yes"/>
      <point x="697" y="471"/>
      <point x="762" y="405"/>
      <point x="762" y="308" type="curve" smooth="yes"/>
      <point x="762" y="299"/>
      <point x="761" y="288"/>
      <point x="759" y="282" type="curve"/>
      <point x="419" y="282" type="line"/>
    </contour>
  </outline>
</glyph>
<glyph name="ccedilla" format="1">
  <advance width="470"/>
  <unicode hex="00E7"/>
  <note>
	ccedilla
  </note>
  <outline>
    <contour>
      <point x="251" y="-192"/>
      <point x="298" y="-160"/>
      <point x="298" y="-117" type="curve" smooth="yes"/>
      <point x="298" y="-76"/>
      <point x="272" y="-58"/>
      <point x="249" y="-48" type="curve"/>
      <point x="267" y="-10" type="line"/>
      <point x="320" y="-10"/>
      <point x="365" y="3"/>
      <point x="401" y="27" type="curve" smooth="yes"/>
      <point x="413" y="35"/>
      <point x="425" y="44"/>
      <point x="425" y="52" type="curve" smooth="yes"/>
      <point x="425" y="58"/>
      <point x="421" y="65"/>
      <point x="414" y="65" type="curve" smooth="yes"/>
      <point x="409" y="65"/>
      <point x="406" y="63"/>
      <point x="401" y="59" type="curve" smooth="yes"/>
      <point x="366" y="31"/>
      <point x="321" y="16"/>
      <point x="265" y="16" type="curve" smooth="yes"/>
      <point x="153" y="16"/>
      <point x="79" y="100"/>
      <point x="79" y="244" type="curve" smooth="yes"/>
      <point x="79" y="387"/>
      <point x="150" y="470"/>
      <point x="262" y="470" type="curve" smooth="yes"/>
      <point x="306" y="470"/>
      <point x="365" y="454"/>
      <point x="393" y="425" type="curve"/>
      <point x="400" y="375" type="line" smooth="yes"/>
      <point x="402" y="362"/>
      <point x="405" y="357"/>
      <point x="412" y="357" type="curve" smooth="yes"/>
      <point x="417" y="357"/>
      <point x="420" y="360"/>
      <point x="420" y="364" type="curve" smooth="yes"/>
      <point x="420" y="438" type="line"/>
      <point x="390" y="470"/>
      <point x="319" y="497"/>
      <point x="262" y="497" type="curve" smooth="yes"/>
      <point x="116" y="497"/>
      <point x="46" y="390"/>
      <point x="46" y="244" type="curve" smooth="yes"/>
      <point x="46" y="105"/>
      <point x="110" y="4"/>
      <point x="238" y="-9" type="curve"/>
      <point x="219" y="-60" type="line"/>
      <point x="257" y="-71"/>
      <point x="268" y="-89"/>
      <point x="268" y="-117" type="curve" smooth="yes"/>
      <point x="268" y="-145"/>
      <point x="244" y="-171"/>
      <point x="198" y="-186" type="curve"/>
      <point x="205" y="-205" type="line"/>
    </contour>
  </outline>
</glyph>
<glyph name="igrave" format="1">
  <advance width="253"/>
  <unicode hex="00EC"/>
  <note>
	igrave
  </note>
  <outline>
    <contour>
      <point x="217" y="0" type="line" smooth="yes"/>
      <point x="223" y="0"/>
      <point x="224" y="5"/>
      <point x="224" y="8" type="curve" smooth="yes"/>
      <point x="224" y="16"/>
      <point x="217" y="19"/>
      <point x="207" y="20" type="curve" smooth="yes"/>
      <point x="152" y="26" type="line"/>
      <point x="152" y="487" type="line"/>
      <point x="74" y="487" type="line" smooth="yes"/>
      <point x="64" y="487"/>
      <point x="56" y="483"/>
      <point x="56" y="473" type="curve" smooth="yes"/>
      <point x="56" y="466"/>
      <point x="60" y="462"/>
      <point x="65" y="462" type="curve" smooth="yes"/>
      <point x="120" y="462" type="line"/>
      <point x="120" y="25" type="line"/>
      <point x="74" y="25" type="line" smooth="yes"/>
      <point x="64" y="25"/>
      <point x="56" y="21"/>
      <point x="56" y="11" type="curve" smooth="yes"/>
      <point x="56" y="4"/>
      <point x="60" y="0"/>
      <point x="65" y="0" type="curve" smooth="yes"/>
    </contour>
    <contour>
      <point x="155" y="570" type="line"/>
      <point x="83" y="688" type="line"/>
      <point x="53" y="670" type="line"/>
      <point x="133" y="557" type="line"/>
    </contour>
  </outline>
</glyph>
<glyph name="icircumflex" format="1">
  <advance width="260"/>
  <unicode hex="00EE"/>
  <note>
	icircumflex
  </note>
  <outline>
    <contour>
      <point x="227" y="0" type="line" smooth="yes"/>
      <point x="233" y="0"/>
      <point x="234" y="5"/>
      <point x="234" y="8" type="curve" smooth="yes"/>
      <point x="234" y="16"/>
      <point x="227" y="19"/>
      <point x="217" y="20" type="curve" smooth="yes"/>
      <point x="162" y="26" type="line"/>
      <point x="162" y="487" type="line"/>
      <point x="84" y="487" type="line" smooth="yes"/>
      <point x="74" y="487"/>
      <point x="66" y="483"/>
      <point x="66" y="473" type="curve" smooth="yes"/>
      <point x="66" y="466"/>
      <point x="70" y="462"/>
      <point x="75" y="462" type="curve" smooth="yes"/>
      <point x="130" y="462" type="line"/>
      <point x="130" y="25" type="line"/>
      <point x="84" y="25" type="line" smooth="yes"/>
      <point x="74" y="25"/>
      <point x="66" y="21"/>
      <point x="66" y="11" type="curve" smooth="yes"/>
      <point x="66" y="4"/>
      <point x="70" y="0"/>
      <point x="75" y="0" type="curve" smooth="yes"/>
    </contour>
    <contour>
      <point x="128" y="648" type="line"/>
      <point x="215" y="557" type="line"/>
      <point x="236" y="571" type="line"/>
      <point x="141" y="689" type="line"/>
      <point x="115" y="689" type="line"/>
      <point x="20" y="571" type="line"/>
      <point x="41" y="557" type="line"/>
    </contour>
  </outline>
</glyph>
<glyph name="idieresis" format="1">
  <advance width="285"/>
  <unicode hex="00EF"/>
  <note>
	idieresis
  </note>
  <outline>
    <contour>
      <point x="239" y="0" type="line" smooth="yes"/>
      <point x="245" y="0"/>
      <point x="246" y="5"/>
      <point x="246" y="8" type="curve" smooth="yes"/>
      <point x="246" y="16"/>
      <point x="239" y="19"/>
      <point x="229" y="20" type="curve" smooth="yes"/>
      <point x="174" y="26" type="line"/>
      <point x="174" y="487" type="line"/>
      <point x="96" y="487" type="line" smooth="yes"/>
      <point x="86" y="487"/>
      <point x="78" y="483"/>
      <point x="78" y="473" type="curve" smooth="yes"/>
      <point x="78" y="466"/>
      <point x="82" y="462"/>
      <point x="87" y="462" type="curve" smooth="yes"/>
      <point x="142" y="462" type="line"/>
      <point x="142" y="25" type="line"/>
      <point x="96" y="25" type="line" smooth="yes"/>
      <point x="86" y="25"/>
      <point x="78" y="21"/>
      <point x="78" y="11" type="curve" smooth="yes"/>
      <point x="78" y="4"/>
      <point x="82" y="0"/>
      <point x="87" y="0" type="curve" smooth="yes"/>
    </contour>
    <contour>
      <point x="69" y="566"/>
      <point x="85" y="580"/>
      <point x="85" y="600" type="curve" smooth="yes"/>
      <point x="85" y="620"/>
      <point x="69" y="634"/>
      <point x="51" y="634" type="curve" smooth="yes"/>
      <point x="33" y="634"/>
      <point x="17" y="620"/>
      <point x="17" y="600" type="curve" smooth="yes"/>
      <point x="17" y="580"/>
      <point x="33" y="566"/>
      <point x="51" y="566" type="curve" smooth="yes"/>
    </contour>
    <contour>
      <point x="247" y="566"/>
      <point x="263" y="580"/>
      <point x="263" y="600" type="curve" smooth="yes"/>
      <point x="263" y="620"/>
      <point x="247" y="634"/>
      <point x="229" y="634" type="curve" smooth="yes"/>
      <point x="211" y="634"/>
      <point x="195" y="620"/>
      <point x="195" y="600" type="curve" smooth="yes"/>
      <point x="195" y="580"/>
      <point x="211" y="566"/>
      <point x="229" y="566" type="curve" smooth="yes"/>
    </contour>
  </outline>
</glyph>
<glyph name="eth" format="1">
  <advance width="579"/>
  <unicode hex="00F0"/>
  <note>
	eth
  </note>
  <outline>
    <contour>
      <point x="424" y="-10"/>
      <point x="494" y="120"/>
      <point x="494" y="319" type="curve" smooth="yes"/>
      <point x="494" y="431"/>
      <point x="469" y="530"/>
      <point x="413" y="598" type="curve"/>
      <point x="519" y="646" type="line"/>
      <point x="508" y="671" type="line"/>
      <point x="393" y="620" type="line"/>
      <point x="344" y="667"/>
      <point x="275" y="695"/>
      <point x="184" y="695" type="curve" smooth="yes"/>
      <point x="158" y="695"/>
      <point x="136" y="692"/>
      <point x="117" y="687" type="curve"/>
      <point x="117" y="660" type="line"/>
      <point x="138" y="665"/>
      <point x="156" y="668"/>
      <point x="181" y="668" type="curve" smooth="yes"/>
      <point x="256" y="668"/>
      <point x="317" y="647"/>
      <point x="363" y="606" type="curve"/>
      <point x="261" y="561" type="line"/>
      <point x="272" y="535" type="line"/>
      <point x="383" y="585" type="line"/>
      <point x="433" y="527"/>
      <point x="459" y="440"/>
      <point x="459" y="326" type="curve"/>
      <point x="404" y="367"/>
      <point x="338" y="403"/>
      <point x="249" y="403" type="curve" smooth="yes"/>
      <point x="131" y="403"/>
      <point x="60" y="334"/>
      <point x="60" y="213" type="curve" smooth="yes"/>
      <point x="60" y="67"/>
      <point x="158" y="-10"/>
      <point x="265" y="-10" type="curve" smooth="yes"/>
    </contour>
    <contour>
      <point x="179" y="19"/>
      <point x="96" y="84"/>
      <point x="96" y="213" type="curve" smooth="yes"/>
      <point x="96" y="330"/>
      <point x="164" y="374"/>
      <point x="265" y="374" type="curve" smooth="yes"/>
      <point x="332" y="374"/>
      <point x="413" y="335"/>
      <point x="458" y="295" type="curve"/>
      <point x="458" y="142"/>
      <point x="395" y="19"/>
      <point x="269" y="19" type="curve" smooth="yes"/>
    </contour>
  </outline>
</glyph>
<glyph name="ntilde" format="1">
  <advance width="595"/>
  <unicode hex="00F1"/>
  <note>
	ntilde
  </note>
  <outline>
    <contour>
      <point x="216" y="0" type="line" smooth="yes"/>
      <point x="222" y="0"/>
      <point x="223" y="5"/>
      <point x="223" y="8" type="curve" smooth="yes"/>
      <point x="223" y="16"/>
      <point x="216" y="19"/>
      <point x="206" y="20" type="curve" smooth="yes"/>
      <point x="150" y="26" type="line"/>
      <point x="150" y="376" type="line"/>
      <point x="198" y="431"/>
      <point x="263" y="469"/>
      <point x="326" y="469" type="curve" smooth="yes"/>
      <point x="411" y="469"/>
      <point x="460" y="415"/>
      <point x="460" y="343" type="curve" smooth="yes"/>
      <point x="460" y="25" type="line"/>
      <point x="415" y="25" type="line" smooth="yes"/>
      <point x="405" y="25"/>
      <point x="397" y="21"/>
      <point x="397" y="11" type="curve" smooth="yes"/>
      <point x="397" y="4"/>
      <point x="401" y="0"/>
      <point x="406" y="0" type="curve" smooth="yes"/>
      <point x="558" y="0" type="line" smooth="yes"/>
      <point x="564" y="0"/>
      <point x="565" y="5"/>
      <point x="565" y="8" type="curve" smooth="yes"/>
      <point x="565" y="16"/>
      <point x="558" y="19"/>
      <point x="548" y="20" type="curve" smooth="yes"/>
      <point x="492" y="26" type="line"/>
      <point x="492" y="344" type="line" smooth="yes"/>
      <point x="492" y="442"/>
      <point x="418" y="497"/>
      <point x="331" y="497" type="curve" smooth="yes"/>
      <point x="258" y="497"/>
      <point x="199" y="459"/>
      <point x="150" y="411" type="curve"/>
      <point x="147" y="411" type="line"/>
      <point x="147" y="487" type="line"/>
      <point x="73" y="487" type="line" smooth="yes"/>
      <point x="63" y="487"/>
      <point x="55" y="483"/>
      <point x="55" y="473" type="curve" smooth="yes"/>
      <point x="55" y="466"/>
      <point x="59" y="462"/>
      <point x="64" y="462" type="curve" smooth="yes"/>
      <point x="118" y="462" type="line"/>
      <point x="118" y="25" type="line"/>
      <point x="73" y="25" type="line" smooth="yes"/>
      <point x="63" y="25"/>
      <point x="55" y="21"/>
      <point x="55" y="11" type="curve" smooth="yes"/>
      <point x="55" y="4"/>
      <point x="59" y="0"/>
      <point x="64" y="0" type="curve" smooth="yes"/>
    </contour>
    <contour>
      <point x="397" y="566"/>
      <point x="428" y="585"/>
      <point x="451" y="606" type="curve"/>
      <point x="436" y="624" type="line"/>
      <point x="414" y="608"/>
      <point x="392" y="596"/>
      <point x="367" y="596" type="curve" smooth="yes"/>
      <point x="339" y="596"/>
      <point x="299" y="627"/>
      <point x="265" y="627" type="curve" smooth="yes"/>
      <point x="236" y="627"/>
      <point x="203" y="608"/>
      <point x="180" y="587" type="curve"/>
      <point x="195" y="569" type="line"/>
      <point x="217" y="585"/>
      <point x="239" y="597"/>
      <point x="264" y="597" type="curve" smooth="yes"/>
      <point x="301" y="597"/>
      <point x="329" y="566"/>
      <point x="368" y="566" type="curve" smooth="yes"/>
    </contour>
  </outline>
</glyph>
<glyph name="ograve" format="1">
  <advance width="526"/>
  <unicode hex="00F2"/>
  <note>
	ograve
  </note>
  <outline>
    <contour>
      <point x="409" y="-10"/>
      <point x="479" y="96"/>
      <point x="479" y="244" type="curve" smooth="yes"/>
      <point x="479" y="390"/>
      <point x="409" y="497"/>
      <point x="263" y="497" type="curve" smooth="yes"/>
      <point x="117" y="497"/>
      <point x="47" y="390"/>
      <point x="47" y="244" type="curve" smooth="yes"/>
      <point x="47" y="96"/>
      <point x="117" y="-10"/>
      <point x="263" y="-10" type="curve" smooth="yes"/>
    </contour>
    <contour>
      <point x="151" y="16"/>
      <point x="80" y="100"/>
      <point x="80" y="244" type="curve" smooth="yes"/>
      <point x="80" y="387"/>
      <point x="151" y="471"/>
      <point x="263" y="471" type="curve" smooth="yes"/>
      <point x="375" y="471"/>
      <point x="446" y="387"/>
      <point x="446" y="244" type="curve" smooth="yes"/>
      <point x="446" y="100"/>
      <point x="375" y="16"/>
      <point x="263" y="16" type="curve" smooth="yes"/>
    </contour>
    <contour>
      <point x="312" y="570" type="line"/>
      <point x="240" y="688" type="line"/>
      <point x="210" y="670" type="line"/>
      <point x="290" y="557" type="line"/>
    </contour>
  </outline>
</glyph>
<glyph name="odieresis" format="1">
  <advance width="526"/>
  <unicode hex="00F6"/>
  <note>
	odieresis
  </note>
  <outline>
    <contour>
      <point x="409" y="-10"/>
      <point x="479" y="96"/>
      <point x="479" y="244" type="curve" smooth="yes"/>
      <point x="479" y="390"/>
      <point x="409" y="497"/>
      <point x="263" y="497" type="curve" smooth="yes"/>
      <point x="117" y="497"/>
      <point x="47" y="390"/>
      <point x="47" y="244" type="curve" smooth="yes"/>
      <point x="47" y="96"/>
      <point x="117" y="-10"/>
      <point x="263" y="-10" type="curve" smooth="yes"/>
    </contour>
    <contour>
      <point x="151" y="16"/>
      <point x="80" y="100"/>
      <point x="80" y="244" type="curve" smooth="yes"/>
      <point x="80" y="387"/>
      <point x="151" y="471"/>
      <point x="263" y="471" type="curve" smooth="yes"/>
      <point x="375" y="471"/>
      <point x="446" y="387"/>
      <point x="446" y="244" type="curve" smooth="yes"/>
      <point x="446" y="100"/>
      <point x="375" y="16"/>
      <point x="263" y="16" type="curve" smooth="yes"/>
    </contour>
    <contour>
      <point x="192" y="566"/>
      <point x="208" y="580"/>
      <point x="208" y="600" type="curve" smooth="yes"/>
      <point x="208" y="620"/>
      <point x="192" y="634"/>
      <point x="174" y="634" type="curve" smooth="yes"/>
      <point x="156" y="634"/>
      <point x="140" y="620"/>
      <point x="140" y="600" type="curve" smooth="yes"/>
      <point x="140" y="580"/>
      <point x="156" y="566"/>
      <point x="174" y="566" type="curve" smooth="yes"/>
    </contour>
    <contour>
      <point x="370" y="566"/>
      <point x="386" y="580"/>
      <point x="386" y="600" type="curve" smooth="yes"/>
      <point x="386" y="620"/>
      <point x="370" y="634"/>
      <point x="352" y="634" type="curve" smooth="yes"/>
      <point x="334" y="634"/>
      <point x="318" y="620"/>
      <point x="318" y="600" type="curve" smooth="yes"/>
      <point x="318" y="580"/>
      <point x="334" y="566"/>
      <point x="352" y="566" type="curve" smooth="yes"/>
    </contour>
  </outline>
</glyph>
<glyph name="divide" format="1">
  <advance width="615"/>
  <unicode hex="00F7"/>
  <note>
	divide
  </note>
  <outline>
    <contour>
      <point x="546" y="320" type="line"/>
      <point x="546" y="348" type="line"/>
      <point x="69" y="348" type="line"/>
      <point x="69" y="320" type="line"/>
    </contour>
    <contour>
      <point x="326" y="96"/>
      <point x="342" y="110"/>
      <point x="342" y="130" type="curve" smooth="yes"/>
      <point x="342" y="150"/>
      <point x="326" y="164"/>
      <point x="308" y="164" type="curve" smooth="yes"/>
      <point x="290" y="164"/>
      <point x="274" y="150"/>
      <point x="274" y="130" type="curve" smooth="yes"/>
      <point x="274" y="110"/>
      <point x="290" y="96"/>
      <point x="308" y="96" type="curve" smooth="yes"/>
    </contour>
    <contour>
      <point x="326" y="504"/>
      <point x="342" y="518"/>
      <point x="342" y="538" type="curve" smooth="yes"/>
      <point x="342" y="558"/>
      <point x="326" y="572"/>
      <point x="308" y="572" type="curve" smooth="yes"/>
      <point x="290" y="572"/>
      <point x="274" y="558"/>
      <point x="274" y="538" type="curve" smooth="yes"/>
      <point x="274" y="518"/>
      <point x="290" y="504"/>
      <point x="308" y="504" type="curve" smooth="yes"/>
    </contour>
  </outline>
</glyph>
<glyph name="oslash" format="1">
  <advance width="526"/>
  <unicode hex="00F8"/>
  <note>
	oslash
  </note>
  <outline>
    <contour>
      <point x="140" y="24" type="line"/>
      <point x="172" y="2"/>
      <point x="213" y="-10"/>
      <point x="263" y="-10" type="curve" smooth="yes"/>
      <point x="409" y="-10"/>
      <point x="479" y="96"/>
      <point x="479" y="244" type="curve" smooth="yes"/>
      <point x="479" y="326"/>
      <point x="457" y="396"/>
      <point x="411" y="441" type="curve"/>
      <point x="458" y="513" type="line"/>
      <point x="433" y="528" type="line"/>
      <point x="389" y="460" type="line"/>
      <point x="356" y="484"/>
      <point x="314" y="497"/>
      <point x="263" y="497" type="curve" smooth="yes"/>
      <point x="117" y="497"/>
      <point x="47" y="390"/>
      <point x="47" y="244" type="curve" smooth="yes"/>
      <point x="47" y="159"/>
      <point x="70" y="88"/>
      <point x="117" y="43" type="curve"/>
      <point x="56" y="-51" type="line"/>
      <point x="81" y="-66" type="line"/>
    </contour>
    <contour>
      <point x="100" y="109"/>
      <point x="80" y="168"/>
      <point x="80" y="244" type="curve" smooth="yes"/>
      <point x="80" y="387"/>
      <point x="151" y="471"/>
      <point x="263" y="471" type="curve" smooth="yes"/>
      <point x="306" y="471"/>
      <point x="343" y="459"/>
      <point x="372" y="435" type="curve"/>
      <point x="135" y="70" type="line"/>
    </contour>
    <contour>
      <point x="221" y="16"/>
      <point x="185" y="28"/>
      <point x="156" y="50" type="curve"/>
      <point x="394" y="414" type="line"/>
      <point x="427" y="375"/>
      <point x="446" y="318"/>
      <point x="446" y="244" type="curve" smooth="yes"/>
      <point x="446" y="100"/>
      <point x="375" y="16"/>
      <point x="263" y="16" type="curve" smooth="yes"/>
    </contour>
  </outline>
</glyph>
